<svg id="SvgjsSvg1194" width="1325.09375" height="442.59375" xmlns="http://www.w3.org/2000/svg" version="1.1" xmlns:xlink="http://www.w3.org/1999/xlink" xmlns:svgjs="http://svgjs.com/svgjs"><defs id="SvgjsDefs1195"></defs><g id="SvgjsG1196" transform="translate(168.95673076923077,131.09375)"><path id="SvgjsPath1197" d="M 0 4Q 0 0 4 0L 991 0Q 995 0 995 4L 995 159Q 995 163 991 163L 4 163Q 0 163 0 159Z" stroke="rgba(50,50,50,1)" stroke-width="2" fill-opacity="1" fill="#ffffff"></path><g id="SvgjsG1198"><text id="SvgjsText1199" font-family="微软雅黑" text-anchor="middle" font-size="13px" width="975px" fill="#323232" font-weight="400" align="middle" lineHeight="125%" anchor="middle" family="微软雅黑" size="13px" weight="400" font-style="" opacity="1" y="70.875" transform="rotate(0)"></text></g></g><g id="SvgjsG1200" transform="translate(166.1875,130.09375)"><path id="SvgjsPath1201" d="M 0 0L 264 0L 264 165L 0 165Z" stroke="rgba(50,50,50,1)" stroke-width="2" fill-opacity="1" fill="#ffffff"></path><g id="SvgjsG1202"><text id="SvgjsText1203" font-family="微软雅黑" text-anchor="middle" font-size="13px" width="244px" fill="#323232" font-weight="400" align="middle" lineHeight="125%" anchor="middle" family="微软雅黑" size="13px" weight="400" font-style="" opacity="1" y="71.875" transform="rotate(0)"><tspan id="SvgjsTspan1204" dy="16" x="132"><tspan id="SvgjsTspan1205" style="text-decoration:;">eden(伊甸区)</tspan></tspan></text></g></g><g id="SvgjsG1206" transform="translate(430.1875,130.00284090909082)"><path id="SvgjsPath1207" d="M 0 0L 100 0L 100 165.18181818181836L 0 165.18181818181836Z" stroke="rgba(50,50,50,1)" stroke-width="2" fill-opacity="1" fill="#ffffff"></path><g id="SvgjsG1208"><text id="SvgjsText1209" font-family="微软雅黑" text-anchor="middle" font-size="12px" width="80px" fill="#323232" font-weight="400" align="middle" lineHeight="125%" anchor="middle" family="微软雅黑" size="12px" weight="400" font-style="" opacity="1" y="72.59090909090918" transform="rotate(0)"><tspan id="SvgjsTspan1210" dy="15" x="50"><tspan id="SvgjsTspan1211" style="text-decoration:;">survivor幸存区</tspan></tspan></text></g></g><g id="SvgjsG1212" transform="translate(529.7329545454534,129.91193181818159)"><path id="SvgjsPath1213" d="M 0 0L 100 0L 100 165.18181818181836L 0 165.18181818181836Z" stroke="rgba(50,50,50,1)" stroke-width="2" fill-opacity="1" fill="#ffffff"></path><g id="SvgjsG1214"><text id="SvgjsText1215" font-family="微软雅黑" text-anchor="middle" font-size="12px" width="80px" fill="#323232" font-weight="400" align="middle" lineHeight="125%" anchor="middle" family="微软雅黑" size="12px" weight="400" font-style="" opacity="1" y="72.59090909090918" transform="rotate(0)"><tspan id="SvgjsTspan1216" dy="15" x="50"><tspan id="SvgjsTspan1217" style="text-decoration:;">survivor幸存区</tspan></tspan></text></g></g><g id="SvgjsG1218" transform="translate(630.4951923076923,129.91193181818159)"><path id="SvgjsPath1219" d="M 0 0L 533.4615384615385 0L 533.4615384615385 165.18181818181836L 0 165.18181818181836Z" stroke="rgba(50,50,50,1)" stroke-width="2" fill-opacity="1" fill="#ffffff"></path><g id="SvgjsG1220"><text id="SvgjsText1221" font-family="微软雅黑" text-anchor="middle" font-size="13px" width="514px" fill="#323232" font-weight="400" align="middle" lineHeight="125%" anchor="middle" family="微软雅黑" size="13px" weight="400" font-style="" opacity="1" y="71.96590909090918" transform="rotate(0)"><tspan id="SvgjsTspan1222" dy="16" x="267"><tspan id="SvgjsTspan1223" style="text-decoration:;">tenured(终身)</tspan></tspan></text></g></g><g id="SvgjsG1224" transform="matrix(6.123233995736766e-17,1,-1,6.123233995736766e-17,627.7329600941052,25.002846457741683)"><path id="SvgjsPath1225" d="M 103.63636363636357 0Q 94.63636363636357 0 94.63636363636357 9L 94.63636363636357 220.54545454545473Q 94.63636363636357 229.54545454545473 81.63636363636357 229.54545454545473Q 94.63636363636357 229.54545454545473 94.63636363636357 238.54545454545473L 94.63636363636357 450.09090909090946Q 94.63636363636357 459.09090909090946 103.63636363636357 459.09090909090946" stroke="rgba(50,50,50,1)" stroke-width="2" fill="none"></path><path id="SvgjsPath1226" d="M 0 0L 103.63636363636357 0L 103.63636363636357 459.09090909090946L 0 459.09090909090946Z" stroke="none" fill="none"></path><g id="SvgjsG1227"><text id="SvgjsText1228" font-family="微软雅黑" text-anchor="end" font-size="13px" width="77px" fill="#323232" font-weight="400" align="middle" lineHeight="125%" anchor="end" family="微软雅黑" size="13px" weight="400" font-style="" opacity="1" y="218.92045454545473" transform="rotate(0)"></text></g></g><g id="SvgjsG1229" transform="translate(302.27840909090827,33.18465909090904)"><path id="SvgjsPath1230" d="M 0 0L 174.90909090909088 0L 190.90909090909088 16L 190.90909090909088 54.54545454545453L 0 54.54545454545453L 0 0Z" stroke="none" fill-opacity="1" fill="#ffffaa"></path><path id="SvgjsPath1231" d="M 174.90909090909088 0L 174.90909090909088 16L 190.90909090909088 16Z" stroke="none" fill-opacity="1" fill="#cdcdcd"></path><path id="SvgjsPath1232" d="M 0 0L 174.90909090909088 0L 190.90909090909088 16L 190.90909090909088 54.54545454545453L 0 54.54545454545453L 0 0Z" stroke="none" fill="none"></path><g id="SvgjsG1233"><text id="SvgjsText1234" font-family="微软雅黑" text-anchor="middle" font-size="13px" width="171px" fill="#323232" font-weight="400" align="middle" lineHeight="125%" anchor="middle" family="微软雅黑" size="13px" weight="400" font-style="" opacity="1" y="16.647727272727266" transform="rotate(0)"><tspan id="SvgjsTspan1235" dy="16" x="95.5"><tspan id="SvgjsTspan1236" style="text-decoration:;">新生代</tspan></tspan></text></g></g><g id="SvgjsG1237" transform="matrix(6.123233995736766e-17,1,-1,6.123233995736766e-17,1163.187488902699,26.821028275923354)"><path id="SvgjsPath1238" d="M 101.81818181818187 0Q 92.81818181818187 0 92.81818181818187 9L 92.81818181818187 256.45454545454555Q 92.81818181818187 265.45454545454555 79.81818181818187 265.45454545454555Q 92.81818181818187 265.45454545454555 92.81818181818187 274.45454545454555L 92.81818181818187 521.9090909090911Q 92.81818181818187 530.9090909090911 101.81818181818187 530.9090909090911" stroke="rgba(50,50,50,1)" stroke-width="2" fill="none"></path><path id="SvgjsPath1239" d="M 0 0L 101.81818181818187 0L 101.81818181818187 530.9090909090911L 0 530.9090909090911Z" stroke="none" fill="none"></path><g id="SvgjsG1240"><text id="SvgjsText1241" font-family="微软雅黑" text-anchor="end" font-size="13px" width="75px" fill="#323232" font-weight="400" align="middle" lineHeight="125%" anchor="end" family="微软雅黑" size="13px" weight="400" font-style="" opacity="1" y="254.82954545454555" transform="rotate(0)"></text></g></g><g id="SvgjsG1242" transform="translate(801.7714160839171,41.366477272727195)"><path id="SvgjsPath1243" d="M 0 0L 174.90909090909088 0L 190.90909090909088 16L 190.90909090909088 54.54545454545453L 0 54.54545454545453L 0 0Z" stroke="none" fill-opacity="1" fill="#ffffaa"></path><path id="SvgjsPath1244" d="M 174.90909090909088 0L 174.90909090909088 16L 190.90909090909088 16Z" stroke="none" fill-opacity="1" fill="#cdcdcd"></path><path id="SvgjsPath1245" d="M 0 0L 174.90909090909088 0L 190.90909090909088 16L 190.90909090909088 54.54545454545453L 0 54.54545454545453L 0 0Z" stroke="none" fill="none"></path><g id="SvgjsG1246"><text id="SvgjsText1247" font-family="微软雅黑" text-anchor="middle" font-size="13px" width="171px" fill="#323232" font-weight="400" align="middle" lineHeight="125%" anchor="middle" family="微软雅黑" size="13px" weight="400" font-style="" opacity="1" y="16.647727272727266" transform="rotate(0)"><tspan id="SvgjsTspan1248" dy="16" x="95.5"><tspan id="SvgjsTspan1249" style="text-decoration:;">老年代</tspan></tspan></text></g></g><g id="SvgjsG1250" transform="translate(25.005681818181813,33.18465909090901)"><path id="SvgjsPath1251" d="M 0 0L 236.7272727272727 0L 252.7272727272727 16L 252.7272727272727 54.54545454545455L 0 54.54545454545455L 0 0Z" stroke="none" fill-opacity="1" fill="#ffffaa"></path><path id="SvgjsPath1252" d="M 236.7272727272727 0L 236.7272727272727 16L 252.7272727272727 16Z" stroke="none" fill-opacity="1" fill="#cdcdcd"></path><path id="SvgjsPath1253" d="M 0 0L 236.7272727272727 0L 252.7272727272727 16L 252.7272727272727 54.54545454545455L 0 54.54545454545455L 0 0Z" stroke="none" fill="none"></path><g id="SvgjsG1254"><text id="SvgjsText1255" font-family="微软雅黑" text-anchor="middle" font-size="13px" width="233px" fill="#323232" font-weight="400" align="middle" lineHeight="125%" anchor="middle" family="微软雅黑" size="13px" weight="400" font-style="" opacity="1" y="8.147727272727273" transform="rotate(0)"><tspan id="SvgjsTspan1256" dy="16" x="126.5"><tspan id="SvgjsTspan1257" style="text-decoration:;">由于新生代存活对象比较少,使用的是</tspan></tspan><tspan id="SvgjsTspan1258" dy="16" x="126.5"><tspan id="SvgjsTspan1259" style="text-decoration:;">copying算法整理对象</tspan></tspan></text></g></g><g id="SvgjsG1260" transform="translate(1024.0965909090894,41.36647727272717)"><path id="SvgjsPath1261" d="M 0 0L 259.90909090909236 0L 275.90909090909236 16L 275.90909090909236 54.54545454545456L 0 54.54545454545456L 0 0Z" stroke="none" fill-opacity="1" fill="#ffffaa"></path><path id="SvgjsPath1262" d="M 259.90909090909236 0L 259.90909090909236 16L 275.90909090909236 16Z" stroke="none" fill-opacity="1" fill="#cdcdcd"></path><path id="SvgjsPath1263" d="M 0 0L 259.90909090909236 0L 275.90909090909236 16L 275.90909090909236 54.54545454545456L 0 54.54545454545456L 0 0Z" stroke="none" fill="none"></path><g id="SvgjsG1264"><text id="SvgjsText1265" font-family="微软雅黑" text-anchor="middle" font-size="13px" width="256px" fill="#323232" font-weight="400" align="middle" lineHeight="125%" anchor="middle" family="微软雅黑" size="13px" weight="400" font-style="" opacity="1" y="8.14772727272728" transform="rotate(0)"><tspan id="SvgjsTspan1266" dy="16" x="138"><tspan id="SvgjsTspan1267" style="text-decoration:;">老年代存活对象较多,一般使用</tspan></tspan><tspan id="SvgjsTspan1268" dy="16" x="138"><tspan id="SvgjsTspan1269" style="text-decoration:;">Mark-sweep或Mark-Compact整理对象</tspan></tspan></text></g></g><g id="SvgjsG1270" transform="translate(236.8238636363636,240.00284090909088)"><path id="SvgjsPath1271" d="M 0 0L 120 0L 120 40L 0 40Z" stroke="none" fill="none"></path><g id="SvgjsG1272"><text id="SvgjsText1273" font-family="微软雅黑" text-anchor="middle" font-size="13px" width="120px" fill="#323232" font-weight="400" align="middle" lineHeight="125%" anchor="middle" family="微软雅黑" size="13px" weight="400" font-style="" opacity="1" y="9.375" transform="rotate(0)"><tspan id="SvgjsTspan1274" dy="16" x="60"><tspan id="SvgjsTspan1275" style="text-decoration:;">8</tspan></tspan></text></g></g><g id="SvgjsG1276" transform="translate(417.73295454545536,245.4573863636362)"><path id="SvgjsPath1277" d="M 0 0L 120 0L 120 40L 0 40Z" stroke="none" fill="none"></path><g id="SvgjsG1278"><text id="SvgjsText1279" font-family="微软雅黑" text-anchor="middle" font-size="13px" width="120px" fill="#323232" font-weight="400" align="middle" lineHeight="125%" anchor="middle" family="微软雅黑" size="13px" weight="400" font-style="" opacity="1" y="9.375" transform="rotate(0)"><tspan id="SvgjsTspan1280" dy="16" x="60"><tspan id="SvgjsTspan1281" style="text-decoration:;">1</tspan></tspan></text></g></g><g id="SvgjsG1282" transform="translate(512.278409090909,249.4573863636362)"><path id="SvgjsPath1283" d="M 0 0L 120 0L 120 40L 0 40Z" stroke="none" fill="none"></path><g id="SvgjsG1284"><text id="SvgjsText1285" font-family="微软雅黑" text-anchor="middle" font-size="13px" width="120px" fill="#323232" font-weight="400" align="middle" lineHeight="125%" anchor="middle" family="微软雅黑" size="13px" weight="400" font-style="" opacity="1" y="9.375" transform="rotate(0)"><tspan id="SvgjsTspan1286" dy="16" x="60"><tspan id="SvgjsTspan1287" style="text-decoration:;">1</tspan></tspan></text></g></g><g id="SvgjsG1288" transform="matrix(-1.8369701987210297e-16,-1,1,-1.8369701987210297e-16,169.64205100319577,399.63920246471076)"><path id="SvgjsPath1289" d="M 103.63636363636357 0Q 94.63636363636357 0 94.63636363636357 9L 94.63636363636357 220.54545454545473Q 94.63636363636357 229.54545454545473 81.63636363636357 229.54545454545473Q 94.63636363636357 229.54545454545473 94.63636363636357 238.54545454545473L 94.63636363636357 450.09090909090946Q 94.63636363636357 459.09090909090946 103.63636363636357 459.09090909090946" stroke="rgba(50,50,50,1)" stroke-width="2" fill="none"></path><path id="SvgjsPath1290" d="M 0 0L 103.63636363636357 0L 103.63636363636357 459.09090909090946L 0 459.09090909090946Z" stroke="none" fill="none"></path><g id="SvgjsG1291"><text id="SvgjsText1292" font-family="微软雅黑" text-anchor="end" font-size="13px" width="77px" fill="#323232" font-weight="400" align="middle" lineHeight="125%" anchor="end" family="微软雅黑" size="13px" weight="400" font-style="" opacity="1" y="218.92045454545473" transform="rotate(0)"></text></g></g><g id="SvgjsG1293" transform="translate(208.06249999999997,321.59375)"><path id="SvgjsPath1294" d="M 0 0L 364.2499999999999 0L 380.2499999999999 16L 380.2499999999999 96L 0 96L 0 0Z" stroke="none" fill-opacity="1" fill="#ffffaa"></path><path id="SvgjsPath1295" d="M 364.2499999999999 0L 364.2499999999999 16L 380.2499999999999 16Z" stroke="none" fill-opacity="1" fill="#cdcdcd"></path><path id="SvgjsPath1296" d="M 0 0L 364.2499999999999 0L 380.2499999999999 16L 380.2499999999999 96L 0 96L 0 0Z" stroke="none" fill="none"></path><g id="SvgjsG1297"><text id="SvgjsText1298" font-family="微软雅黑" text-anchor="middle" font-size="13px" width="361px" fill="#323232" font-weight="400" align="middle" lineHeight="125%" anchor="middle" family="微软雅黑" size="13px" weight="400" font-style="" opacity="1" y="37.375" transform="rotate(0)"><tspan id="SvgjsTspan1299" dy="16" x="190.5"><tspan id="SvgjsTspan1300" style="text-decoration:;">YGC:当新生代内存满了之后,就会触发YGC</tspan></tspan></text></g></g><g id="SvgjsG1301" transform="matrix(-1.8369701987210297e-16,-1,1,-1.8369701987210297e-16,633.6420510031961,396.0937479192563)"><path id="SvgjsPath1302" d="M 102.09090909090935 0Q 93.09090909090935 0 93.09090909090935 9L 93.09090909090935 255.52272727272737Q 93.09090909090935 264.52272727272737 80.09090909090935 264.52272727272737Q 93.09090909090935 264.52272727272737 93.09090909090935 273.52272727272737L 93.09090909090935 520.0454545454547Q 93.09090909090935 529.0454545454547 102.09090909090935 529.0454545454547" stroke="rgba(50,50,50,1)" stroke-width="2" fill="none"></path><path id="SvgjsPath1303" d="M 0 0L 102.09090909090935 0L 102.09090909090935 529.0454545454547L 0 529.0454545454547Z" stroke="none" fill="none"></path><g id="SvgjsG1304"><text id="SvgjsText1305" font-family="微软雅黑" text-anchor="end" font-size="13px" width="76px" fill="#323232" font-weight="400" align="middle" lineHeight="125%" anchor="end" family="微软雅黑" size="13px" weight="400" font-style="" opacity="1" y="253.89772727272737" transform="rotate(0)"></text></g></g><g id="SvgjsG1306" transform="translate(707.1009615384614,321.59375)"><path id="SvgjsPath1307" d="M 0 0L 364.2499999999999 0L 380.2499999999999 16L 380.2499999999999 96L 0 96L 0 0Z" stroke="none" fill-opacity="1" fill="#ffffaa"></path><path id="SvgjsPath1308" d="M 364.2499999999999 0L 364.2499999999999 16L 380.2499999999999 16Z" stroke="none" fill-opacity="1" fill="#cdcdcd"></path><path id="SvgjsPath1309" d="M 0 0L 364.2499999999999 0L 380.2499999999999 16L 380.2499999999999 96L 0 96L 0 0Z" stroke="none" fill="none"></path><g id="SvgjsG1310"><text id="SvgjsText1311" font-family="微软雅黑" text-anchor="middle" font-size="13px" width="361px" fill="#323232" font-weight="400" align="middle" lineHeight="125%" anchor="middle" family="微软雅黑" size="13px" weight="400" font-style="" opacity="1" y="28.875" transform="rotate(0)"><tspan id="SvgjsTspan1312" dy="16" x="190.5"><tspan id="SvgjsTspan1313" style="text-decoration:;">FullGC:当老年代无法继续分配空间的时候,就会触发FullGC</tspan></tspan><tspan id="SvgjsTspan1314" dy="16" x="190.5"><tspan id="SvgjsTspan1315" style="text-decoration:;">一旦触发FullGC,新生代与老年代的垃圾都会被回收</tspan></tspan></text></g></g></svg>