<svg id="SvgjsSvg1122" width="673" height="293.796875" xmlns="http://www.w3.org/2000/svg" version="1.1" xmlns:xlink="http://www.w3.org/1999/xlink" xmlns:svgjs="http://svgjs.com/svgjs"><defs id="SvgjsDefs1123"><marker id="SvgjsMarker1156" markerWidth="14" markerHeight="10" refX="10" refY="5" viewBox="0 0 14 10" orient="auto" markerUnits="userSpaceOnUse" stroke-dasharray="0,0"><path id="SvgjsPath1157" d="M0,0 L14,5 L0,10 L0,0" fill="#323232" stroke="#323232" stroke-width="1"></path></marker><marker id="SvgjsMarker1160" markerWidth="14" markerHeight="10" refX="10" refY="5" viewBox="0 0 14 10" orient="auto" markerUnits="userSpaceOnUse" stroke-dasharray="0,0"><path id="SvgjsPath1161" d="M0,0 L14,5 L0,10 L0,0" fill="#323232" stroke="#323232" stroke-width="1"></path></marker></defs><g id="SvgjsG1124" transform="translate(25,81.5)"><path id="SvgjsPath1125" d="M 0 4Q 0 0 4 0L 96 0Q 100 0 100 4L 100 66Q 100 70 96 70L 4 70Q 0 70 0 66Z" stroke="rgba(50,50,50,1)" stroke-width="2" fill-opacity="1" fill="#ffffff"></path><g id="SvgjsG1126"><text id="SvgjsText1127" font-family="微软雅黑" text-anchor="middle" font-size="13px" width="80px" fill="#323232" font-weight="400" align="middle" lineHeight="125%" anchor="middle" family="微软雅黑" size="13px" weight="400" font-style="" opacity="1" y="24.375" transform="rotate(0)"><tspan id="SvgjsTspan1128" dy="16" x="50"><tspan id="SvgjsTspan1129" style="text-decoration:;">JVM Stacks</tspan></tspan></text></g></g><g id="SvgjsG1130" transform="translate(218,81.5)"><path id="SvgjsPath1131" d="M 0 4Q 0 0 4 0L 62 0Q 66 0 66 4L 66 42.199999999999996Q 66 46.199999999999996 62 46.199999999999996L 4 46.199999999999996Q 0 46.199999999999996 0 42.199999999999996Z" stroke="rgba(50,50,50,1)" stroke-width="2" fill-opacity="1" fill="#ffffff"></path><g id="SvgjsG1132"><text id="SvgjsText1133" font-family="微软雅黑" text-anchor="middle" font-size="13px" width="46px" fill="#323232" font-weight="400" align="middle" lineHeight="125%" anchor="middle" family="微软雅黑" size="13px" weight="400" font-style="" opacity="1" y="12.474999999999998" transform="rotate(0)"><tspan id="SvgjsTspan1134" dy="16" x="33"><tspan id="SvgjsTspan1135" style="text-decoration:;">ifram</tspan></tspan></text></g></g><g id="SvgjsG1136" transform="translate(226,87.5)"><path id="SvgjsPath1137" d="M 0 4Q 0 0 4 0L 62 0Q 66 0 66 4L 66 42.199999999999996Q 66 46.199999999999996 62 46.199999999999996L 4 46.199999999999996Q 0 46.199999999999996 0 42.199999999999996Z" stroke="rgba(50,50,50,1)" stroke-width="2" fill-opacity="1" fill="#ffffff"></path><g id="SvgjsG1138"><text id="SvgjsText1139" font-family="微软雅黑" text-anchor="middle" font-size="13px" width="46px" fill="#323232" font-weight="400" align="middle" lineHeight="125%" anchor="middle" family="微软雅黑" size="13px" weight="400" font-style="" opacity="1" y="12.474999999999998" transform="rotate(0)"><tspan id="SvgjsTspan1140" dy="16" x="33"><tspan id="SvgjsTspan1141" style="text-decoration:;">ifram</tspan></tspan></text></g></g><g id="SvgjsG1142" transform="translate(233,93.39999999999998)"><path id="SvgjsPath1143" d="M 0 4Q 0 0 4 0L 62 0Q 66 0 66 4L 66 42.199999999999996Q 66 46.199999999999996 62 46.199999999999996L 4 46.199999999999996Q 0 46.199999999999996 0 42.199999999999996Z" stroke="rgba(50,50,50,1)" stroke-width="2" fill-opacity="1" fill="#ffffff"></path><g id="SvgjsG1144"><text id="SvgjsText1145" font-family="微软雅黑" text-anchor="middle" font-size="13px" width="46px" fill="#323232" font-weight="400" align="middle" lineHeight="125%" anchor="middle" family="微软雅黑" size="13px" weight="400" font-style="" opacity="1" y="12.474999999999998" transform="rotate(0)"><tspan id="SvgjsTspan1146" dy="16" x="33"><tspan id="SvgjsTspan1147" style="text-decoration:;">ifram</tspan></tspan></text></g></g><g id="SvgjsG1148" transform="translate(240,99.39999999999998)"><path id="SvgjsPath1149" d="M 0 4Q 0 0 4 0L 62 0Q 66 0 66 4L 66 42.199999999999996Q 66 46.199999999999996 62 46.199999999999996L 4 46.199999999999996Q 0 46.199999999999996 0 42.199999999999996Z" stroke="rgba(50,50,50,1)" stroke-width="2" fill-opacity="1" fill="#ffffff"></path><g id="SvgjsG1150"><text id="SvgjsText1151" font-family="微软雅黑" text-anchor="middle" font-size="13px" width="46px" fill="#323232" font-weight="400" align="middle" lineHeight="125%" anchor="middle" family="微软雅黑" size="13px" weight="400" font-style="" opacity="1" y="12.474999999999998" transform="rotate(0)"><tspan id="SvgjsTspan1152" dy="16" x="33"><tspan id="SvgjsTspan1153" style="text-decoration:;">ifram</tspan></tspan></text></g></g><g id="SvgjsG1154"><path id="SvgjsPath1155" d="M126 116.5L167.5 116.5L167.5 116.5L210 116.5" stroke="#323232" stroke-width="2" fill="none" marker-end="url(#SvgjsMarker1156)"></path></g><g id="SvgjsG1158"><path id="SvgjsPath1159" d="M307 122.5L412 122.5L412 122.5L518 122.5" stroke="#323232" stroke-width="2" fill="none" marker-end="url(#SvgjsMarker1160)"></path></g><g id="SvgjsG1162" transform="translate(528,25)"><path id="SvgjsPath1163" d="M 0 0L 104 0L 120 16L 120 50L 0 50L 0 0Z" stroke="none" fill-opacity="1" fill="#ffffaa"></path><path id="SvgjsPath1164" d="M 104 0L 104 16L 120 16Z" stroke="none" fill-opacity="1" fill="#cdcdcd"></path><path id="SvgjsPath1165" d="M 0 0L 104 0L 120 16L 120 50L 0 50L 0 0Z" stroke="none" fill="none"></path><g id="SvgjsG1166"><text id="SvgjsText1167" font-family="微软雅黑" text-anchor="middle" font-size="13px" width="100px" fill="#323232" font-weight="400" align="middle" lineHeight="125%" anchor="middle" family="微软雅黑" size="13px" weight="400" font-style="" opacity="1" y="14.375" transform="rotate(0)"><tspan id="SvgjsTspan1168" dy="16" x="60"><tspan id="SvgjsTspan1169" style="text-decoration:;">local variables</tspan></tspan></text></g></g><g id="SvgjsG1170" transform="translate(528,89.59999999999997)"><path id="SvgjsPath1171" d="M 0 0L 104 0L 120 16L 120 50L 0 50L 0 0Z" stroke="none" fill-opacity="1" fill="#ffffaa"></path><path id="SvgjsPath1172" d="M 104 0L 104 16L 120 16Z" stroke="none" fill-opacity="1" fill="#cdcdcd"></path><path id="SvgjsPath1173" d="M 0 0L 104 0L 120 16L 120 50L 0 50L 0 0Z" stroke="none" fill="none"></path><g id="SvgjsG1174"><text id="SvgjsText1175" font-family="微软雅黑" text-anchor="middle" font-size="13px" width="100px" fill="#323232" font-weight="400" align="middle" lineHeight="125%" anchor="middle" family="微软雅黑" size="13px" weight="400" font-style="" opacity="1" y="5.875" transform="rotate(0)"><tspan id="SvgjsTspan1176" dy="16" x="60"><tspan id="SvgjsTspan1177" style="text-decoration:;">Operand</tspan></tspan><tspan id="SvgjsTspan1178" dy="16" x="60"><tspan id="SvgjsTspan1179" style="text-decoration:;">Stacks</tspan></tspan></text></g></g><g id="SvgjsG1180" transform="translate(528,154.19999999999993)"><path id="SvgjsPath1181" d="M 0 0L 104 0L 120 16L 120 50L 0 50L 0 0Z" stroke="none" fill-opacity="1" fill="#ffffaa"></path><path id="SvgjsPath1182" d="M 104 0L 104 16L 120 16Z" stroke="none" fill-opacity="1" fill="#cdcdcd"></path><path id="SvgjsPath1183" d="M 0 0L 104 0L 120 16L 120 50L 0 50L 0 0Z" stroke="none" fill="none"></path><g id="SvgjsG1184"><text id="SvgjsText1185" font-family="微软雅黑" text-anchor="middle" font-size="13px" width="100px" fill="#323232" font-weight="400" align="middle" lineHeight="125%" anchor="middle" family="微软雅黑" size="13px" weight="400" font-style="" opacity="1" y="5.875" transform="rotate(0)"><tspan id="SvgjsTspan1186" dy="16" x="60"><tspan id="SvgjsTspan1187" style="text-decoration:;">dynamic</tspan></tspan><tspan id="SvgjsTspan1188" dy="16" x="60"><tspan id="SvgjsTspan1189" style="text-decoration:;">linking</tspan></tspan></text></g></g><g id="SvgjsG1190" transform="translate(528,218.79999999999995)"><path id="SvgjsPath1191" d="M 0 0L 104 0L 120 16L 120 50L 0 50L 0 0Z" stroke="none" fill-opacity="1" fill="#ffffaa"></path><path id="SvgjsPath1192" d="M 104 0L 104 16L 120 16Z" stroke="none" fill-opacity="1" fill="#cdcdcd"></path><path id="SvgjsPath1193" d="M 0 0L 104 0L 120 16L 120 50L 0 50L 0 0Z" stroke="none" fill="none"></path><g id="SvgjsG1194"><text id="SvgjsText1195" font-family="微软雅黑" text-anchor="middle" font-size="13px" width="100px" fill="#323232" font-weight="400" align="middle" lineHeight="125%" anchor="middle" family="微软雅黑" size="13px" weight="400" font-style="" opacity="1" y="14.375" transform="rotate(0)"><tspan id="SvgjsTspan1196" dy="16" x="60"><tspan id="SvgjsTspan1197" style="text-decoration:;">return address</tspan></tspan></text></g></g></svg>