<svg id="SvgjsSvg1006" width="758" height="214" xmlns="http://www.w3.org/2000/svg" version="1.1" xmlns:xlink="http://www.w3.org/1999/xlink" xmlns:svgjs="http://svgjs.com/svgjs"><defs id="SvgjsDefs1007"></defs><g id="SvgjsG1008" transform="translate(25,84)"><path id="SvgjsPath1009" d="M 0 4Q 0 0 4 0L 300 0Q 304 0 304 4L 304 42Q 304 46 300 46L 4 46Q 0 46 0 42Z" stroke="rgba(50,50,50,1)" stroke-width="2" fill-opacity="1" fill="#ffffff"></path><g id="SvgjsG1010"><text id="SvgjsText1011" font-family="微软雅黑" text-anchor="middle" font-size="13px" width="284px" fill="#323232" font-weight="400" align="middle" lineHeight="125%" anchor="middle" family="微软雅黑" size="13px" weight="400" font-style="" opacity="1" y="12.375" transform="rotate(0)"><tspan id="SvgjsTspan1012" dy="16" x="152"><tspan id="SvgjsTspan1013" style="text-decoration:;">volatile写操作</tspan></tspan></text></g></g><g id="SvgjsG1014" transform="translate(29,25)"><path id="SvgjsPath1015" d="M 0 0L 280 0L 296 16L 296 39L 0 39L 0 0Z" stroke="none" fill-opacity="1" fill="#ffffaa"></path><path id="SvgjsPath1016" d="M 280 0L 280 16L 296 16Z" stroke="none" fill-opacity="1" fill="#cdcdcd"></path><path id="SvgjsPath1017" d="M 0 0L 280 0L 296 16L 296 39L 0 39L 0 0Z" stroke="none" fill="none"></path><g id="SvgjsG1018"><text id="SvgjsText1019" font-family="微软雅黑" text-anchor="middle" font-size="13px" width="276px" fill="#323232" font-weight="400" align="middle" lineHeight="125%" anchor="middle" family="微软雅黑" size="13px" weight="400" font-style="" opacity="1" y="8.875" transform="rotate(0)"><tspan id="SvgjsTspan1020" dy="16" x="148"><tspan id="SvgjsTspan1021" style="text-decoration:;">storestoreBarrier</tspan></tspan></text></g></g><g id="SvgjsG1022" transform="translate(29,150)"><path id="SvgjsPath1023" d="M 0 0L 280 0L 296 16L 296 39L 0 39L 0 0Z" stroke="none" fill-opacity="1" fill="#ffffaa"></path><path id="SvgjsPath1024" d="M 280 0L 280 16L 296 16Z" stroke="none" fill-opacity="1" fill="#cdcdcd"></path><path id="SvgjsPath1025" d="M 0 0L 280 0L 296 16L 296 39L 0 39L 0 0Z" stroke="none" fill="none"></path><g id="SvgjsG1026"><text id="SvgjsText1027" font-family="微软雅黑" text-anchor="middle" font-size="13px" width="276px" fill="#323232" font-weight="400" align="middle" lineHeight="125%" anchor="middle" family="微软雅黑" size="13px" weight="400" font-style="" opacity="1" y="8.875" transform="rotate(0)"><tspan id="SvgjsTspan1028" dy="16" x="148"><tspan id="SvgjsTspan1029" style="text-decoration:;">storeloadBarrier</tspan></tspan></text></g></g><g id="SvgjsG1030" transform="translate(429,84)"><path id="SvgjsPath1031" d="M 0 4Q 0 0 4 0L 300 0Q 304 0 304 4L 304 42Q 304 46 300 46L 4 46Q 0 46 0 42Z" stroke="rgba(50,50,50,1)" stroke-width="2" fill-opacity="1" fill="#ffffff"></path><g id="SvgjsG1032"><text id="SvgjsText1033" font-family="微软雅黑" text-anchor="middle" font-size="13px" width="284px" fill="#323232" font-weight="400" align="middle" lineHeight="125%" anchor="middle" family="微软雅黑" size="13px" weight="400" font-style="" opacity="1" y="12.375" transform="rotate(0)"><tspan id="SvgjsTspan1034" dy="16" x="152"><tspan id="SvgjsTspan1035" style="text-decoration:;">volatile读操作</tspan></tspan></text></g></g><g id="SvgjsG1036" transform="translate(433,25)"><path id="SvgjsPath1037" d="M 0 0L 280 0L 296 16L 296 39L 0 39L 0 0Z" stroke="none" fill-opacity="1" fill="#ffffaa"></path><path id="SvgjsPath1038" d="M 280 0L 280 16L 296 16Z" stroke="none" fill-opacity="1" fill="#cdcdcd"></path><path id="SvgjsPath1039" d="M 0 0L 280 0L 296 16L 296 39L 0 39L 0 0Z" stroke="none" fill="none"></path><g id="SvgjsG1040"><text id="SvgjsText1041" font-family="微软雅黑" text-anchor="middle" font-size="13px" width="276px" fill="#323232" font-weight="400" align="middle" lineHeight="125%" anchor="middle" family="微软雅黑" size="13px" weight="400" font-style="" opacity="1" y="8.875" transform="rotate(0)"><tspan id="SvgjsTspan1042" dy="16" x="148"><tspan id="SvgjsTspan1043" style="text-decoration:;">loadloadBarrier</tspan></tspan></text></g></g><g id="SvgjsG1044" transform="translate(433,150)"><path id="SvgjsPath1045" d="M 0 0L 280 0L 296 16L 296 39L 0 39L 0 0Z" stroke="none" fill-opacity="1" fill="#ffffaa"></path><path id="SvgjsPath1046" d="M 280 0L 280 16L 296 16Z" stroke="none" fill-opacity="1" fill="#cdcdcd"></path><path id="SvgjsPath1047" d="M 0 0L 280 0L 296 16L 296 39L 0 39L 0 0Z" stroke="none" fill="none"></path><g id="SvgjsG1048"><text id="SvgjsText1049" font-family="微软雅黑" text-anchor="middle" font-size="13px" width="276px" fill="#323232" font-weight="400" align="middle" lineHeight="125%" anchor="middle" family="微软雅黑" size="13px" weight="400" font-style="" opacity="1" y="8.875" transform="rotate(0)"><tspan id="SvgjsTspan1050" dy="16" x="148"><tspan id="SvgjsTspan1051" style="text-decoration:;">loadstoreBarrier</tspan></tspan></text></g></g></svg>