<svg id="SvgjsSvg1070" width="1456" height="794.5" xmlns="http://www.w3.org/2000/svg" version="1.1" xmlns:xlink="http://www.w3.org/1999/xlink" xmlns:svgjs="http://svgjs.com/svgjs"><defs id="SvgjsDefs1071"><marker id="SvgjsMarker1146" markerWidth="14" markerHeight="10" refX="10" refY="5" viewBox="0 0 14 10" orient="auto" markerUnits="userSpaceOnUse" stroke-dasharray="0,0"><path id="SvgjsPath1147" d="M0,0 L14,5 L0,10 L0,0" fill="#323232" stroke="#323232" stroke-width="1"></path></marker><marker id="SvgjsMarker1168" markerWidth="14" markerHeight="10" refX="10" refY="5" viewBox="0 0 14 10" orient="auto" markerUnits="userSpaceOnUse" stroke-dasharray="0,0"><path id="SvgjsPath1169" d="M0,0 L14,5 L0,10 L0,0" fill="#323232" stroke="#323232" stroke-width="1"></path></marker><marker id="SvgjsMarker1172" markerWidth="14" markerHeight="10" refX="10" refY="5" viewBox="0 0 14 10" orient="auto" markerUnits="userSpaceOnUse" stroke-dasharray="0,0"><path id="SvgjsPath1173" d="M0,0 L14,5 L0,10 L0,0" fill="#323232" stroke="#323232" stroke-width="1"></path></marker><marker id="SvgjsMarker1210" markerWidth="14" markerHeight="10" refX="10" refY="5" viewBox="0 0 14 10" orient="auto" markerUnits="userSpaceOnUse" stroke-dasharray="0,0"><path id="SvgjsPath1211" d="M0,0 L14,5 L0,10 L0,0" fill="#323232" stroke="#323232" stroke-width="1"></path></marker><marker id="SvgjsMarker1214" markerWidth="14" markerHeight="10" refX="10" refY="5" viewBox="0 0 14 10" orient="auto" markerUnits="userSpaceOnUse" stroke-dasharray="0,0"><path id="SvgjsPath1215" d="M0,0 L14,5 L0,10 L0,0" fill="#323232" stroke="#323232" stroke-width="1"></path></marker></defs><g id="SvgjsG1072" transform="translate(1097,153)"><path id="SvgjsPath1073" d="M 0 4Q 0 0 4 0L 330 0Q 334 0 334 4L 334 63Q 334 67 330 67L 4 67Q 0 67 0 63Z" stroke="rgba(50,50,50,1)" stroke-width="2" fill-opacity="1" fill="#ffffff"></path><g id="SvgjsG1074"><text id="SvgjsText1075" font-family="微软雅黑" text-anchor="middle" font-size="13px" width="314px" fill="#323232" font-weight="400" align="middle" lineHeight="125%" anchor="middle" family="微软雅黑" size="13px" weight="400" font-style="" opacity="1" y="22.875" transform="rotate(0)"></text></g></g><g id="SvgjsG1076" transform="translate(1139,96.5)"><path id="SvgjsPath1077" d="M 0 0L 201 0L 217 16L 217 38L 0 38L 0 0Z" stroke="none" fill-opacity="1" fill="#ffffaa"></path><path id="SvgjsPath1078" d="M 201 0L 201 16L 217 16Z" stroke="none" fill-opacity="1" fill="#cdcdcd"></path><path id="SvgjsPath1079" d="M 0 0L 201 0L 217 16L 217 38L 0 38L 0 0Z" stroke="none" fill="none"></path><g id="SvgjsG1080"><text id="SvgjsText1081" font-family="微软雅黑" text-anchor="middle" font-size="13px" width="197px" fill="#323232" font-weight="400" align="middle" lineHeight="125%" anchor="middle" family="微软雅黑" size="13px" weight="400" font-style="" opacity="1" y="8.375" transform="rotate(0)"><tspan id="SvgjsTspan1082" dy="16" x="108.5"><tspan id="SvgjsTspan1083" style="text-decoration:;">缓存行:64(字节) 512位</tspan></tspan></text></g></g><g id="SvgjsG1084" transform="translate(1117,168.5)"><path id="SvgjsPath1085" d="M 0 4Q 0 0 4 0L 64 0Q 68 0 68 4L 68 32Q 68 36 64 36L 4 36Q 0 36 0 32Z" stroke="rgba(50,50,50,1)" stroke-width="2" fill-opacity="1" fill="#ffffff"></path><g id="SvgjsG1086"><text id="SvgjsText1087" font-family="微软雅黑" text-anchor="middle" font-size="13px" width="48px" fill="#323232" font-weight="400" align="middle" lineHeight="125%" anchor="middle" family="微软雅黑" size="13px" weight="400" font-style="" opacity="1" y="7.375" transform="rotate(0)"><tspan id="SvgjsTspan1088" dy="16" x="34"><tspan id="SvgjsTspan1089" style="text-decoration:;">data01</tspan></tspan></text></g></g><g id="SvgjsG1090" transform="translate(1196,168.5)"><path id="SvgjsPath1091" d="M 0 4Q 0 0 4 0L 64 0Q 68 0 68 4L 68 32Q 68 36 64 36L 4 36Q 0 36 0 32Z" stroke="rgba(50,50,50,1)" stroke-width="2" fill-opacity="1" fill="#ffffff"></path><g id="SvgjsG1092"><text id="SvgjsText1093" font-family="微软雅黑" text-anchor="middle" font-size="13px" width="48px" fill="#323232" font-weight="400" align="middle" lineHeight="125%" anchor="middle" family="微软雅黑" size="13px" weight="400" font-style="" opacity="1" y="7.375" transform="rotate(0)"><tspan id="SvgjsTspan1094" dy="16" x="34"><tspan id="SvgjsTspan1095" style="text-decoration:;">data02</tspan></tspan></text></g></g><g id="SvgjsG1096" transform="translate(1275,168.5)"><path id="SvgjsPath1097" d="M 0 4Q 0 0 4 0L 64 0Q 68 0 68 4L 68 32Q 68 36 64 36L 4 36Q 0 36 0 32Z" stroke="rgba(50,50,50,1)" stroke-width="2" fill-opacity="1" fill="#ffffff"></path><g id="SvgjsG1098"><text id="SvgjsText1099" font-family="微软雅黑" text-anchor="middle" font-size="13px" width="48px" fill="#323232" font-weight="400" align="middle" lineHeight="125%" anchor="middle" family="微软雅黑" size="13px" weight="400" font-style="" opacity="1" y="7.375" transform="rotate(0)"><tspan id="SvgjsTspan1100" dy="16" x="34"><tspan id="SvgjsTspan1101" style="text-decoration:;">data03</tspan></tspan></text></g></g><g id="SvgjsG1102" transform="translate(1350,168.5)"><path id="SvgjsPath1103" d="M 0 4Q 0 0 4 0L 64 0Q 68 0 68 4L 68 32Q 68 36 64 36L 4 36Q 0 36 0 32Z" stroke="rgba(50,50,50,1)" stroke-width="2" fill-opacity="1" fill="#ffffff"></path><g id="SvgjsG1104"><text id="SvgjsText1105" font-family="微软雅黑" text-anchor="middle" font-size="13px" width="48px" fill="#323232" font-weight="400" align="middle" lineHeight="125%" anchor="middle" family="微软雅黑" size="13px" weight="400" font-style="" opacity="1" y="7.375" transform="rotate(0)"><tspan id="SvgjsTspan1106" dy="16" x="34"><tspan id="SvgjsTspan1107" style="text-decoration:;">....</tspan></tspan></text></g></g><g id="SvgjsG1108" transform="translate(305,89.453125)"><path id="SvgjsPath1109" d="M 0 4Q 0 0 4 0L 694 0Q 698 0 698 4L 698 119.046875Q 698 123.046875 694 123.046875L 4 123.046875Q 0 123.046875 0 119.046875Z" stroke="rgba(50,50,50,1)" stroke-width="2" fill-opacity="1" fill="#ffffff"></path><g id="SvgjsG1110"><text id="SvgjsText1111" font-family="微软雅黑" text-anchor="middle" font-size="13px" width="678px" fill="#323232" font-weight="400" align="middle" lineHeight="125%" anchor="middle" family="微软雅黑" size="13px" weight="400" font-style="" opacity="1" y="50.8984375" transform="rotate(0)"></text></g></g><g id="SvgjsG1112" transform="translate(363.0359550561798,25)"><path id="SvgjsPath1113" d="M 0 0L 548.6741573033707 0L 564.6741573033707 16L 564.6741573033707 41.015625L 0 41.015625L 0 0Z" stroke="none" fill-opacity="1" fill="#ffffaa"></path><path id="SvgjsPath1114" d="M 548.6741573033707 0L 548.6741573033707 16L 564.6741573033707 16Z" stroke="none" fill-opacity="1" fill="#cdcdcd"></path><path id="SvgjsPath1115" d="M 0 0L 548.6741573033707 0L 564.6741573033707 16L 564.6741573033707 41.015625L 0 41.015625L 0 0Z" stroke="none" fill="none"></path><g id="SvgjsG1116"><text id="SvgjsText1117" font-family="微软雅黑" text-anchor="middle" font-size="13px" width="545px" fill="#323232" font-weight="400" align="middle" lineHeight="125%" anchor="middle" family="微软雅黑" size="13px" weight="400" font-style="" opacity="1" y="9.8828125" transform="rotate(0)"><tspan id="SvgjsTspan1118" dy="16" x="282.5"><tspan id="SvgjsTspan1119" style="text-decoration:;">缓存(L3)</tspan></tspan></text></g></g><g id="SvgjsG1120" transform="translate(350.48764044943823,109.9609375)"><path id="SvgjsPath1121" d="M 0 4Q 0 0 4 0L 289.31685393258425 0Q 293.31685393258425 0 293.31685393258425 4L 293.31685393258425 78.03125Q 293.31685393258425 82.03125 289.31685393258425 82.03125L 4 82.03125Q 0 82.03125 0 78.03125Z" stroke="rgba(50,50,50,1)" stroke-width="2" fill-opacity="1" fill="#ffffff"></path><g id="SvgjsG1122"><text id="SvgjsText1123" font-family="微软雅黑" text-anchor="middle" font-size="13px" width="274px" fill="#323232" font-weight="400" align="middle" lineHeight="125%" anchor="middle" family="微软雅黑" size="13px" weight="400" font-style="" opacity="1" y="30.390625" transform="rotate(0)"></text></g></g><g id="SvgjsG1124" transform="translate(383.4269662921348,129.736328125)"><path id="SvgjsPath1125" d="M 0 4Q 0 0 4 0L 107.36629213483147 0Q 111.36629213483147 0 111.36629213483147 4L 111.36629213483147 34.0859375Q 111.36629213483147 38.0859375 107.36629213483147 38.0859375L 4 38.0859375Q 0 38.0859375 0 34.0859375Z" stroke="rgba(50,50,50,1)" stroke-width="2" fill-opacity="1" fill="#ffffff"></path><g id="SvgjsG1126"><text id="SvgjsText1127" font-family="微软雅黑" text-anchor="middle" font-size="13px" width="92px" fill="#323232" font-weight="400" align="middle" lineHeight="125%" anchor="middle" family="微软雅黑" size="13px" weight="400" font-style="" opacity="1" y="8.41796875" transform="rotate(0)"><tspan id="SvgjsTspan1128" dy="16" x="56"><tspan id="SvgjsTspan1129" style="text-decoration:;">data01</tspan></tspan></text></g></g><g id="SvgjsG1130" transform="translate(510.4786516853933,129.736328125)"><path id="SvgjsPath1131" d="M 0 4Q 0 0 4 0L 107.36629213483147 0Q 111.36629213483147 0 111.36629213483147 4L 111.36629213483147 34.0859375Q 111.36629213483147 38.0859375 107.36629213483147 38.0859375L 4 38.0859375Q 0 38.0859375 0 34.0859375Z" stroke="rgba(50,50,50,1)" stroke-width="2" fill-opacity="1" fill="#ffffff"></path><g id="SvgjsG1132"><text id="SvgjsText1133" font-family="微软雅黑" text-anchor="middle" font-size="13px" width="92px" fill="#323232" font-weight="400" align="middle" lineHeight="125%" anchor="middle" family="微软雅黑" size="13px" weight="400" font-style="" opacity="1" y="8.41796875" transform="rotate(0)"><tspan id="SvgjsTspan1134" dy="16" x="56"><tspan id="SvgjsTspan1135" style="text-decoration:;">data02</tspan></tspan></text></g></g><g id="SvgjsG1136" transform="translate(25,131.4765625)"><path id="SvgjsPath1137" d="M 0 0L 156 0L 172 16L 172 39L 0 39L 0 0Z" stroke="none" fill-opacity="1" fill="#ffffaa"></path><path id="SvgjsPath1138" d="M 156 0L 156 16L 172 16Z" stroke="none" fill-opacity="1" fill="#cdcdcd"></path><path id="SvgjsPath1139" d="M 0 0L 156 0L 172 16L 172 39L 0 39L 0 0Z" stroke="none" fill="none"></path><g id="SvgjsG1140"><text id="SvgjsText1141" font-family="微软雅黑" text-anchor="middle" font-size="13px" width="152px" fill="#323232" font-weight="400" align="middle" lineHeight="125%" anchor="middle" family="微软雅黑" size="13px" weight="400" font-style="" opacity="1" y="8.875" transform="rotate(0)"><tspan id="SvgjsTspan1142" dy="16" x="86"><tspan id="SvgjsTspan1143" style="text-decoration:;">缓存行</tspan></tspan></text></g></g><g id="SvgjsG1144"><path id="SvgjsPath1145" d="M349.48764044943823 150.9765625L273.7438202247191 150.9765625L273.7438202247191 150.9765625L199.6 150.9765625" stroke="#323232" stroke-width="2" fill="none" marker-end="url(#SvgjsMarker1146)"></path></g><g id="SvgjsG1148" transform="translate(661.0584269662921,109.9609375)"><path id="SvgjsPath1149" d="M 0 4Q 0 0 4 0L 289.31685393258425 0Q 293.31685393258425 0 293.31685393258425 4L 293.31685393258425 78.03125Q 293.31685393258425 82.03125 289.31685393258425 82.03125L 4 82.03125Q 0 82.03125 0 78.03125Z" stroke="rgba(50,50,50,1)" stroke-width="2" fill-opacity="1" fill="#ffffff"></path><g id="SvgjsG1150"><text id="SvgjsText1151" font-family="微软雅黑" text-anchor="middle" font-size="13px" width="274px" fill="#323232" font-weight="400" align="middle" lineHeight="125%" anchor="middle" family="微软雅黑" size="13px" weight="400" font-style="" opacity="1" y="30.390625" transform="rotate(0)"><tspan id="SvgjsTspan1152" dy="16" x="147"><tspan id="SvgjsTspan1153" style="text-decoration:;">缓存行.....</tspan></tspan></text></g></g><g id="SvgjsG1154" transform="translate(305,297.5)"><path id="SvgjsPath1155" d="M 0 4Q 0 0 4 0L 285 0Q 289 0 289 4L 289 72Q 289 76 285 76L 4 76Q 0 76 0 72Z" stroke="rgba(50,50,50,1)" stroke-width="2" fill-opacity="1" fill="#ffffff"></path><g id="SvgjsG1156"><text id="SvgjsText1157" font-family="微软雅黑" text-anchor="middle" font-size="13px" width="269px" fill="#323232" font-weight="400" align="middle" lineHeight="125%" anchor="middle" family="微软雅黑" size="13px" weight="400" font-style="" opacity="1" y="27.375" transform="rotate(0)"><tspan id="SvgjsTspan1158" dy="16" x="144.5"><tspan id="SvgjsTspan1159" style="text-decoration:;">                                           缓存(L2)</tspan></tspan></text></g></g><g id="SvgjsG1160" transform="translate(710,297.5)"><path id="SvgjsPath1161" d="M 0 4Q 0 0 4 0L 285 0Q 289 0 289 4L 289 72Q 289 76 285 76L 4 76Q 0 76 0 72Z" stroke="rgba(50,50,50,1)" stroke-width="2" fill-opacity="1" fill="#ffffff"></path><g id="SvgjsG1162"><text id="SvgjsText1163" font-family="微软雅黑" text-anchor="middle" font-size="13px" width="269px" fill="#323232" font-weight="400" align="middle" lineHeight="125%" anchor="middle" family="微软雅黑" size="13px" weight="400" font-style="" opacity="1" y="27.375" transform="rotate(0)"><tspan id="SvgjsTspan1164" dy="16" x="144.5"><tspan id="SvgjsTspan1165" style="text-decoration:;">                                           缓存(L2)</tspan></tspan></text></g></g><g id="SvgjsG1166"><path id="SvgjsPath1167" d="M497.1460674157304 192.9921875L497.1460674157304 244.74609375L449.5 244.74609375L449.5 293.9" stroke="#323232" stroke-width="2" fill="none" marker-end="url(#SvgjsMarker1168)"></path></g><g id="SvgjsG1170"><path id="SvgjsPath1171" d="M497.1460674157304 192.9921875L497.1460674157304 244.74609375L854.5 244.74609375L854.5 293.9" stroke="#323232" stroke-width="2" fill="none" marker-end="url(#SvgjsMarker1172)"></path></g><g id="SvgjsG1174" transform="translate(320.6853932584269,311.48046875)"><path id="SvgjsPath1175" d="M 0 4Q 0 0 4 0L 185.7932584269663 0Q 189.7932584269663 0 189.7932584269663 4L 189.7932584269663 44.0390625Q 189.7932584269663 48.0390625 185.7932584269663 48.0390625L 4 48.0390625Q 0 48.0390625 0 44.0390625Z" stroke="rgba(50,50,50,1)" stroke-width="2" fill-opacity="1" fill="#ffffff"></path><g id="SvgjsG1176"><text id="SvgjsText1177" font-family="微软雅黑" text-anchor="middle" font-size="13px" width="170px" fill="#323232" font-weight="400" align="middle" lineHeight="125%" anchor="middle" family="微软雅黑" size="13px" weight="400" font-style="" opacity="1" y="13.39453125" transform="rotate(0)"></text></g></g><g id="SvgjsG1178" transform="translate(341.99907468605414,323.0613141741071)"><path id="SvgjsPath1179" d="M 0 4Q 0 0 4 0L 68.06054196959684 0Q 72.06054196959684 0 72.06054196959684 4L 72.06054196959684 18.303850446428573Q 72.06054196959684 22.303850446428573 68.06054196959684 22.303850446428573L 4 22.303850446428573Q 0 22.303850446428573 0 18.303850446428573Z" stroke="rgba(50,50,50,1)" stroke-width="2" fill-opacity="1" fill="#ffffff"></path><g id="SvgjsG1180"><text id="SvgjsText1181" font-family="微软雅黑" text-anchor="middle" font-size="13px" width="53px" fill="#323232" font-weight="400" align="middle" lineHeight="125%" anchor="middle" family="微软雅黑" size="13px" weight="400" font-style="" opacity="1" y="0.5269252232142865" transform="rotate(0)"><tspan id="SvgjsTspan1182" dy="16" x="36.5"><tspan id="SvgjsTspan1183" style="text-decoration:;">data01</tspan></tspan></text></g></g><g id="SvgjsG1184" transform="translate(424.20898876404493,323.0613141741071)"><path id="SvgjsPath1185" d="M 0 4Q 0 0 4 0L 68.06054196959684 0Q 72.06054196959684 0 72.06054196959684 4L 72.06054196959684 18.303850446428573Q 72.06054196959684 22.303850446428573 68.06054196959684 22.303850446428573L 4 22.303850446428573Q 0 22.303850446428573 0 18.303850446428573Z" stroke="rgba(50,50,50,1)" stroke-width="2" fill-opacity="1" fill="#ffffff"></path><g id="SvgjsG1186"><text id="SvgjsText1187" font-family="微软雅黑" text-anchor="middle" font-size="13px" width="53px" fill="#323232" font-weight="400" align="middle" lineHeight="125%" anchor="middle" family="微软雅黑" size="13px" weight="400" font-style="" opacity="1" y="0.5269252232142865" transform="rotate(0)"><tspan id="SvgjsTspan1188" dy="16" x="36.5"><tspan id="SvgjsTspan1189" style="text-decoration:;">data02</tspan></tspan></text></g></g><g id="SvgjsG1190" transform="translate(782,545)"><path id="SvgjsPath1191" d="M 0 4Q 0 0 4 0L 188 0Q 192 0 192 4L 192 105Q 192 109 188 109L 4 109Q 0 109 0 105Z" stroke="rgba(50,50,50,1)" stroke-width="2" fill-opacity="1" fill="#ffffff"></path><g id="SvgjsG1192"><text id="SvgjsText1193" font-family="微软雅黑" text-anchor="middle" font-size="13px" width="172px" fill="#323232" font-weight="400" align="middle" lineHeight="125%" anchor="middle" family="微软雅黑" size="13px" weight="400" font-style="" opacity="1" y="43.875" transform="rotate(0)"><tspan id="SvgjsTspan1194" dy="16" x="96"><tspan id="SvgjsTspan1195" style="text-decoration:;">cpu02</tspan></tspan></text></g></g><g id="SvgjsG1196" transform="translate(304.2695307336418,545)"><path id="SvgjsPath1197" d="M 0 4Q 0 0 4 0L 188 0Q 192 0 192 4L 192 105Q 192 109 188 109L 4 109Q 0 109 0 105Z" stroke="rgba(50,50,50,1)" stroke-width="2" fill-opacity="1" fill="#ffffff"></path><g id="SvgjsG1198"><text id="SvgjsText1199" font-family="微软雅黑" text-anchor="middle" font-size="13px" width="172px" fill="#323232" font-weight="400" align="middle" lineHeight="125%" anchor="middle" family="微软雅黑" size="13px" weight="400" font-style="" opacity="1" y="43.875" transform="rotate(0)"><tspan id="SvgjsTspan1200" dy="16" x="96"><tspan id="SvgjsTspan1201" style="text-decoration:;">cpu01</tspan></tspan></text></g></g><g id="SvgjsG1202" transform="translate(756.7460674157302,320)"><path id="SvgjsPath1203" d="M 0 4Q 0 0 4 0L 111.94157303370787 0Q 115.94157303370787 0 115.94157303370787 4L 115.94157303370787 27Q 115.94157303370787 31 111.94157303370787 31L 4 31Q 0 31 0 27Z" stroke="rgba(50,50,50,1)" stroke-width="2" fill-opacity="1" fill="#ffffff"></path><g id="SvgjsG1204"><text id="SvgjsText1205" font-family="微软雅黑" text-anchor="middle" font-size="13px" width="96px" fill="#323232" font-weight="400" align="middle" lineHeight="125%" anchor="middle" family="微软雅黑" size="13px" weight="400" font-style="" opacity="1" y="4.875" transform="rotate(0)"><tspan id="SvgjsTspan1206" dy="16" x="58"><tspan id="SvgjsTspan1207" style="text-decoration:;">data02</tspan></tspan></text></g></g><g id="SvgjsG1208"><path id="SvgjsPath1209" d="M449.5 374.5L449.5 459.25L400.2695307336418 459.25L400.2695307336418 541.4" stroke="#323232" stroke-width="2" fill="none" marker-end="url(#SvgjsMarker1210)"></path></g><g id="SvgjsG1212"><path id="SvgjsPath1213" d="M854.5 374.5L854.5 459.25L878 459.25L878 541.4" stroke="#323232" stroke-width="2" fill="none" marker-end="url(#SvgjsMarker1214)"></path></g><g id="SvgjsG1216" transform="translate(185,236)"><path id="SvgjsPath1217" d="M 0 0L 221 0L 221 38L 0 38Z" stroke="none" fill="none"></path><g id="SvgjsG1218"><text id="SvgjsText1219" font-family="微软雅黑" text-anchor="middle" font-size="13px" width="221px" fill="#323232" font-weight="400" align="middle" lineHeight="125%" anchor="middle" family="微软雅黑" size="13px" weight="400" font-style="" opacity="1" y="8.375" transform="rotate(0)"><tspan id="SvgjsTspan1220" dy="16" x="110.5"><tspan id="SvgjsTspan1221" style="text-decoration:;">第一步:将缓存行load到最近缓存中。</tspan></tspan></text></g></g><g id="SvgjsG1222" transform="translate(154,443.984375)"><path id="SvgjsPath1223" d="M 0 0L 221 0L 221 38L 0 38Z" stroke="none" fill="none"></path><g id="SvgjsG1224"><text id="SvgjsText1225" font-family="微软雅黑" text-anchor="middle" font-size="13px" width="221px" fill="#323232" font-weight="400" align="middle" lineHeight="125%" anchor="middle" family="微软雅黑" size="13px" weight="400" font-style="" opacity="1" y="8.375" transform="rotate(0)"><tspan id="SvgjsTspan1226" dy="16" x="110.5"><tspan id="SvgjsTspan1227" style="text-decoration:;">第二步:对缓存行中的数据进行处理</tspan></tspan></text></g></g><g id="SvgjsG1228" transform="translate(1086,351)"><path id="SvgjsPath1229" d="M 0 0L 316 0L 332 16L 332 106L 0 106L 0 0Z" stroke="none" fill-opacity="1" fill="#ffffaa"></path><path id="SvgjsPath1230" d="M 316 0L 316 16L 332 16Z" stroke="none" fill-opacity="1" fill="#cdcdcd"></path><path id="SvgjsPath1231" d="M 0 0L 316 0L 332 16L 332 106L 0 106L 0 0Z" stroke="none" fill="none"></path><g id="SvgjsG1232"><text id="SvgjsText1233" font-family="微软雅黑" text-anchor="middle" font-size="13px" width="312px" fill="#323232" font-weight="400" align="middle" lineHeight="125%" anchor="middle" family="微软雅黑" size="13px" weight="400" font-style="" opacity="1" y="33.875" transform="rotate(0)"><tspan id="SvgjsTspan1234" dy="16" x="166"><tspan id="SvgjsTspan1235" style="text-decoration:;">当cpu01处理data01数据时,会将data01所在的内存行</tspan></tspan><tspan id="SvgjsTspan1236" dy="16" x="166"><tspan id="SvgjsTspan1237" style="text-decoration:;">一起读进最近的缓存中进行处理</tspan></tspan></text></g></g><g id="SvgjsG1238" transform="translate(1086,492)"><path id="SvgjsPath1239" d="M 0 0L 329 0L 345 16L 345 156.5L 0 156.5L 0 0Z" stroke="none" fill-opacity="1" fill="#ffffaa"></path><path id="SvgjsPath1240" d="M 329 0L 329 16L 345 16Z" stroke="none" fill-opacity="1" fill="#cdcdcd"></path><path id="SvgjsPath1241" d="M 0 0L 329 0L 345 16L 345 156.5L 0 156.5L 0 0Z" stroke="none" fill="none"></path><g id="SvgjsG1242"><text id="SvgjsText1243" font-family="微软雅黑" text-anchor="start" font-size="13px" width="325px" fill="#323232" font-weight="400" align="top" lineHeight="125%" anchor="start" family="微软雅黑" size="13px" weight="400" font-style="" opacity="1" y="7.375" transform="rotate(0)"><tspan id="SvgjsTspan1244" dy="16" x="10"><tspan id="SvgjsTspan1245" style="text-decoration:;">1. cpu02缓存中的data02数据恰好在cpu01读取的缓存行</tspan></tspan><tspan id="SvgjsTspan1246" dy="16" x="10"><tspan id="SvgjsTspan1247" style="text-decoration:;">中。</tspan></tspan><tspan id="SvgjsTspan1248" dy="16" x="10"><tspan id="SvgjsTspan1249" style="text-decoration:;">2.当cpu01处理处理完data01数据后,会通知cpu02缓存中</tspan></tspan><tspan id="SvgjsTspan1250" dy="16" x="10"><tspan id="SvgjsTspan1251" style="text-decoration:;">某一个数据的缓存行发生改变。</tspan></tspan><tspan id="SvgjsTspan1252" dy="16" x="10"><tspan id="SvgjsTspan1253" style="text-decoration:;">3.cpu02再次读取data02所在的缓存行,将缓存行中的数</tspan></tspan><tspan id="SvgjsTspan1254" dy="16" x="10"><tspan id="SvgjsTspan1255" style="text-decoration:;">据更新了一遍。</tspan></tspan><tspan id="SvgjsTspan1256" dy="16" x="10"><tspan id="SvgjsTspan1257" style="text-decoration:;">4.cpu02更新数据完成之后又会通知cpu01将缓存行更新</tspan></tspan><tspan id="SvgjsTspan1258" dy="16" x="10"><tspan id="SvgjsTspan1259" style="text-decoration:;">一遍。</tspan></tspan><tspan id="SvgjsTspan1260" dy="16" x="10"><tspan id="SvgjsTspan1261" style="text-decoration:;"> </tspan></tspan></text></g></g><g id="SvgjsG1262" transform="translate(1092,673.5)"><path id="SvgjsPath1263" d="M 0 0L 317 0L 333 16L 333 96L 0 96L 0 0Z" stroke="none" fill-opacity="1" fill="#ffffaa"></path><path id="SvgjsPath1264" d="M 317 0L 317 16L 333 16Z" stroke="none" fill-opacity="1" fill="#cdcdcd"></path><path id="SvgjsPath1265" d="M 0 0L 317 0L 333 16L 333 96L 0 96L 0 0Z" stroke="none" fill="none"></path><g id="SvgjsG1266"><text id="SvgjsText1267" font-family="微软雅黑" text-anchor="middle" font-size="13px" width="313px" fill="#323232" font-weight="400" align="middle" lineHeight="125%" anchor="middle" family="微软雅黑" size="13px" weight="400" font-style="" opacity="1" y="37.375" transform="rotate(0)"><tspan id="SvgjsTspan1268" dy="16" x="166.5"><tspan id="SvgjsTspan1269" style="text-decoration:;">这就是伪共享!</tspan></tspan></text></g></g></svg>