<svg id="SvgjsSvg1534" width="1101.5" height="760" xmlns="http://www.w3.org/2000/svg" version="1.1" xmlns:xlink="http://www.w3.org/1999/xlink" xmlns:svgjs="http://svgjs.com/svgjs"><defs id="SvgjsDefs1535"><marker id="SvgjsMarker1570" markerWidth="14" markerHeight="10" refX="10" refY="5" viewBox="0 0 14 10" orient="auto" markerUnits="userSpaceOnUse" stroke-dasharray="0,0"><path id="SvgjsPath1571" d="M0,0 L14,5 L0,10 L0,0" fill="#323232" stroke="#323232" stroke-width="1"></path></marker><marker id="SvgjsMarker1578" markerWidth="14" markerHeight="10" refX="10" refY="5" viewBox="0 0 14 10" orient="auto" markerUnits="userSpaceOnUse" stroke-dasharray="0,0"><path id="SvgjsPath1579" d="M0,0 L14,5 L0,10 L0,0" fill="#323232" stroke="#323232" stroke-width="1"></path></marker><marker id="SvgjsMarker1588" markerWidth="14" markerHeight="10" refX="10" refY="5" viewBox="0 0 14 10" orient="auto" markerUnits="userSpaceOnUse" stroke-dasharray="0,0"><path id="SvgjsPath1589" d="M0,0 L14,5 L0,10 L0,0" fill="#323232" stroke="#323232" stroke-width="1"></path></marker><marker id="SvgjsMarker1592" markerWidth="14" markerHeight="10" refX="10" refY="5" viewBox="0 0 14 10" orient="auto" markerUnits="userSpaceOnUse" stroke-dasharray="0,0"><path id="SvgjsPath1593" d="M0,0 L14,5 L0,10 L0,0" fill="#323232" stroke="#323232" stroke-width="1"></path></marker><marker id="SvgjsMarker1596" markerWidth="14" markerHeight="10" refX="10" refY="5" viewBox="0 0 14 10" orient="auto" markerUnits="userSpaceOnUse" stroke-dasharray="0,0"><path id="SvgjsPath1597" d="M0,0 L14,5 L0,10 L0,0" fill="#323232" stroke="#323232" stroke-width="1"></path></marker><marker id="SvgjsMarker1600" markerWidth="14" markerHeight="10" refX="10" refY="5" viewBox="0 0 14 10" orient="auto" markerUnits="userSpaceOnUse" stroke-dasharray="0,0"><path id="SvgjsPath1601" d="M0,0 L14,5 L0,10 L0,0" fill="#323232" stroke="#323232" stroke-width="1"></path></marker><marker id="SvgjsMarker1610" markerWidth="14" markerHeight="10" refX="10" refY="5" viewBox="0 0 14 10" orient="auto" markerUnits="userSpaceOnUse" stroke-dasharray="0,0"><path id="SvgjsPath1611" d="M0,0 L14,5 L0,10 L0,0" fill="#323232" stroke="#323232" stroke-width="1"></path></marker><marker id="SvgjsMarker1620" markerWidth="14" markerHeight="10" refX="10" refY="5" viewBox="0 0 14 10" orient="auto" markerUnits="userSpaceOnUse" stroke-dasharray="0,0"><path id="SvgjsPath1621" d="M0,0 L14,5 L0,10 L0,0" fill="#323232" stroke="#323232" stroke-width="1"></path></marker><marker id="SvgjsMarker1640" markerWidth="14" markerHeight="10" refX="10" refY="5" viewBox="0 0 14 10" orient="auto" markerUnits="userSpaceOnUse" stroke-dasharray="0,0"><path id="SvgjsPath1641" d="M0,0 L14,5 L0,10 L0,0" fill="#323232" stroke="#323232" stroke-width="1"></path></marker><marker id="SvgjsMarker1644" markerWidth="14" markerHeight="10" refX="10" refY="5" viewBox="0 0 14 10" orient="auto" markerUnits="userSpaceOnUse" stroke-dasharray="0,0"><path id="SvgjsPath1645" d="M0,0 L14,5 L0,10 L0,0" fill="#323232" stroke="#323232" stroke-width="1"></path></marker><marker id="SvgjsMarker1648" markerWidth="14" markerHeight="10" refX="10" refY="5" viewBox="0 0 14 10" orient="auto" markerUnits="userSpaceOnUse" stroke-dasharray="0,0"><path id="SvgjsPath1649" d="M0,0 L14,5 L0,10 L0,0" fill="#323232" stroke="#323232" stroke-width="1"></path></marker></defs><g id="SvgjsG1536" transform="translate(596.5,113)"><path id="SvgjsPath1537" d="M 0 4Q 0 0 4 0L 179 0Q 183 0 183 4L 183 90Q 183 94 179 94L 4 94Q 0 94 0 90Z" stroke="rgba(50,50,50,1)" stroke-width="2" fill-opacity="1" fill="#ffffff"></path><g id="SvgjsG1538"><text id="SvgjsText1539" font-family="微软雅黑" text-anchor="middle" font-size="13px" width="163px" fill="#323232" font-weight="400" align="middle" lineHeight="125%" anchor="middle" family="微软雅黑" size="13px" weight="400" font-style="" opacity="1" y="36.375" transform="rotate(0)"><tspan id="SvgjsTspan1540" dy="16" x="91.5"><tspan id="SvgjsTspan1541" style="text-decoration:;">BootStrapClassloader</tspan></tspan></text></g></g><g id="SvgjsG1542" transform="translate(596.5,229)"><path id="SvgjsPath1543" d="M 0 4Q 0 0 4 0L 179 0Q 183 0 183 4L 183 90Q 183 94 179 94L 4 94Q 0 94 0 90Z" stroke="rgba(50,50,50,1)" stroke-width="2" fill-opacity="1" fill="#ffffff"></path><g id="SvgjsG1544"><text id="SvgjsText1545" font-family="微软雅黑" text-anchor="middle" font-size="13px" width="163px" fill="#323232" font-weight="400" align="middle" lineHeight="125%" anchor="middle" family="微软雅黑" size="13px" weight="400" font-style="" opacity="1" y="36.375" transform="rotate(0)"><tspan id="SvgjsTspan1546" dy="16" x="91.5"><tspan id="SvgjsTspan1547" style="text-decoration:;">ExtensionClassloader</tspan></tspan></text></g></g><g id="SvgjsG1548" transform="translate(596.5,345)"><path id="SvgjsPath1549" d="M 0 4Q 0 0 4 0L 179 0Q 183 0 183 4L 183 90Q 183 94 179 94L 4 94Q 0 94 0 90Z" stroke="rgba(50,50,50,1)" stroke-width="2" fill-opacity="1" fill="#ffffff"></path><g id="SvgjsG1550"><text id="SvgjsText1551" font-family="微软雅黑" text-anchor="middle" font-size="13px" width="163px" fill="#323232" font-weight="400" align="middle" lineHeight="125%" anchor="middle" family="微软雅黑" size="13px" weight="400" font-style="" opacity="1" y="36.375" transform="rotate(0)"><tspan id="SvgjsTspan1552" dy="16" x="91.5"><tspan id="SvgjsTspan1553" style="text-decoration:;">AppClassloader</tspan></tspan></text></g></g><g id="SvgjsG1554" transform="translate(596.5,461)"><path id="SvgjsPath1555" d="M 0 4Q 0 0 4 0L 179 0Q 183 0 183 4L 183 90Q 183 94 179 94L 4 94Q 0 94 0 90Z" stroke="rgba(50,50,50,1)" stroke-width="2" fill-opacity="1" fill="#ffffff"></path><g id="SvgjsG1556"><text id="SvgjsText1557" font-family="微软雅黑" text-anchor="middle" font-size="13px" width="163px" fill="#323232" font-weight="400" align="middle" lineHeight="125%" anchor="middle" family="微软雅黑" size="13px" weight="400" font-style="" opacity="1" y="36.375" transform="rotate(0)"><tspan id="SvgjsTspan1558" dy="16" x="91.5"><tspan id="SvgjsTspan1559" style="text-decoration:;">自定义classloader</tspan></tspan></text></g></g><g id="SvgjsG1560" transform="translate(262.5,666)"><path id="SvgjsPath1561" d="M 0 0L 123 0L 139 16L 139 69L 0 69L 0 0Z" stroke="none" fill-opacity="1" fill="#ffffaa"></path><path id="SvgjsPath1562" d="M 123 0L 123 16L 139 16Z" stroke="none" fill-opacity="1" fill="#cdcdcd"></path><path id="SvgjsPath1563" d="M 0 0L 123 0L 139 16L 139 69L 0 69L 0 0Z" stroke="none" fill="none"></path><g id="SvgjsG1564"><text id="SvgjsText1565" font-family="微软雅黑" text-anchor="middle" font-size="13px" width="119px" fill="#323232" font-weight="400" align="middle" lineHeight="125%" anchor="middle" family="微软雅黑" size="13px" weight="400" font-style="" opacity="1" y="23.875" transform="rotate(0)"><tspan id="SvgjsTspan1566" dy="16" x="69.5"><tspan id="SvgjsTspan1567" style="text-decoration:;">String.class</tspan></tspan></text></g></g><g id="SvgjsG1568"><path id="SvgjsPath1569" d="M332 666L332 633.5L688 633.5L688 558.6" stroke="#323232" stroke-width="2" fill="none" marker-end="url(#SvgjsMarker1570)"></path><rect id="SvgjsRect1572" width="26" height="16" x="518.1999999999999" y="625.5" fill="#ffffff"></rect><text id="SvgjsText1573" font-family="微软雅黑" text-anchor="middle" font-size="13px" width="26px" fill="#323232" font-weight="400" align="top" lineHeight="16px" anchor="middle" family="微软雅黑" size="13px" weight="400" font-style="" opacity="1" y="622.875" transform="rotate(0)"><tspan id="SvgjsTspan1574" dy="16" x="531.1999999999999"><tspan id="SvgjsTspan1575" style="text-decoration:;">load</tspan></tspan></text></g><g id="SvgjsG1576"><path id="SvgjsPath1577" d="M595.5 508L553 508L553 508L513.1 508" stroke="#323232" stroke-width="2" fill="none" marker-end="url(#SvgjsMarker1578)"></path></g><g id="SvgjsG1580" transform="translate(409.5,473)"><path id="SvgjsPath1581" d="M 0 0L 100 0L 100 70L 0 70Z" stroke="rgba(50,50,50,1)" stroke-width="2" fill-opacity="1" fill="#ffffff"></path><g id="SvgjsG1582"><text id="SvgjsText1583" font-family="微软雅黑" text-anchor="middle" font-size="13px" width="80px" fill="#323232" font-weight="400" align="middle" lineHeight="125%" anchor="middle" family="微软雅黑" size="13px" weight="400" font-style="" opacity="1" y="24.375" transform="rotate(0)"><tspan id="SvgjsTspan1584" dy="16" x="50"><tspan id="SvgjsTspan1585" style="text-decoration:;">缓存区</tspan></tspan></text></g></g><g id="SvgjsG1586"><path id="SvgjsPath1587" d="M688 460L688 450L688 450L688 442.6" stroke="#323232" stroke-width="2" fill="none" marker-end="url(#SvgjsMarker1588)"></path></g><g id="SvgjsG1590"><path id="SvgjsPath1591" d="M688 344L688 334L688 334L688 326.6" stroke="#323232" stroke-width="2" fill="none" marker-end="url(#SvgjsMarker1592)"></path></g><g id="SvgjsG1594"><path id="SvgjsPath1595" d="M688 229L688 218L688 218L688 210.60000000000002" stroke="#323232" stroke-width="2" fill="none" marker-end="url(#SvgjsMarker1596)"></path></g><g id="SvgjsG1598"><path id="SvgjsPath1599" d="M596.5 396L553 396L553 396L513.1 396" stroke="#323232" stroke-width="2" fill="none" marker-end="url(#SvgjsMarker1600)"></path></g><g id="SvgjsG1602" transform="translate(409.5,361)"><path id="SvgjsPath1603" d="M 0 0L 100 0L 100 70L 0 70Z" stroke="rgba(50,50,50,1)" stroke-width="2" fill-opacity="1" fill="#ffffff"></path><g id="SvgjsG1604"><text id="SvgjsText1605" font-family="微软雅黑" text-anchor="middle" font-size="13px" width="80px" fill="#323232" font-weight="400" align="middle" lineHeight="125%" anchor="middle" family="微软雅黑" size="13px" weight="400" font-style="" opacity="1" y="24.375" transform="rotate(0)"><tspan id="SvgjsTspan1606" dy="16" x="50"><tspan id="SvgjsTspan1607" style="text-decoration:;">缓存区</tspan></tspan></text></g></g><g id="SvgjsG1608"><path id="SvgjsPath1609" d="M596.5 284L553 284L553 284L513.1 284" stroke="#323232" stroke-width="2" fill="none" marker-end="url(#SvgjsMarker1610)"></path></g><g id="SvgjsG1612" transform="translate(409.5,249)"><path id="SvgjsPath1613" d="M 0 0L 100 0L 100 70L 0 70Z" stroke="rgba(50,50,50,1)" stroke-width="2" fill-opacity="1" fill="#ffffff"></path><g id="SvgjsG1614"><text id="SvgjsText1615" font-family="微软雅黑" text-anchor="middle" font-size="13px" width="80px" fill="#323232" font-weight="400" align="middle" lineHeight="125%" anchor="middle" family="微软雅黑" size="13px" weight="400" font-style="" opacity="1" y="24.375" transform="rotate(0)"><tspan id="SvgjsTspan1616" dy="16" x="50"><tspan id="SvgjsTspan1617" style="text-decoration:;">缓存区</tspan></tspan></text></g></g><g id="SvgjsG1618"><path id="SvgjsPath1619" d="M596.5 160L553 160L553 160L513.1 160" stroke="#323232" stroke-width="2" fill="none" marker-end="url(#SvgjsMarker1620)"></path></g><g id="SvgjsG1622" transform="translate(409.5,125)"><path id="SvgjsPath1623" d="M 0 0L 100 0L 100 70L 0 70Z" stroke="rgba(50,50,50,1)" stroke-width="2" fill-opacity="1" fill="#ffffff"></path><g id="SvgjsG1624"><text id="SvgjsText1625" font-family="微软雅黑" text-anchor="middle" font-size="13px" width="80px" fill="#323232" font-weight="400" align="middle" lineHeight="125%" anchor="middle" family="微软雅黑" size="13px" weight="400" font-style="" opacity="1" y="24.375" transform="rotate(0)"><tspan id="SvgjsTspan1626" dy="16" x="50"><tspan id="SvgjsTspan1627" style="text-decoration:;">缓存区</tspan></tspan></text></g></g><g id="SvgjsG1628" transform="translate(866.5,125)"><path id="SvgjsPath1629" d="M 0 0L 165 0L 181 16L 181 70L 0 70L 0 0Z" stroke="none" fill-opacity="1" fill="#ffffaa"></path><path id="SvgjsPath1630" d="M 165 0L 165 16L 181 16Z" stroke="none" fill-opacity="1" fill="#cdcdcd"></path><path id="SvgjsPath1631" d="M 0 0L 165 0L 181 16L 181 70L 0 70L 0 0Z" stroke="none" fill="none"></path><g id="SvgjsG1632"><text id="SvgjsText1633" font-family="微软雅黑" text-anchor="middle" font-size="13px" width="161px" fill="#323232" font-weight="400" align="middle" lineHeight="125%" anchor="middle" family="微软雅黑" size="13px" weight="400" font-style="" opacity="1" y="15.875" transform="rotate(0)"><tspan id="SvgjsTspan1634" dy="16" x="90.5"><tspan id="SvgjsTspan1635" style="text-decoration:;">尝试从lib包下加载当前类</tspan></tspan><tspan id="SvgjsTspan1636" dy="16" x="90.5"><tspan id="SvgjsTspan1637" style="text-decoration:;">加载不了交给子加载器</tspan></tspan></text></g></g><g id="SvgjsG1638"><path id="SvgjsPath1639" d="M780.5 160L852.5 160L852.5 276L783.1 276" stroke="#323232" stroke-width="2" fill="none" marker-end="url(#SvgjsMarker1640)"></path></g><g id="SvgjsG1642"><path id="SvgjsPath1643" d="M780.5 276L852.5 276L852.5 392L783.1 392" stroke="#323232" stroke-width="2" fill="none" marker-end="url(#SvgjsMarker1644)"></path></g><g id="SvgjsG1646"><path id="SvgjsPath1647" d="M780.5 392L852.5 392L852.5 508L783.1 508" stroke="#323232" stroke-width="2" fill="none" marker-end="url(#SvgjsMarker1648)"></path></g><g id="SvgjsG1650" transform="translate(866.5,241)"><path id="SvgjsPath1651" d="M 0 0L 187.5 0L 203.5 16L 203.5 70L 0 70L 0 0Z" stroke="none" fill-opacity="1" fill="#ffffaa"></path><path id="SvgjsPath1652" d="M 187.5 0L 187.5 16L 203.5 16Z" stroke="none" fill-opacity="1" fill="#cdcdcd"></path><path id="SvgjsPath1653" d="M 0 0L 187.5 0L 203.5 16L 203.5 70L 0 70L 0 0Z" stroke="none" fill="none"></path><g id="SvgjsG1654"><text id="SvgjsText1655" font-family="微软雅黑" text-anchor="middle" font-size="13px" width="184px" fill="#323232" font-weight="400" align="middle" lineHeight="125%" anchor="middle" family="微软雅黑" size="13px" weight="400" font-style="" opacity="1" y="15.875" transform="rotate(0)"><tspan id="SvgjsTspan1656" dy="16" x="102"><tspan id="SvgjsTspan1657" style="text-decoration:;">尝试从lib/ext/包下加载当前类</tspan></tspan><tspan id="SvgjsTspan1658" dy="16" x="102"><tspan id="SvgjsTspan1659" style="text-decoration:;">加载不了交给子加载器</tspan></tspan></text></g></g><g id="SvgjsG1660" transform="translate(866.5,357)"><path id="SvgjsPath1661" d="M 0 0L 187.5 0L 203.5 16L 203.5 70L 0 70L 0 0Z" stroke="none" fill-opacity="1" fill="#ffffaa"></path><path id="SvgjsPath1662" d="M 187.5 0L 187.5 16L 203.5 16Z" stroke="none" fill-opacity="1" fill="#cdcdcd"></path><path id="SvgjsPath1663" d="M 0 0L 187.5 0L 203.5 16L 203.5 70L 0 70L 0 0Z" stroke="none" fill="none"></path><g id="SvgjsG1664"><text id="SvgjsText1665" font-family="微软雅黑" text-anchor="middle" font-size="13px" width="184px" fill="#323232" font-weight="400" align="middle" lineHeight="125%" anchor="middle" family="微软雅黑" size="13px" weight="400" font-style="" opacity="1" y="15.875" transform="rotate(0)"><tspan id="SvgjsTspan1666" dy="16" x="102"><tspan id="SvgjsTspan1667" style="text-decoration:;">尝试从classpath下加载当前类</tspan></tspan><tspan id="SvgjsTspan1668" dy="16" x="102"><tspan id="SvgjsTspan1669" style="text-decoration:;">加载不了交给子加载器</tspan></tspan></text></g></g><g id="SvgjsG1670" transform="translate(872.5,473)"><path id="SvgjsPath1671" d="M 0 0L 187.5 0L 203.5 16L 203.5 70L 0 70L 0 0Z" stroke="none" fill-opacity="1" fill="#ffffaa"></path><path id="SvgjsPath1672" d="M 187.5 0L 187.5 16L 203.5 16Z" stroke="none" fill-opacity="1" fill="#cdcdcd"></path><path id="SvgjsPath1673" d="M 0 0L 187.5 0L 203.5 16L 203.5 70L 0 70L 0 0Z" stroke="none" fill="none"></path><g id="SvgjsG1674"><text id="SvgjsText1675" font-family="微软雅黑" text-anchor="middle" font-size="13px" width="184px" fill="#323232" font-weight="400" align="middle" lineHeight="125%" anchor="middle" family="微软雅黑" size="13px" weight="400" font-style="" opacity="1" y="15.875" transform="rotate(0)"><tspan id="SvgjsTspan1676" dy="16" x="102"><tspan id="SvgjsTspan1677" style="text-decoration:;">尝试从classpath下加载当前类</tspan></tspan><tspan id="SvgjsTspan1678" dy="16" x="102"><tspan id="SvgjsTspan1679" style="text-decoration:;">加载不了交给子加载器</tspan></tspan></text></g></g><g id="SvgjsG1680" transform="translate(25,439)"><path id="SvgjsPath1681" d="M 0 0L 281.5 0L 297.5 16L 297.5 96L 0 96L 0 0Z" stroke="none" fill-opacity="1" fill="#ffffaa"></path><path id="SvgjsPath1682" d="M 281.5 0L 281.5 16L 297.5 16Z" stroke="none" fill-opacity="1" fill="#cdcdcd"></path><path id="SvgjsPath1683" d="M 0 0L 281.5 0L 297.5 16L 297.5 96L 0 96L 0 0Z" stroke="none" fill="none"></path><g id="SvgjsG1684"><text id="SvgjsText1685" font-family="微软雅黑" text-anchor="middle" font-size="13px" width="278px" fill="#323232" font-weight="400" align="middle" lineHeight="125%" anchor="middle" family="微软雅黑" size="13px" weight="400" font-style="" opacity="1" y="28.875" transform="rotate(0)"><tspan id="SvgjsTspan1686" dy="16" x="149"><tspan id="SvgjsTspan1687" style="text-decoration:;">当类要被类加载器加载的时候,首先肯定从每一个</tspan></tspan><tspan id="SvgjsTspan1688" dy="16" x="149"><tspan id="SvgjsTspan1689" style="text-decoration:;">类加载缓存中查找当前类是否已经被缓存了。</tspan></tspan></text></g></g><g id="SvgjsG1690" transform="translate(474,678)"><path id="SvgjsPath1691" d="M 0 0L 190 0L 206 16L 206 45L 0 45L 0 0Z" stroke="none" fill-opacity="1" fill="#ffffaa"></path><path id="SvgjsPath1692" d="M 190 0L 190 16L 206 16Z" stroke="none" fill-opacity="1" fill="#cdcdcd"></path><path id="SvgjsPath1693" d="M 0 0L 190 0L 206 16L 206 45L 0 45L 0 0Z" stroke="none" fill="none"></path><g id="SvgjsG1694"><text id="SvgjsText1695" font-family="微软雅黑" text-anchor="middle" font-size="13px" width="186px" fill="#323232" font-weight="400" align="middle" lineHeight="125%" anchor="middle" family="微软雅黑" size="13px" weight="400" font-style="" opacity="1" y="3.375" transform="rotate(0)"><tspan id="SvgjsTspan1696" dy="16" x="103"><tspan id="SvgjsTspan1697" style="text-decoration:;">自己写了个String试图撰改核心</tspan></tspan><tspan id="SvgjsTspan1698" dy="16" x="103"><tspan id="SvgjsTspan1699" style="text-decoration:;">类库中的String</tspan></tspan></text></g></g><g id="SvgjsG1700" transform="translate(59,25)"><path id="SvgjsPath1701" d="M 0 0L 304 0L 320 16L 320 81L 0 81L 0 0Z" stroke="none" fill-opacity="1" fill="#ffffaa"></path><path id="SvgjsPath1702" d="M 304 0L 304 16L 320 16Z" stroke="none" fill-opacity="1" fill="#cdcdcd"></path><path id="SvgjsPath1703" d="M 0 0L 304 0L 320 16L 320 81L 0 81L 0 0Z" stroke="none" fill="none"></path><g id="SvgjsG1704"><text id="SvgjsText1705" font-family="微软雅黑" text-anchor="middle" font-size="13px" width="300px" fill="#323232" font-weight="400" align="middle" lineHeight="125%" anchor="middle" family="微软雅黑" size="13px" weight="400" font-style="" opacity="1" y="21.375" transform="rotate(0)"><tspan id="SvgjsTspan1706" dy="16" x="160"><tspan id="SvgjsTspan1707" style="text-decoration:;">当bootstrap发现自己已经加载过String.class,直接</tspan></tspan><tspan id="SvgjsTspan1708" dy="16" x="160"><tspan id="SvgjsTspan1709" style="text-decoration:;">使用自己加载过的String.class,自定义的String失效</tspan></tspan></text></g></g></svg>