<svg id="SvgjsSvg1304" width="679" height="492" xmlns="http://www.w3.org/2000/svg" version="1.1" xmlns:xlink="http://www.w3.org/1999/xlink" xmlns:svgjs="http://svgjs.com/svgjs"><defs id="SvgjsDefs1305"><marker id="SvgjsMarker1332" markerWidth="14" markerHeight="10" refX="10" refY="5" viewBox="0 0 14 10" orient="auto" markerUnits="userSpaceOnUse" stroke-dasharray="0,0"><path id="SvgjsPath1333" d="M0,0 L14,5 L0,10 L0,0" fill="#323232" stroke="#323232" stroke-width="1"></path></marker><marker id="SvgjsMarker1346" markerWidth="14" markerHeight="10" refX="10" refY="5" viewBox="0 0 14 10" orient="auto" markerUnits="userSpaceOnUse" stroke-dasharray="0,0"><path id="SvgjsPath1347" d="M0,0 L14,5 L0,10 L0,0" fill="#323232" stroke="#323232" stroke-width="1"></path></marker><marker id="SvgjsMarker1358" markerWidth="14" markerHeight="10" refX="10" refY="5" viewBox="0 0 14 10" orient="auto" markerUnits="userSpaceOnUse" stroke-dasharray="0,0"><path id="SvgjsPath1359" d="M0,0 L14,5 L0,10 L0,0" fill="#323232" stroke="#323232" stroke-width="1"></path></marker><marker id="SvgjsMarker1370" markerWidth="14" markerHeight="10" refX="10" refY="5" viewBox="0 0 14 10" orient="auto" markerUnits="userSpaceOnUse" stroke-dasharray="0,0"><path id="SvgjsPath1371" d="M0,0 L14,5 L0,10 L0,0" fill="#323232" stroke="#323232" stroke-width="1"></path></marker></defs><g id="SvgjsG1306" transform="translate(25,25)"><path id="SvgjsPath1307" d="M 0 4Q 0 0 4 0L 179 0Q 183 0 183 4L 183 90Q 183 94 179 94L 4 94Q 0 94 0 90Z" stroke="rgba(50,50,50,1)" stroke-width="2" fill-opacity="1" fill="#ffffff"></path><g id="SvgjsG1308"><text id="SvgjsText1309" font-family="微软雅黑" text-anchor="middle" font-size="13px" width="163px" fill="#323232" font-weight="400" align="middle" lineHeight="125%" anchor="middle" family="微软雅黑" size="13px" weight="400" font-style="" opacity="1" y="36.375" transform="rotate(0)"><tspan id="SvgjsTspan1310" dy="16" x="91.5"><tspan id="SvgjsTspan1311" style="text-decoration:;">BootStrapClassloader</tspan></tspan></text></g></g><g id="SvgjsG1312" transform="translate(25,141)"><path id="SvgjsPath1313" d="M 0 4Q 0 0 4 0L 179 0Q 183 0 183 4L 183 90Q 183 94 179 94L 4 94Q 0 94 0 90Z" stroke="rgba(50,50,50,1)" stroke-width="2" fill-opacity="1" fill="#ffffff"></path><g id="SvgjsG1314"><text id="SvgjsText1315" font-family="微软雅黑" text-anchor="middle" font-size="13px" width="163px" fill="#323232" font-weight="400" align="middle" lineHeight="125%" anchor="middle" family="微软雅黑" size="13px" weight="400" font-style="" opacity="1" y="36.375" transform="rotate(0)"><tspan id="SvgjsTspan1316" dy="16" x="91.5"><tspan id="SvgjsTspan1317" style="text-decoration:;">ExtensionClassloader</tspan></tspan></text></g></g><g id="SvgjsG1318" transform="translate(25,257)"><path id="SvgjsPath1319" d="M 0 4Q 0 0 4 0L 179 0Q 183 0 183 4L 183 90Q 183 94 179 94L 4 94Q 0 94 0 90Z" stroke="rgba(50,50,50,1)" stroke-width="2" fill-opacity="1" fill="#ffffff"></path><g id="SvgjsG1320"><text id="SvgjsText1321" font-family="微软雅黑" text-anchor="middle" font-size="13px" width="163px" fill="#323232" font-weight="400" align="middle" lineHeight="125%" anchor="middle" family="微软雅黑" size="13px" weight="400" font-style="" opacity="1" y="36.375" transform="rotate(0)"><tspan id="SvgjsTspan1322" dy="16" x="91.5"><tspan id="SvgjsTspan1323" style="text-decoration:;">AppClassloader</tspan></tspan></text></g></g><g id="SvgjsG1324" transform="translate(25,373)"><path id="SvgjsPath1325" d="M 0 4Q 0 0 4 0L 179 0Q 183 0 183 4L 183 90Q 183 94 179 94L 4 94Q 0 94 0 90Z" stroke="rgba(50,50,50,1)" stroke-width="2" fill-opacity="1" fill="#ffffff"></path><g id="SvgjsG1326"><text id="SvgjsText1327" font-family="微软雅黑" text-anchor="middle" font-size="13px" width="163px" fill="#323232" font-weight="400" align="middle" lineHeight="125%" anchor="middle" family="微软雅黑" size="13px" weight="400" font-style="" opacity="1" y="36.375" transform="rotate(0)"><tspan id="SvgjsTspan1328" dy="16" x="91.5"><tspan id="SvgjsTspan1329" style="text-decoration:;">自定义classloader</tspan></tspan></text></g></g><g id="SvgjsG1330"><path id="SvgjsPath1331" d="M209 72L323 72L323 72L435.4 72" stroke="#323232" stroke-width="2" fill="none" marker-end="url(#SvgjsMarker1332)"></path></g><g id="SvgjsG1334" transform="translate(438,30.25)"><path id="SvgjsPath1335" d="M 0 0L 200 0L 216 16L 216 83.5L 0 83.5L 0 0Z" stroke="none" fill-opacity="1" fill="#ffffaa"></path><path id="SvgjsPath1336" d="M 200 0L 200 16L 216 16Z" stroke="none" fill-opacity="1" fill="#cdcdcd"></path><path id="SvgjsPath1337" d="M 0 0L 200 0L 216 16L 216 83.5L 0 83.5L 0 0Z" stroke="none" fill="none"></path><g id="SvgjsG1338"><text id="SvgjsText1339" font-family="微软雅黑" text-anchor="middle" font-size="13px" width="196px" fill="#323232" font-weight="400" align="middle" lineHeight="125%" anchor="middle" family="微软雅黑" size="13px" weight="400" font-style="" opacity="1" y="22.625" transform="rotate(0)"><tspan id="SvgjsTspan1340" dy="16" x="108"><tspan id="SvgjsTspan1341" style="text-decoration:;">lib包下核心类库,比如rt.jar,以及</tspan></tspan><tspan id="SvgjsTspan1342" dy="16" x="108"><tspan id="SvgjsTspan1343" style="text-decoration:;">c++的实现</tspan></tspan></text></g></g><g id="SvgjsG1344"><path id="SvgjsPath1345" d="M208 188L323 188L323 188L435.4 188" stroke="#323232" stroke-width="2" fill="none" marker-end="url(#SvgjsMarker1346)"></path></g><g id="SvgjsG1348" transform="translate(438,146.25)"><path id="SvgjsPath1349" d="M 0 0L 200 0L 216 16L 216 83.5L 0 83.5L 0 0Z" stroke="none" fill-opacity="1" fill="#ffffaa"></path><path id="SvgjsPath1350" d="M 200 0L 200 16L 216 16Z" stroke="none" fill-opacity="1" fill="#cdcdcd"></path><path id="SvgjsPath1351" d="M 0 0L 200 0L 216 16L 216 83.5L 0 83.5L 0 0Z" stroke="none" fill="none"></path><g id="SvgjsG1352"><text id="SvgjsText1353" font-family="微软雅黑" text-anchor="middle" font-size="13px" width="196px" fill="#323232" font-weight="400" align="middle" lineHeight="125%" anchor="middle" family="微软雅黑" size="13px" weight="400" font-style="" opacity="1" y="31.125" transform="rotate(0)"><tspan id="SvgjsTspan1354" dy="16" x="108"><tspan id="SvgjsTspan1355" style="text-decoration:;">加载lib/ext下拓展jar包</tspan></tspan></text></g></g><g id="SvgjsG1356"><path id="SvgjsPath1357" d="M208 304L323 304L323 304L435.4 304" stroke="#323232" stroke-width="2" fill="none" marker-end="url(#SvgjsMarker1358)"></path></g><g id="SvgjsG1360" transform="translate(438,262.25)"><path id="SvgjsPath1361" d="M 0 0L 200 0L 216 16L 216 83.5L 0 83.5L 0 0Z" stroke="none" fill-opacity="1" fill="#ffffaa"></path><path id="SvgjsPath1362" d="M 200 0L 200 16L 216 16Z" stroke="none" fill-opacity="1" fill="#cdcdcd"></path><path id="SvgjsPath1363" d="M 0 0L 200 0L 216 16L 216 83.5L 0 83.5L 0 0Z" stroke="none" fill="none"></path><g id="SvgjsG1364"><text id="SvgjsText1365" font-family="微软雅黑" text-anchor="middle" font-size="13px" width="196px" fill="#323232" font-weight="400" align="middle" lineHeight="125%" anchor="middle" family="微软雅黑" size="13px" weight="400" font-style="" opacity="1" y="31.125" transform="rotate(0)"><tspan id="SvgjsTspan1366" dy="16" x="108"><tspan id="SvgjsTspan1367" style="text-decoration:;">加载classpath下内容</tspan></tspan></text></g></g><g id="SvgjsG1368"><path id="SvgjsPath1369" d="M209 420L319 420L319 420L430 420" stroke="#323232" stroke-width="2" fill="none" marker-end="url(#SvgjsMarker1370)"></path></g><g id="SvgjsG1372" transform="translate(430,378.25)"><path id="SvgjsPath1373" d="M 0 0L 200 0L 216 16L 216 83.5L 0 83.5L 0 0Z" stroke="none" fill-opacity="1" fill="#ffffaa"></path><path id="SvgjsPath1374" d="M 200 0L 200 16L 216 16Z" stroke="none" fill-opacity="1" fill="#cdcdcd"></path><path id="SvgjsPath1375" d="M 0 0L 200 0L 216 16L 216 83.5L 0 83.5L 0 0Z" stroke="none" fill="none"></path><g id="SvgjsG1376"><text id="SvgjsText1377" font-family="微软雅黑" text-anchor="middle" font-size="13px" width="196px" fill="#323232" font-weight="400" align="middle" lineHeight="125%" anchor="middle" family="微软雅黑" size="13px" weight="400" font-style="" opacity="1" y="31.125" transform="rotate(0)"><tspan id="SvgjsTspan1378" dy="16" x="108"><tspan id="SvgjsTspan1379" style="text-decoration:;">自定义加载内容</tspan></tspan></text></g></g></svg>