<svg id="SvgjsSvg1380" width="1153" height="672" xmlns="http://www.w3.org/2000/svg" version="1.1" xmlns:xlink="http://www.w3.org/1999/xlink" xmlns:svgjs="http://svgjs.com/svgjs"><defs id="SvgjsDefs1381"><marker id="SvgjsMarker1416" markerWidth="14" markerHeight="10" refX="10" refY="5" viewBox="0 0 14 10" orient="auto" markerUnits="userSpaceOnUse" stroke-dasharray="0,0"><path id="SvgjsPath1417" d="M0,0 L14,5 L0,10 L0,0" fill="#323232" stroke="#323232" stroke-width="1"></path></marker><marker id="SvgjsMarker1424" markerWidth="14" markerHeight="10" refX="10" refY="5" viewBox="0 0 14 10" orient="auto" markerUnits="userSpaceOnUse" stroke-dasharray="0,0"><path id="SvgjsPath1425" d="M0,0 L14,5 L0,10 L0,0" fill="#323232" stroke="#323232" stroke-width="1"></path></marker><marker id="SvgjsMarker1434" markerWidth="14" markerHeight="10" refX="10" refY="5" viewBox="0 0 14 10" orient="auto" markerUnits="userSpaceOnUse" stroke-dasharray="0,0"><path id="SvgjsPath1435" d="M0,0 L14,5 L0,10 L0,0" fill="#323232" stroke="#323232" stroke-width="1"></path></marker><marker id="SvgjsMarker1438" markerWidth="14" markerHeight="10" refX="10" refY="5" viewBox="0 0 14 10" orient="auto" markerUnits="userSpaceOnUse" stroke-dasharray="0,0"><path id="SvgjsPath1439" d="M0,0 L14,5 L0,10 L0,0" fill="#323232" stroke="#323232" stroke-width="1"></path></marker><marker id="SvgjsMarker1442" markerWidth="14" markerHeight="10" refX="10" refY="5" viewBox="0 0 14 10" orient="auto" markerUnits="userSpaceOnUse" stroke-dasharray="0,0"><path id="SvgjsPath1443" d="M0,0 L14,5 L0,10 L0,0" fill="#323232" stroke="#323232" stroke-width="1"></path></marker><marker id="SvgjsMarker1446" markerWidth="14" markerHeight="10" refX="10" refY="5" viewBox="0 0 14 10" orient="auto" markerUnits="userSpaceOnUse" stroke-dasharray="0,0"><path id="SvgjsPath1447" d="M0,0 L14,5 L0,10 L0,0" fill="#323232" stroke="#323232" stroke-width="1"></path></marker><marker id="SvgjsMarker1456" markerWidth="14" markerHeight="10" refX="10" refY="5" viewBox="0 0 14 10" orient="auto" markerUnits="userSpaceOnUse" stroke-dasharray="0,0"><path id="SvgjsPath1457" d="M0,0 L14,5 L0,10 L0,0" fill="#323232" stroke="#323232" stroke-width="1"></path></marker><marker id="SvgjsMarker1466" markerWidth="14" markerHeight="10" refX="10" refY="5" viewBox="0 0 14 10" orient="auto" markerUnits="userSpaceOnUse" stroke-dasharray="0,0"><path id="SvgjsPath1467" d="M0,0 L14,5 L0,10 L0,0" fill="#323232" stroke="#323232" stroke-width="1"></path></marker><marker id="SvgjsMarker1494" markerWidth="14" markerHeight="10" refX="10" refY="5" viewBox="0 0 14 10" orient="auto" markerUnits="userSpaceOnUse" stroke-dasharray="0,0"><path id="SvgjsPath1495" d="M0,0 L14,5 L0,10 L0,0" fill="#323232" stroke="#323232" stroke-width="1"></path></marker><marker id="SvgjsMarker1498" markerWidth="14" markerHeight="10" refX="10" refY="5" viewBox="0 0 14 10" orient="auto" markerUnits="userSpaceOnUse" stroke-dasharray="0,0"><path id="SvgjsPath1499" d="M0,0 L14,5 L0,10 L0,0" fill="#323232" stroke="#323232" stroke-width="1"></path></marker><marker id="SvgjsMarker1502" markerWidth="14" markerHeight="10" refX="10" refY="5" viewBox="0 0 14 10" orient="auto" markerUnits="userSpaceOnUse" stroke-dasharray="0,0"><path id="SvgjsPath1503" d="M0,0 L14,5 L0,10 L0,0" fill="#323232" stroke="#323232" stroke-width="1"></path></marker></defs><g id="SvgjsG1382" transform="translate(648,25)"><path id="SvgjsPath1383" d="M 0 4Q 0 0 4 0L 179 0Q 183 0 183 4L 183 90Q 183 94 179 94L 4 94Q 0 94 0 90Z" stroke="rgba(50,50,50,1)" stroke-width="2" fill-opacity="1" fill="#ffffff"></path><g id="SvgjsG1384"><text id="SvgjsText1385" font-family="微软雅黑" text-anchor="middle" font-size="13px" width="163px" fill="#323232" font-weight="400" align="middle" lineHeight="125%" anchor="middle" family="微软雅黑" size="13px" weight="400" font-style="" opacity="1" y="36.375" transform="rotate(0)"><tspan id="SvgjsTspan1386" dy="16" x="91.5"><tspan id="SvgjsTspan1387" style="text-decoration:;">BootStrapClassloader</tspan></tspan></text></g></g><g id="SvgjsG1388" transform="translate(648,141)"><path id="SvgjsPath1389" d="M 0 4Q 0 0 4 0L 179 0Q 183 0 183 4L 183 90Q 183 94 179 94L 4 94Q 0 94 0 90Z" stroke="rgba(50,50,50,1)" stroke-width="2" fill-opacity="1" fill="#ffffff"></path><g id="SvgjsG1390"><text id="SvgjsText1391" font-family="微软雅黑" text-anchor="middle" font-size="13px" width="163px" fill="#323232" font-weight="400" align="middle" lineHeight="125%" anchor="middle" family="微软雅黑" size="13px" weight="400" font-style="" opacity="1" y="36.375" transform="rotate(0)"><tspan id="SvgjsTspan1392" dy="16" x="91.5"><tspan id="SvgjsTspan1393" style="text-decoration:;">ExtensionClassloader</tspan></tspan></text></g></g><g id="SvgjsG1394" transform="translate(648,257)"><path id="SvgjsPath1395" d="M 0 4Q 0 0 4 0L 179 0Q 183 0 183 4L 183 90Q 183 94 179 94L 4 94Q 0 94 0 90Z" stroke="rgba(50,50,50,1)" stroke-width="2" fill-opacity="1" fill="#ffffff"></path><g id="SvgjsG1396"><text id="SvgjsText1397" font-family="微软雅黑" text-anchor="middle" font-size="13px" width="163px" fill="#323232" font-weight="400" align="middle" lineHeight="125%" anchor="middle" family="微软雅黑" size="13px" weight="400" font-style="" opacity="1" y="36.375" transform="rotate(0)"><tspan id="SvgjsTspan1398" dy="16" x="91.5"><tspan id="SvgjsTspan1399" style="text-decoration:;">AppClassloader</tspan></tspan></text></g></g><g id="SvgjsG1400" transform="translate(648,373)"><path id="SvgjsPath1401" d="M 0 4Q 0 0 4 0L 179 0Q 183 0 183 4L 183 90Q 183 94 179 94L 4 94Q 0 94 0 90Z" stroke="rgba(50,50,50,1)" stroke-width="2" fill-opacity="1" fill="#ffffff"></path><g id="SvgjsG1402"><text id="SvgjsText1403" font-family="微软雅黑" text-anchor="middle" font-size="13px" width="163px" fill="#323232" font-weight="400" align="middle" lineHeight="125%" anchor="middle" family="微软雅黑" size="13px" weight="400" font-style="" opacity="1" y="36.375" transform="rotate(0)"><tspan id="SvgjsTspan1404" dy="16" x="91.5"><tspan id="SvgjsTspan1405" style="text-decoration:;">自定义classloader</tspan></tspan></text></g></g><g id="SvgjsG1406" transform="translate(314,578)"><path id="SvgjsPath1407" d="M 0 0L 123 0L 139 16L 139 69L 0 69L 0 0Z" stroke="none" fill-opacity="1" fill="#ffffaa"></path><path id="SvgjsPath1408" d="M 123 0L 123 16L 139 16Z" stroke="none" fill-opacity="1" fill="#cdcdcd"></path><path id="SvgjsPath1409" d="M 0 0L 123 0L 139 16L 139 69L 0 69L 0 0Z" stroke="none" fill="none"></path><g id="SvgjsG1410"><text id="SvgjsText1411" font-family="微软雅黑" text-anchor="middle" font-size="13px" width="119px" fill="#323232" font-weight="400" align="middle" lineHeight="125%" anchor="middle" family="微软雅黑" size="13px" weight="400" font-style="" opacity="1" y="23.875" transform="rotate(0)"><tspan id="SvgjsTspan1412" dy="16" x="69.5"><tspan id="SvgjsTspan1413" style="text-decoration:;">class文件</tspan></tspan></text></g></g><g id="SvgjsG1414"><path id="SvgjsPath1415" d="M383.5 578L383.5 545.5L739.5 545.5L739.5 470.6" stroke="#323232" stroke-width="2" fill="none" marker-end="url(#SvgjsMarker1416)"></path><rect id="SvgjsRect1418" width="26" height="16" x="569.7" y="537.5" fill="#ffffff"></rect><text id="SvgjsText1419" font-family="微软雅黑" text-anchor="middle" font-size="13px" width="26px" fill="#323232" font-weight="400" align="top" lineHeight="16px" anchor="middle" family="微软雅黑" size="13px" weight="400" font-style="" opacity="1" y="534.875" transform="rotate(0)"><tspan id="SvgjsTspan1420" dy="16" x="582.7"><tspan id="SvgjsTspan1421" style="text-decoration:;">load</tspan></tspan></text></g><g id="SvgjsG1422"><path id="SvgjsPath1423" d="M647 420L604.5 420L604.5 420L564.6 420" stroke="#323232" stroke-width="2" fill="none" marker-end="url(#SvgjsMarker1424)"></path></g><g id="SvgjsG1426" transform="translate(461,385)"><path id="SvgjsPath1427" d="M 0 0L 100 0L 100 70L 0 70Z" stroke="rgba(50,50,50,1)" stroke-width="2" fill-opacity="1" fill="#ffffff"></path><g id="SvgjsG1428"><text id="SvgjsText1429" font-family="微软雅黑" text-anchor="middle" font-size="13px" width="80px" fill="#323232" font-weight="400" align="middle" lineHeight="125%" anchor="middle" family="微软雅黑" size="13px" weight="400" font-style="" opacity="1" y="24.375" transform="rotate(0)"><tspan id="SvgjsTspan1430" dy="16" x="50"><tspan id="SvgjsTspan1431" style="text-decoration:;">缓存区</tspan></tspan></text></g></g><g id="SvgjsG1432"><path id="SvgjsPath1433" d="M739.5 372L739.5 362L739.5 362L739.5 354.6" stroke="#323232" stroke-width="2" fill="none" marker-end="url(#SvgjsMarker1434)"></path></g><g id="SvgjsG1436"><path id="SvgjsPath1437" d="M739.5 256L739.5 246L739.5 246L739.5 238.60000000000002" stroke="#323232" stroke-width="2" fill="none" marker-end="url(#SvgjsMarker1438)"></path></g><g id="SvgjsG1440"><path id="SvgjsPath1441" d="M739.5 140L739.5 130L739.5 130L739.5 122.60000000000002" stroke="#323232" stroke-width="2" fill="none" marker-end="url(#SvgjsMarker1442)"></path></g><g id="SvgjsG1444"><path id="SvgjsPath1445" d="M648 308L604.5 308L604.5 308L564.6 308" stroke="#323232" stroke-width="2" fill="none" marker-end="url(#SvgjsMarker1446)"></path></g><g id="SvgjsG1448" transform="translate(461,273)"><path id="SvgjsPath1449" d="M 0 0L 100 0L 100 70L 0 70Z" stroke="rgba(50,50,50,1)" stroke-width="2" fill-opacity="1" fill="#ffffff"></path><g id="SvgjsG1450"><text id="SvgjsText1451" font-family="微软雅黑" text-anchor="middle" font-size="13px" width="80px" fill="#323232" font-weight="400" align="middle" lineHeight="125%" anchor="middle" family="微软雅黑" size="13px" weight="400" font-style="" opacity="1" y="24.375" transform="rotate(0)"><tspan id="SvgjsTspan1452" dy="16" x="50"><tspan id="SvgjsTspan1453" style="text-decoration:;">缓存区</tspan></tspan></text></g></g><g id="SvgjsG1454"><path id="SvgjsPath1455" d="M648 196L604.5 196L604.5 196L564.6 196" stroke="#323232" stroke-width="2" fill="none" marker-end="url(#SvgjsMarker1456)"></path></g><g id="SvgjsG1458" transform="translate(461,161)"><path id="SvgjsPath1459" d="M 0 0L 100 0L 100 70L 0 70Z" stroke="rgba(50,50,50,1)" stroke-width="2" fill-opacity="1" fill="#ffffff"></path><g id="SvgjsG1460"><text id="SvgjsText1461" font-family="微软雅黑" text-anchor="middle" font-size="13px" width="80px" fill="#323232" font-weight="400" align="middle" lineHeight="125%" anchor="middle" family="微软雅黑" size="13px" weight="400" font-style="" opacity="1" y="24.375" transform="rotate(0)"><tspan id="SvgjsTspan1462" dy="16" x="50"><tspan id="SvgjsTspan1463" style="text-decoration:;">缓存区</tspan></tspan></text></g></g><g id="SvgjsG1464"><path id="SvgjsPath1465" d="M648 72L604.5 72L604.5 72L564.6 72" stroke="#323232" stroke-width="2" fill="none" marker-end="url(#SvgjsMarker1466)"></path></g><g id="SvgjsG1468" transform="translate(461,37)"><path id="SvgjsPath1469" d="M 0 0L 100 0L 100 70L 0 70Z" stroke="rgba(50,50,50,1)" stroke-width="2" fill-opacity="1" fill="#ffffff"></path><g id="SvgjsG1470"><text id="SvgjsText1471" font-family="微软雅黑" text-anchor="middle" font-size="13px" width="80px" fill="#323232" font-weight="400" align="middle" lineHeight="125%" anchor="middle" family="微软雅黑" size="13px" weight="400" font-style="" opacity="1" y="24.375" transform="rotate(0)"><tspan id="SvgjsTspan1472" dy="16" x="50"><tspan id="SvgjsTspan1473" style="text-decoration:;">缓存区</tspan></tspan></text></g></g><g id="SvgjsG1474" transform="translate(25,154.5)"><path id="SvgjsPath1475" d="M 0 0L 341 0L 357 16L 357 153L 0 153L 0 0Z" stroke="none" fill-opacity="1" fill="#ffffaa"></path><path id="SvgjsPath1476" d="M 341 0L 341 16L 357 16Z" stroke="none" fill-opacity="1" fill="#cdcdcd"></path><path id="SvgjsPath1477" d="M 0 0L 341 0L 357 16L 357 153L 0 153L 0 0Z" stroke="none" fill="none"></path><g id="SvgjsG1478"><text id="SvgjsText1479" font-family="微软雅黑" text-anchor="middle" font-size="13px" width="337px" fill="#323232" font-weight="400" align="middle" lineHeight="125%" anchor="middle" family="微软雅黑" size="13px" weight="400" font-style="" opacity="1" y="65.875" transform="rotate(0)"><tspan id="SvgjsTspan1480" dy="16" x="178.5"><tspan id="SvgjsTspan1481" style="text-decoration:;">当前class没被classLoader缓存,就会寻找自己的父加载器</tspan></tspan></text></g></g><g id="SvgjsG1482" transform="translate(918,37)"><path id="SvgjsPath1483" d="M 0 0L 165 0L 181 16L 181 70L 0 70L 0 0Z" stroke="none" fill-opacity="1" fill="#ffffaa"></path><path id="SvgjsPath1484" d="M 165 0L 165 16L 181 16Z" stroke="none" fill-opacity="1" fill="#cdcdcd"></path><path id="SvgjsPath1485" d="M 0 0L 165 0L 181 16L 181 70L 0 70L 0 0Z" stroke="none" fill="none"></path><g id="SvgjsG1486"><text id="SvgjsText1487" font-family="微软雅黑" text-anchor="middle" font-size="13px" width="161px" fill="#323232" font-weight="400" align="middle" lineHeight="125%" anchor="middle" family="微软雅黑" size="13px" weight="400" font-style="" opacity="1" y="15.875" transform="rotate(0)"><tspan id="SvgjsTspan1488" dy="16" x="90.5"><tspan id="SvgjsTspan1489" style="text-decoration:;">尝试从lib包下加载当前类</tspan></tspan><tspan id="SvgjsTspan1490" dy="16" x="90.5"><tspan id="SvgjsTspan1491" style="text-decoration:;">加载不了交给子加载器</tspan></tspan></text></g></g><g id="SvgjsG1492"><path id="SvgjsPath1493" d="M832 72L904 72L904 188L834.6 188" stroke="#323232" stroke-width="2" fill="none" marker-end="url(#SvgjsMarker1494)"></path></g><g id="SvgjsG1496"><path id="SvgjsPath1497" d="M832 188L904 188L904 304L834.6 304" stroke="#323232" stroke-width="2" fill="none" marker-end="url(#SvgjsMarker1498)"></path></g><g id="SvgjsG1500"><path id="SvgjsPath1501" d="M832 304L904 304L904 420L834.6 420" stroke="#323232" stroke-width="2" fill="none" marker-end="url(#SvgjsMarker1502)"></path></g><g id="SvgjsG1504" transform="translate(918,153)"><path id="SvgjsPath1505" d="M 0 0L 187.5 0L 203.5 16L 203.5 70L 0 70L 0 0Z" stroke="none" fill-opacity="1" fill="#ffffaa"></path><path id="SvgjsPath1506" d="M 187.5 0L 187.5 16L 203.5 16Z" stroke="none" fill-opacity="1" fill="#cdcdcd"></path><path id="SvgjsPath1507" d="M 0 0L 187.5 0L 203.5 16L 203.5 70L 0 70L 0 0Z" stroke="none" fill="none"></path><g id="SvgjsG1508"><text id="SvgjsText1509" font-family="微软雅黑" text-anchor="middle" font-size="13px" width="184px" fill="#323232" font-weight="400" align="middle" lineHeight="125%" anchor="middle" family="微软雅黑" size="13px" weight="400" font-style="" opacity="1" y="15.875" transform="rotate(0)"><tspan id="SvgjsTspan1510" dy="16" x="102"><tspan id="SvgjsTspan1511" style="text-decoration:;">尝试从lib/ext/包下加载当前类</tspan></tspan><tspan id="SvgjsTspan1512" dy="16" x="102"><tspan id="SvgjsTspan1513" style="text-decoration:;">加载不了交给子加载器</tspan></tspan></text></g></g><g id="SvgjsG1514" transform="translate(918,269)"><path id="SvgjsPath1515" d="M 0 0L 187.5 0L 203.5 16L 203.5 70L 0 70L 0 0Z" stroke="none" fill-opacity="1" fill="#ffffaa"></path><path id="SvgjsPath1516" d="M 187.5 0L 187.5 16L 203.5 16Z" stroke="none" fill-opacity="1" fill="#cdcdcd"></path><path id="SvgjsPath1517" d="M 0 0L 187.5 0L 203.5 16L 203.5 70L 0 70L 0 0Z" stroke="none" fill="none"></path><g id="SvgjsG1518"><text id="SvgjsText1519" font-family="微软雅黑" text-anchor="middle" font-size="13px" width="184px" fill="#323232" font-weight="400" align="middle" lineHeight="125%" anchor="middle" family="微软雅黑" size="13px" weight="400" font-style="" opacity="1" y="15.875" transform="rotate(0)"><tspan id="SvgjsTspan1520" dy="16" x="102"><tspan id="SvgjsTspan1521" style="text-decoration:;">尝试从classpath下加载当前类</tspan></tspan><tspan id="SvgjsTspan1522" dy="16" x="102"><tspan id="SvgjsTspan1523" style="text-decoration:;">加载不了交给子加载器</tspan></tspan></text></g></g><g id="SvgjsG1524" transform="translate(924,385)"><path id="SvgjsPath1525" d="M 0 0L 187.5 0L 203.5 16L 203.5 70L 0 70L 0 0Z" stroke="none" fill-opacity="1" fill="#ffffaa"></path><path id="SvgjsPath1526" d="M 187.5 0L 187.5 16L 203.5 16Z" stroke="none" fill-opacity="1" fill="#cdcdcd"></path><path id="SvgjsPath1527" d="M 0 0L 187.5 0L 203.5 16L 203.5 70L 0 70L 0 0Z" stroke="none" fill="none"></path><g id="SvgjsG1528"><text id="SvgjsText1529" font-family="微软雅黑" text-anchor="middle" font-size="13px" width="184px" fill="#323232" font-weight="400" align="middle" lineHeight="125%" anchor="middle" family="微软雅黑" size="13px" weight="400" font-style="" opacity="1" y="15.875" transform="rotate(0)"><tspan id="SvgjsTspan1530" dy="16" x="102"><tspan id="SvgjsTspan1531" style="text-decoration:;">当自定义加载器加载不了的时</tspan></tspan><tspan id="SvgjsTspan1532" dy="16" x="102"><tspan id="SvgjsTspan1533" style="text-decoration:;">候,报classNotFound异常</tspan></tspan></text></g></g></svg>