<svg id="SvgjsSvg1218" width="1152" height="401.5" xmlns="http://www.w3.org/2000/svg" version="1.1" xmlns:xlink="http://www.w3.org/1999/xlink" xmlns:svgjs="http://svgjs.com/svgjs"><defs id="SvgjsDefs1219"><marker id="SvgjsMarker1230" markerWidth="14" markerHeight="10" refX="10" refY="5" viewBox="0 0 14 10" orient="auto" markerUnits="userSpaceOnUse" stroke-dasharray="0,0"><path id="SvgjsPath1231" d="M0,0 L14,5 L0,10 L0,0" fill="#323232" stroke="#323232" stroke-width="1"></path></marker><marker id="SvgjsMarker1240" markerWidth="14" markerHeight="10" refX="10" refY="5" viewBox="0 0 14 10" orient="auto" markerUnits="userSpaceOnUse" stroke-dasharray="0,0"><path id="SvgjsPath1241" d="M0,0 L14,5 L0,10 L0,0" fill="#323232" stroke="#323232" stroke-width="1"></path></marker><marker id="SvgjsMarker1260" markerWidth="14" markerHeight="10" refX="10" refY="5" viewBox="0 0 14 10" orient="auto" markerUnits="userSpaceOnUse" stroke-dasharray="0,0"><path id="SvgjsPath1261" d="M0,0 L14,5 L0,10 L0,0" fill="#323232" stroke="#323232" stroke-width="1"></path></marker><marker id="SvgjsMarker1276" markerWidth="14" markerHeight="10" refX="10" refY="5" viewBox="0 0 14 10" orient="auto" markerUnits="userSpaceOnUse" stroke-dasharray="0,0"><path id="SvgjsPath1277" d="M0,0 L14,5 L0,10 L0,0" fill="#323232" stroke="#323232" stroke-width="1"></path></marker><marker id="SvgjsMarker1298" markerWidth="14" markerHeight="10" refX="10" refY="5" viewBox="0 0 14 10" orient="auto" markerUnits="userSpaceOnUse" stroke-dasharray="0,0"><path id="SvgjsPath1299" d="M0,0 L14,5 L0,10 L0,0" fill="#323232" stroke="#323232" stroke-width="1"></path></marker></defs><g id="SvgjsG1220" transform="translate(25,201)"><path id="SvgjsPath1221" d="M 0 0L 64 0L 80 16L 80 100L 0 100L 0 0Z" stroke="none" fill-opacity="1" fill="#ffffaa"></path><path id="SvgjsPath1222" d="M 64 0L 64 16L 80 16Z" stroke="none" fill-opacity="1" fill="#cdcdcd"></path><path id="SvgjsPath1223" d="M 0 0L 64 0L 80 16L 80 100L 0 100L 0 0Z" stroke="none" fill="none"></path><g id="SvgjsG1224"><text id="SvgjsText1225" font-family="微软雅黑" text-anchor="middle" font-size="13px" width="60px" fill="#323232" font-weight="400" align="middle" lineHeight="125%" anchor="middle" family="微软雅黑" size="13px" weight="400" font-style="" opacity="1" y="39.375" transform="rotate(0)"><tspan id="SvgjsTspan1226" dy="16" x="40"><tspan id="SvgjsTspan1227" style="text-decoration:;">class文件</tspan></tspan></text></g></g><g id="SvgjsG1228"><path id="SvgjsPath1229" d="M65 201L65 60L235.39999999999998 60" stroke="#323232" stroke-width="2" fill="none" marker-end="url(#SvgjsMarker1230)"></path></g><g id="SvgjsG1232" transform="translate(239,25)"><path id="SvgjsPath1233" d="M 0 0L 100 0L 100 70L 0 70Z" stroke="rgba(50,50,50,1)" stroke-width="2" fill-opacity="1" fill="#ffffff"></path><g id="SvgjsG1234"><text id="SvgjsText1235" font-family="微软雅黑" text-anchor="middle" font-size="13px" width="80px" fill="#323232" font-weight="400" align="middle" lineHeight="125%" anchor="middle" family="微软雅黑" size="13px" weight="400" font-style="" opacity="1" y="24.375" transform="rotate(0)"><tspan id="SvgjsTspan1236" dy="16" x="50"><tspan id="SvgjsTspan1237" style="text-decoration:;">内存</tspan></tspan></text></g></g><g id="SvgjsG1238"><path id="SvgjsPath1239" d="M66 148L227.5 148L227.5 148L385.4 148" stroke="#323232" stroke-width="2" fill="none" marker-end="url(#SvgjsMarker1240)"></path></g><g id="SvgjsG1242" transform="translate(389,111)"><path id="SvgjsPath1243" d="M 0 0L 151 0L 151 70L 0 70Z" stroke="rgba(50,50,50,1)" stroke-width="2" fill-opacity="1" fill="#ffffff"></path><g id="SvgjsG1244"><text id="SvgjsText1245" font-family="微软雅黑" text-anchor="middle" font-size="13px" width="131px" fill="#323232" font-weight="400" align="middle" lineHeight="125%" anchor="middle" family="微软雅黑" size="13px" weight="400" font-style="" opacity="1" y="15.875" transform="rotate(0)"><tspan id="SvgjsTspan1246" dy="16" x="75.5"><tspan id="SvgjsTspan1247" style="text-decoration:;">当前类class对象</tspan></tspan><tspan id="SvgjsTspan1248" dy="16" x="75.5"><tspan id="SvgjsTspan1249" style="text-decoration:;">例如:Demo.class</tspan></tspan></text></g></g><g id="SvgjsG1250" transform="translate(400.5,25)"><path id="SvgjsPath1251" d="M 0 0L 265.5 0L 281.5 16L 281.5 60.5L 0 60.5L 0 0Z" stroke="none" fill-opacity="1" fill="#ffffaa"></path><path id="SvgjsPath1252" d="M 265.5 0L 265.5 16L 281.5 16Z" stroke="none" fill-opacity="1" fill="#cdcdcd"></path><path id="SvgjsPath1253" d="M 0 0L 265.5 0L 281.5 16L 281.5 60.5L 0 60.5L 0 0Z" stroke="none" fill="none"></path><g id="SvgjsG1254"><text id="SvgjsText1255" font-family="微软雅黑" text-anchor="middle" font-size="13px" width="262px" fill="#323232" font-weight="400" align="middle" lineHeight="125%" anchor="middle" family="微软雅黑" size="13px" weight="400" font-style="" opacity="1" y="19.625" transform="rotate(0)"><tspan id="SvgjsTspan1256" dy="16" x="141"><tspan id="SvgjsTspan1257" style="text-decoration:;">class load到内存中其实还生成了class对象</tspan></tspan></text></g></g><g id="SvgjsG1258"><path id="SvgjsPath1259" d="M464.5 182L464.5 247.25L465.25 247.25L465.25 310.9" stroke="#323232" stroke-width="2" fill="none" marker-end="url(#SvgjsMarker1260)"></path><rect id="SvgjsRect1262" width="26" height="16" x="451.5" y="238.825" fill="#ffffff"></rect><text id="SvgjsText1263" font-family="微软雅黑" text-anchor="middle" font-size="13px" width="26px" fill="#323232" font-weight="400" align="top" lineHeight="16px" anchor="middle" family="微软雅黑" size="13px" weight="400" font-style="" opacity="1" y="236.2" transform="rotate(0)"><tspan id="SvgjsTspan1264" dy="16" x="464.5"><tspan id="SvgjsTspan1265" style="text-decoration:;">解析</tspan></tspan></text></g><g id="SvgjsG1266" transform="translate(400.5,313.5)"><path id="SvgjsPath1267" d="M 0 0L 113.5 0L 129.5 16L 129.5 62.5L 0 62.5L 0 0Z" stroke="none" fill-opacity="1" fill="#ffffaa"></path><path id="SvgjsPath1268" d="M 113.5 0L 113.5 16L 129.5 16Z" stroke="none" fill-opacity="1" fill="#cdcdcd"></path><path id="SvgjsPath1269" d="M 0 0L 113.5 0L 129.5 16L 129.5 62.5L 0 62.5L 0 0Z" stroke="none" fill="none"></path><g id="SvgjsG1270"><text id="SvgjsText1271" font-family="微软雅黑" text-anchor="middle" font-size="13px" width="110px" fill="#323232" font-weight="400" align="middle" lineHeight="125%" anchor="middle" family="微软雅黑" size="13px" weight="400" font-style="" opacity="1" y="20.625" transform="rotate(0)"><tspan id="SvgjsTspan1272" dy="16" x="65"><tspan id="SvgjsTspan1273" style="text-decoration:;">class二进制文件</tspan></tspan></text></g></g><g id="SvgjsG1274"><path id="SvgjsPath1275" d="M530 344.75L626.375 344.75L626.375 344.75L720.15 344.75" stroke="#323232" stroke-width="2" fill="none" marker-end="url(#SvgjsMarker1276)"></path><rect id="SvgjsRect1278" width="39" height="16" x="605.575" y="336.75" fill="#ffffff"></rect><text id="SvgjsText1279" font-family="微软雅黑" text-anchor="middle" font-size="13px" width="39px" fill="#323232" font-weight="400" align="top" lineHeight="16px" anchor="middle" family="微软雅黑" size="13px" weight="400" font-style="" opacity="1" y="334.125" transform="rotate(0)"><tspan id="SvgjsTspan1280" dy="16" x="625.075"><tspan id="SvgjsTspan1281" style="text-decoration:;">等同于</tspan></tspan></text></g><g id="SvgjsG1282" transform="translate(722.75,313.625)"><path id="SvgjsPath1283" d="M 0 0L 170 0L 186 16L 186 62.25L 0 62.25L 0 0Z" stroke="none" fill-opacity="1" fill="#ffffaa"></path><path id="SvgjsPath1284" d="M 170 0L 170 16L 186 16Z" stroke="none" fill-opacity="1" fill="#cdcdcd"></path><path id="SvgjsPath1285" d="M 0 0L 170 0L 186 16L 186 62.25L 0 62.25L 0 0Z" stroke="none" fill="none"></path><g id="SvgjsG1286"><text id="SvgjsText1287" font-family="微软雅黑" text-anchor="middle" font-size="13px" width="166px" fill="#323232" font-weight="400" align="middle" lineHeight="125%" anchor="middle" family="微软雅黑" size="13px" weight="400" font-style="" opacity="1" y="20.5" transform="rotate(0)"><tspan id="SvgjsTspan1288" dy="16" x="93"><tspan id="SvgjsTspan1289" style="text-decoration:;">常量池</tspan></tspan></text></g></g><g id="SvgjsG1290" transform="translate(915,103.5)"><path id="SvgjsPath1291" d="M 0 0L 212 0L 212 85L 0 85Z" stroke="rgba(50,50,50,1)" stroke-width="2" fill-opacity="1" fill="#ffffff"></path><g id="SvgjsG1292"><text id="SvgjsText1293" font-family="微软雅黑" text-anchor="middle" font-size="13px" width="192px" fill="#323232" font-weight="400" align="middle" lineHeight="125%" anchor="middle" family="微软雅黑" size="13px" weight="400" font-style="" opacity="1" y="31.875" transform="rotate(0)"><tspan id="SvgjsTspan1294" dy="16" x="106"><tspan id="SvgjsTspan1295" style="text-decoration:;">xxx.class.getDeclaredMethods()</tspan></tspan></text></g></g><g id="SvgjsG1296"><path id="SvgjsPath1297" d="M914 146L727.5 146L727.5 146L543.6 146" stroke="#323232" stroke-width="2" fill="none" marker-end="url(#SvgjsMarker1298)"></path><rect id="SvgjsRect1300" width="96" height="16" x="680.8000000000001" y="138" fill="#ffffff"></rect><text id="SvgjsText1301" font-family="微软雅黑" text-anchor="middle" font-size="13px" width="96px" fill="#323232" font-weight="400" align="top" lineHeight="16px" anchor="middle" family="微软雅黑" size="13px" weight="400" font-style="" opacity="1" y="135.375" transform="rotate(0)"><tspan id="SvgjsTspan1302" dy="16" x="728.8000000000001"><tspan id="SvgjsTspan1303" style="text-decoration:;">调用该class方法</tspan></tspan></text></g></svg>