<svg id="SvgjsSvg1006" width="1325.09375" height="320.09375" xmlns="http://www.w3.org/2000/svg" version="1.1" xmlns:xlink="http://www.w3.org/1999/xlink" xmlns:svgjs="http://svgjs.com/svgjs"><defs id="SvgjsDefs1007"></defs><g id="SvgjsG1008" transform="translate(168.95673076923077,131.09375)"><path id="SvgjsPath1009" d="M 0 4Q 0 0 4 0L 991 0Q 995 0 995 4L 995 159Q 995 163 991 163L 4 163Q 0 163 0 159Z" stroke="rgba(50,50,50,1)" stroke-width="2" fill-opacity="1" fill="#ffffff"></path><g id="SvgjsG1010"><text id="SvgjsText1011" font-family="微软雅黑" text-anchor="middle" font-size="13px" width="975px" fill="#323232" font-weight="400" align="middle" lineHeight="125%" anchor="middle" family="微软雅黑" size="13px" weight="400" font-style="" opacity="1" y="70.875" transform="rotate(0)"></text></g></g><g id="SvgjsG1012" transform="translate(166.1875,130.09375)"><path id="SvgjsPath1013" d="M 0 0L 264 0L 264 165L 0 165Z" stroke="rgba(50,50,50,1)" stroke-width="2" fill-opacity="1" fill="#ffffff"></path><g id="SvgjsG1014"><text id="SvgjsText1015" font-family="微软雅黑" text-anchor="middle" font-size="13px" width="244px" fill="#323232" font-weight="400" align="middle" lineHeight="125%" anchor="middle" family="微软雅黑" size="13px" weight="400" font-style="" opacity="1" y="71.875" transform="rotate(0)"><tspan id="SvgjsTspan1016" dy="16" x="132"><tspan id="SvgjsTspan1017" style="text-decoration:;">eden(伊甸区)</tspan></tspan></text></g></g><g id="SvgjsG1018" transform="translate(430.1875,130.00284090909082)"><path id="SvgjsPath1019" d="M 0 0L 100 0L 100 165.18181818181836L 0 165.18181818181836Z" stroke="rgba(50,50,50,1)" stroke-width="2" fill-opacity="1" fill="#ffffff"></path><g id="SvgjsG1020"><text id="SvgjsText1021" font-family="微软雅黑" text-anchor="middle" font-size="12px" width="80px" fill="#323232" font-weight="400" align="middle" lineHeight="125%" anchor="middle" family="微软雅黑" size="12px" weight="400" font-style="" opacity="1" y="72.59090909090918" transform="rotate(0)"><tspan id="SvgjsTspan1022" dy="15" x="50"><tspan id="SvgjsTspan1023" style="text-decoration:;">survivor幸存区</tspan></tspan></text></g></g><g id="SvgjsG1024" transform="translate(529.7329545454534,129.91193181818159)"><path id="SvgjsPath1025" d="M 0 0L 100 0L 100 165.18181818181836L 0 165.18181818181836Z" stroke="rgba(50,50,50,1)" stroke-width="2" fill-opacity="1" fill="#ffffff"></path><g id="SvgjsG1026"><text id="SvgjsText1027" font-family="微软雅黑" text-anchor="middle" font-size="12px" width="80px" fill="#323232" font-weight="400" align="middle" lineHeight="125%" anchor="middle" family="微软雅黑" size="12px" weight="400" font-style="" opacity="1" y="72.59090909090918" transform="rotate(0)"><tspan id="SvgjsTspan1028" dy="15" x="50"><tspan id="SvgjsTspan1029" style="text-decoration:;">survivor幸存区</tspan></tspan></text></g></g><g id="SvgjsG1030" transform="translate(630.4951923076923,129.91193181818159)"><path id="SvgjsPath1031" d="M 0 0L 533.4615384615385 0L 533.4615384615385 165.18181818181836L 0 165.18181818181836Z" stroke="rgba(50,50,50,1)" stroke-width="2" fill-opacity="1" fill="#ffffff"></path><g id="SvgjsG1032"><text id="SvgjsText1033" font-family="微软雅黑" text-anchor="middle" font-size="13px" width="514px" fill="#323232" font-weight="400" align="middle" lineHeight="125%" anchor="middle" family="微软雅黑" size="13px" weight="400" font-style="" opacity="1" y="71.96590909090918" transform="rotate(0)"><tspan id="SvgjsTspan1034" dy="16" x="267"><tspan id="SvgjsTspan1035" style="text-decoration:;">tenured(终身)</tspan></tspan></text></g></g><g id="SvgjsG1036" transform="matrix(6.123233995736766e-17,1,-1,6.123233995736766e-17,627.7329600941052,25.002846457741683)"><path id="SvgjsPath1037" d="M 103.63636363636357 0Q 94.63636363636357 0 94.63636363636357 9L 94.63636363636357 220.54545454545473Q 94.63636363636357 229.54545454545473 81.63636363636357 229.54545454545473Q 94.63636363636357 229.54545454545473 94.63636363636357 238.54545454545473L 94.63636363636357 450.09090909090946Q 94.63636363636357 459.09090909090946 103.63636363636357 459.09090909090946" stroke="rgba(50,50,50,1)" stroke-width="2" fill="none"></path><path id="SvgjsPath1038" d="M 0 0L 103.63636363636357 0L 103.63636363636357 459.09090909090946L 0 459.09090909090946Z" stroke="none" fill="none"></path><g id="SvgjsG1039"><text id="SvgjsText1040" font-family="微软雅黑" text-anchor="end" font-size="13px" width="77px" fill="#323232" font-weight="400" align="middle" lineHeight="125%" anchor="end" family="微软雅黑" size="13px" weight="400" font-style="" opacity="1" y="218.92045454545473" transform="rotate(0)"></text></g></g><g id="SvgjsG1041" transform="translate(302.27840909090827,33.18465909090904)"><path id="SvgjsPath1042" d="M 0 0L 174.90909090909088 0L 190.90909090909088 16L 190.90909090909088 54.54545454545453L 0 54.54545454545453L 0 0Z" stroke="none" fill-opacity="1" fill="#ffffaa"></path><path id="SvgjsPath1043" d="M 174.90909090909088 0L 174.90909090909088 16L 190.90909090909088 16Z" stroke="none" fill-opacity="1" fill="#cdcdcd"></path><path id="SvgjsPath1044" d="M 0 0L 174.90909090909088 0L 190.90909090909088 16L 190.90909090909088 54.54545454545453L 0 54.54545454545453L 0 0Z" stroke="none" fill="none"></path><g id="SvgjsG1045"><text id="SvgjsText1046" font-family="微软雅黑" text-anchor="middle" font-size="13px" width="171px" fill="#323232" font-weight="400" align="middle" lineHeight="125%" anchor="middle" family="微软雅黑" size="13px" weight="400" font-style="" opacity="1" y="16.647727272727266" transform="rotate(0)"><tspan id="SvgjsTspan1047" dy="16" x="95.5"><tspan id="SvgjsTspan1048" style="text-decoration:;">新生代</tspan></tspan></text></g></g><g id="SvgjsG1049" transform="matrix(6.123233995736766e-17,1,-1,6.123233995736766e-17,1163.187488902699,26.821028275923354)"><path id="SvgjsPath1050" d="M 101.81818181818187 0Q 92.81818181818187 0 92.81818181818187 9L 92.81818181818187 256.45454545454555Q 92.81818181818187 265.45454545454555 79.81818181818187 265.45454545454555Q 92.81818181818187 265.45454545454555 92.81818181818187 274.45454545454555L 92.81818181818187 521.9090909090911Q 92.81818181818187 530.9090909090911 101.81818181818187 530.9090909090911" stroke="rgba(50,50,50,1)" stroke-width="2" fill="none"></path><path id="SvgjsPath1051" d="M 0 0L 101.81818181818187 0L 101.81818181818187 530.9090909090911L 0 530.9090909090911Z" stroke="none" fill="none"></path><g id="SvgjsG1052"><text id="SvgjsText1053" font-family="微软雅黑" text-anchor="end" font-size="13px" width="75px" fill="#323232" font-weight="400" align="middle" lineHeight="125%" anchor="end" family="微软雅黑" size="13px" weight="400" font-style="" opacity="1" y="254.82954545454555" transform="rotate(0)"></text></g></g><g id="SvgjsG1054" transform="translate(801.7714160839171,41.366477272727195)"><path id="SvgjsPath1055" d="M 0 0L 174.90909090909088 0L 190.90909090909088 16L 190.90909090909088 54.54545454545453L 0 54.54545454545453L 0 0Z" stroke="none" fill-opacity="1" fill="#ffffaa"></path><path id="SvgjsPath1056" d="M 174.90909090909088 0L 174.90909090909088 16L 190.90909090909088 16Z" stroke="none" fill-opacity="1" fill="#cdcdcd"></path><path id="SvgjsPath1057" d="M 0 0L 174.90909090909088 0L 190.90909090909088 16L 190.90909090909088 54.54545454545453L 0 54.54545454545453L 0 0Z" stroke="none" fill="none"></path><g id="SvgjsG1058"><text id="SvgjsText1059" font-family="微软雅黑" text-anchor="middle" font-size="13px" width="171px" fill="#323232" font-weight="400" align="middle" lineHeight="125%" anchor="middle" family="微软雅黑" size="13px" weight="400" font-style="" opacity="1" y="16.647727272727266" transform="rotate(0)"><tspan id="SvgjsTspan1060" dy="16" x="95.5"><tspan id="SvgjsTspan1061" style="text-decoration:;">老年代</tspan></tspan></text></g></g><g id="SvgjsG1062" transform="translate(25.005681818181813,33.18465909090901)"><path id="SvgjsPath1063" d="M 0 0L 236.7272727272727 0L 252.7272727272727 16L 252.7272727272727 54.54545454545455L 0 54.54545454545455L 0 0Z" stroke="none" fill-opacity="1" fill="#ffffaa"></path><path id="SvgjsPath1064" d="M 236.7272727272727 0L 236.7272727272727 16L 252.7272727272727 16Z" stroke="none" fill-opacity="1" fill="#cdcdcd"></path><path id="SvgjsPath1065" d="M 0 0L 236.7272727272727 0L 252.7272727272727 16L 252.7272727272727 54.54545454545455L 0 54.54545454545455L 0 0Z" stroke="none" fill="none"></path><g id="SvgjsG1066"><text id="SvgjsText1067" font-family="微软雅黑" text-anchor="middle" font-size="13px" width="233px" fill="#323232" font-weight="400" align="middle" lineHeight="125%" anchor="middle" family="微软雅黑" size="13px" weight="400" font-style="" opacity="1" y="8.147727272727273" transform="rotate(0)"><tspan id="SvgjsTspan1068" dy="16" x="126.5"><tspan id="SvgjsTspan1069" style="text-decoration:;">由于新生代存活对象比较少,使用的是</tspan></tspan><tspan id="SvgjsTspan1070" dy="16" x="126.5"><tspan id="SvgjsTspan1071" style="text-decoration:;">copying算法整理对象</tspan></tspan></text></g></g><g id="SvgjsG1072" transform="translate(1024.0965909090894,41.36647727272717)"><path id="SvgjsPath1073" d="M 0 0L 259.90909090909236 0L 275.90909090909236 16L 275.90909090909236 54.54545454545456L 0 54.54545454545456L 0 0Z" stroke="none" fill-opacity="1" fill="#ffffaa"></path><path id="SvgjsPath1074" d="M 259.90909090909236 0L 259.90909090909236 16L 275.90909090909236 16Z" stroke="none" fill-opacity="1" fill="#cdcdcd"></path><path id="SvgjsPath1075" d="M 0 0L 259.90909090909236 0L 275.90909090909236 16L 275.90909090909236 54.54545454545456L 0 54.54545454545456L 0 0Z" stroke="none" fill="none"></path><g id="SvgjsG1076"><text id="SvgjsText1077" font-family="微软雅黑" text-anchor="middle" font-size="13px" width="256px" fill="#323232" font-weight="400" align="middle" lineHeight="125%" anchor="middle" family="微软雅黑" size="13px" weight="400" font-style="" opacity="1" y="8.14772727272728" transform="rotate(0)"><tspan id="SvgjsTspan1078" dy="16" x="138"><tspan id="SvgjsTspan1079" style="text-decoration:;">老年代存活对象较多,一般使用</tspan></tspan><tspan id="SvgjsTspan1080" dy="16" x="138"><tspan id="SvgjsTspan1081" style="text-decoration:;">Mark-sweep或Mark-Compact整理对象</tspan></tspan></text></g></g><g id="SvgjsG1082" transform="translate(236.8238636363636,240.00284090909088)"><path id="SvgjsPath1083" d="M 0 0L 120 0L 120 40L 0 40Z" stroke="none" fill="none"></path><g id="SvgjsG1084"><text id="SvgjsText1085" font-family="微软雅黑" text-anchor="middle" font-size="13px" width="120px" fill="#323232" font-weight="400" align="middle" lineHeight="125%" anchor="middle" family="微软雅黑" size="13px" weight="400" font-style="" opacity="1" y="9.375" transform="rotate(0)"><tspan id="SvgjsTspan1086" dy="16" x="60"><tspan id="SvgjsTspan1087" style="text-decoration:;">8</tspan></tspan></text></g></g><g id="SvgjsG1088" transform="translate(417.73295454545536,245.4573863636362)"><path id="SvgjsPath1089" d="M 0 0L 120 0L 120 40L 0 40Z" stroke="none" fill="none"></path><g id="SvgjsG1090"><text id="SvgjsText1091" font-family="微软雅黑" text-anchor="middle" font-size="13px" width="120px" fill="#323232" font-weight="400" align="middle" lineHeight="125%" anchor="middle" family="微软雅黑" size="13px" weight="400" font-style="" opacity="1" y="9.375" transform="rotate(0)"><tspan id="SvgjsTspan1092" dy="16" x="60"><tspan id="SvgjsTspan1093" style="text-decoration:;">1</tspan></tspan></text></g></g><g id="SvgjsG1094" transform="translate(517.7329545454558,247.2755681818179)"><path id="SvgjsPath1095" d="M 0 0L 120 0L 120 40L 0 40Z" stroke="none" fill="none"></path><g id="SvgjsG1096"><text id="SvgjsText1097" font-family="微软雅黑" text-anchor="middle" font-size="13px" width="120px" fill="#323232" font-weight="400" align="middle" lineHeight="125%" anchor="middle" family="微软雅黑" size="13px" weight="400" font-style="" opacity="1" y="9.375" transform="rotate(0)"><tspan id="SvgjsTspan1098" dy="16" x="60"><tspan id="SvgjsTspan1099" style="text-decoration:;">1</tspan></tspan></text></g></g></svg>