<svg id="SvgjsSvg1106" width="861" height="375" xmlns="http://www.w3.org/2000/svg" version="1.1" xmlns:xlink="http://www.w3.org/1999/xlink" xmlns:svgjs="http://svgjs.com/svgjs"><defs id="SvgjsDefs1107"><marker id="SvgjsMarker1122" markerWidth="14" markerHeight="10" refX="10" refY="5" viewBox="0 0 14 10" orient="auto" markerUnits="userSpaceOnUse" stroke-dasharray="0,0"><path id="SvgjsPath1123" d="M0,0 L14,5 L0,10 L0,0" fill="#323232" stroke="#323232" stroke-width="1"></path></marker><marker id="SvgjsMarker1132" markerWidth="14" markerHeight="10" refX="10" refY="5" viewBox="0 0 14 10" orient="auto" markerUnits="userSpaceOnUse" stroke-dasharray="0,0"><path id="SvgjsPath1133" d="M0,0 L14,5 L0,10 L0,0" fill="#323232" stroke="#323232" stroke-width="1"></path></marker><marker id="SvgjsMarker1152" markerWidth="14" markerHeight="10" refX="10" refY="5" viewBox="0 0 14 10" orient="auto" markerUnits="userSpaceOnUse" stroke-dasharray="0,0"><path id="SvgjsPath1153" d="M0,0 L14,5 L0,10 L0,0" fill="#323232" stroke="#323232" stroke-width="1"></path></marker><marker id="SvgjsMarker1174" markerWidth="14" markerHeight="10" refX="10" refY="5" viewBox="0 0 14 10" orient="auto" markerUnits="userSpaceOnUse" stroke-dasharray="0,0"><path id="SvgjsPath1175" d="M0,0 L14,5 L0,10 L0,0" fill="#323232" stroke="#323232" stroke-width="1"></path></marker><marker id="SvgjsMarker1198" markerWidth="14" markerHeight="10" refX="10" refY="5" viewBox="0 0 14 10" orient="auto" markerUnits="userSpaceOnUse" stroke-dasharray="0,0"><path id="SvgjsPath1199" d="M0,0 L14,5 L0,10 L0,0" fill="#323232" stroke="#323232" stroke-width="1"></path></marker></defs><g id="SvgjsG1108" transform="translate(180,28.75)"><path id="SvgjsPath1109" d="M 0 4Q 0 0 4 0L 153 0Q 157 0 157 4L 157 314.5Q 157 318.5 153 318.5L 4 318.5Q 0 318.5 0 314.5Z" stroke="rgba(50,50,50,1)" stroke-width="2" fill-opacity="1" fill="#ffffff"></path><g id="SvgjsG1110"><text id="SvgjsText1111" font-family="微软雅黑" text-anchor="middle" font-size="13px" width="137px" fill="#323232" font-weight="400" align="middle" lineHeight="125%" anchor="middle" family="微软雅黑" size="13px" weight="400" font-style="" opacity="1" y="148.625" transform="rotate(0)"></text></g></g><g id="SvgjsG1112" transform="translate(25,138)"><path id="SvgjsPath1113" d="M 0 0L 64 0L 80 16L 80 100L 0 100L 0 0Z" stroke="none" fill-opacity="1" fill="#ffffaa"></path><path id="SvgjsPath1114" d="M 64 0L 64 16L 80 16Z" stroke="none" fill-opacity="1" fill="#cdcdcd"></path><path id="SvgjsPath1115" d="M 0 0L 64 0L 80 16L 80 100L 0 100L 0 0Z" stroke="none" fill="none"></path><g id="SvgjsG1116"><text id="SvgjsText1117" font-family="微软雅黑" text-anchor="middle" font-size="13px" width="60px" fill="#323232" font-weight="400" align="middle" lineHeight="125%" anchor="middle" family="微软雅黑" size="13px" weight="400" font-style="" opacity="1" y="39.375" transform="rotate(0)"><tspan id="SvgjsTspan1118" dy="16" x="40"><tspan id="SvgjsTspan1119" style="text-decoration:;">普通对象</tspan></tspan></text></g></g><g id="SvgjsG1120"><path id="SvgjsPath1121" d="M105 188L142.5 188L142.5 188L176.4 188" stroke="#323232" stroke-width="2" fill="none" marker-end="url(#SvgjsMarker1122)"></path></g><g id="SvgjsG1124" transform="translate(181,28.25)"><path id="SvgjsPath1125" d="M 0 4Q 0 0 4 0L 151 0Q 155 0 155 4L 155 65Q 155 69 151 69L 4 69Q 0 69 0 65Z" stroke="rgba(50,50,50,1)" stroke-width="2" fill-opacity="1" fill="#ffffff"></path><g id="SvgjsG1126"><text id="SvgjsText1127" font-family="微软雅黑" text-anchor="middle" font-size="13px" width="135px" fill="#323232" font-weight="400" align="middle" lineHeight="125%" anchor="middle" family="微软雅黑" size="13px" weight="400" font-style="" opacity="1" y="23.875" transform="rotate(0)"><tspan id="SvgjsTspan1128" dy="16" x="77.5"><tspan id="SvgjsTspan1129" style="text-decoration:;">对象头</tspan></tspan></text></g></g><g id="SvgjsG1130"><path id="SvgjsPath1131" d="M337 62.75L395 62.75L395 62.75L451.4 62.75" stroke="#323232" stroke-width="2" fill="none" marker-end="url(#SvgjsMarker1132)"></path></g><g id="SvgjsG1134" transform="translate(454,25)"><path id="SvgjsPath1135" d="M 0 0L 366 0L 382 16L 382 75.5L 0 75.5L 0 0Z" stroke="none" fill-opacity="1" fill="#ffffaa"></path><path id="SvgjsPath1136" d="M 366 0L 366 16L 382 16Z" stroke="none" fill-opacity="1" fill="#cdcdcd"></path><path id="SvgjsPath1137" d="M 0 0L 366 0L 382 16L 382 75.5L 0 75.5L 0 0Z" stroke="none" fill="none"></path><g id="SvgjsG1138"><text id="SvgjsText1139" font-family="微软雅黑" text-anchor="start" font-size="13px" width="362px" fill="#323232" font-weight="400" align="top" lineHeight="125%" anchor="start" family="微软雅黑" size="13px" weight="400" font-style="" opacity="1" y="7.375" transform="rotate(0)"><tspan id="SvgjsTspan1140" dy="16" x="10"><tspan id="SvgjsTspan1141" style="text-decoration:;">在JVM中称之为Markword占8个字节</tspan></tspan><tspan id="SvgjsTspan1142" dy="16" x="10"><tspan id="SvgjsTspan1143" style="text-decoration:;">一般包含自己被GC了多少次</tspan></tspan></text></g></g><g id="SvgjsG1144" transform="translate(180,100.5)"><path id="SvgjsPath1145" d="M 0 4Q 0 0 4 0L 153 0Q 157 0 157 4L 157 77Q 157 81 153 81L 4 81Q 0 81 0 77Z" stroke="rgba(50,50,50,1)" stroke-width="2" fill-opacity="1" fill="#ffffff"></path><g id="SvgjsG1146"><text id="SvgjsText1147" font-family="微软雅黑" text-anchor="middle" font-size="13px" width="137px" fill="#323232" font-weight="400" align="middle" lineHeight="125%" anchor="middle" family="微软雅黑" size="13px" weight="400" font-style="" opacity="1" y="29.875" transform="rotate(0)"><tspan id="SvgjsTspan1148" dy="16" x="78.5"><tspan id="SvgjsTspan1149" style="text-decoration:;">ClassPointer</tspan></tspan></text></g></g><g id="SvgjsG1150"><path id="SvgjsPath1151" d="M338 141L396.5 141L396.5 141L453.4 141" stroke="#323232" stroke-width="2" fill="none" marker-end="url(#SvgjsMarker1152)"></path></g><g id="SvgjsG1154" transform="translate(456,107)"><path id="SvgjsPath1155" d="M 0 0L 362 0L 378 16L 378 68L 0 68L 0 0Z" stroke="none" fill-opacity="1" fill="#ffffaa"></path><path id="SvgjsPath1156" d="M 362 0L 362 16L 378 16Z" stroke="none" fill-opacity="1" fill="#cdcdcd"></path><path id="SvgjsPath1157" d="M 0 0L 362 0L 378 16L 378 68L 0 68L 0 0Z" stroke="none" fill="none"></path><g id="SvgjsG1158"><text id="SvgjsText1159" font-family="微软雅黑" text-anchor="start" font-size="13px" width="358px" fill="#323232" font-weight="400" align="top" lineHeight="125%" anchor="start" family="微软雅黑" size="13px" weight="400" font-style="" opacity="1" y="7.375" transform="rotate(0)"><tspan id="SvgjsTspan1160" dy="16" x="10"><tspan id="SvgjsTspan1161" style="text-decoration:;">指向(当前类.class)</tspan></tspan><tspan id="SvgjsTspan1162" dy="16" x="10"><tspan id="SvgjsTspan1163" style="text-decoration:;">-XX:+UseCompressedClassPointers开启为4个字节,不开启</tspan></tspan><tspan id="SvgjsTspan1164" dy="16" x="10"><tspan id="SvgjsTspan1165" style="text-decoration:;">为8个字节。</tspan></tspan></text></g></g><g id="SvgjsG1166" transform="translate(180,184.75)"><path id="SvgjsPath1167" d="M 0 4Q 0 0 4 0L 153 0Q 157 0 157 4L 157 77Q 157 81 153 81L 4 81Q 0 81 0 77Z" stroke="rgba(50,50,50,1)" stroke-width="2" fill-opacity="1" fill="#ffffff"></path><g id="SvgjsG1168"><text id="SvgjsText1169" font-family="微软雅黑" text-anchor="middle" font-size="13px" width="137px" fill="#323232" font-weight="400" align="middle" lineHeight="125%" anchor="middle" family="微软雅黑" size="13px" weight="400" font-style="" opacity="1" y="29.875" transform="rotate(0)"><tspan id="SvgjsTspan1170" dy="16" x="78.5"><tspan id="SvgjsTspan1171" style="text-decoration:;">实例数据</tspan></tspan></text></g></g><g id="SvgjsG1172"><path id="SvgjsPath1173" d="M337 225.25L396.5 225.25L396.5 225.25L453.4 225.25" stroke="#323232" stroke-width="2" fill="none" marker-end="url(#SvgjsMarker1174)"></path></g><g id="SvgjsG1176" transform="translate(456,186.375)"><path id="SvgjsPath1177" d="M 0 0L 362 0L 378 16L 378 77.75L 0 77.75L 0 0Z" stroke="none" fill-opacity="1" fill="#ffffaa"></path><path id="SvgjsPath1178" d="M 362 0L 362 16L 378 16Z" stroke="none" fill-opacity="1" fill="#cdcdcd"></path><path id="SvgjsPath1179" d="M 0 0L 362 0L 378 16L 378 77.75L 0 77.75L 0 0Z" stroke="none" fill="none"></path><g id="SvgjsG1180"><text id="SvgjsText1181" font-family="微软雅黑" text-anchor="start" font-size="13px" width="358px" fill="#323232" font-weight="400" align="top" lineHeight="125%" anchor="start" family="微软雅黑" size="13px" weight="400" font-style="" opacity="1" y="7.375" transform="rotate(0)"><tspan id="SvgjsTspan1182" dy="16" x="10"><tspan id="SvgjsTspan1183" style="text-decoration:;">指的是当前类的成员变量大小。</tspan></tspan><tspan id="SvgjsTspan1184" dy="16" x="10"><tspan id="SvgjsTspan1185" style="text-decoration:;">引用数据类型大小:</tspan></tspan><tspan id="SvgjsTspan1186" dy="16" x="10"><tspan id="SvgjsTspan1187" style="text-decoration:;">-XX:+UseCompressedOops开启为4个字节,不开启为8个字</tspan></tspan><tspan id="SvgjsTspan1188" dy="16" x="10"><tspan id="SvgjsTspan1189" style="text-decoration:;">节。 </tspan></tspan></text></g></g><g id="SvgjsG1190" transform="translate(180,269)"><path id="SvgjsPath1191" d="M 0 4Q 0 0 4 0L 153 0Q 157 0 157 4L 157 77Q 157 81 153 81L 4 81Q 0 81 0 77Z" stroke="rgba(50,50,50,1)" stroke-width="2" fill-opacity="1" fill="#ffffff"></path><g id="SvgjsG1192"><text id="SvgjsText1193" font-family="微软雅黑" text-anchor="middle" font-size="13px" width="137px" fill="#323232" font-weight="400" align="middle" lineHeight="125%" anchor="middle" family="微软雅黑" size="13px" weight="400" font-style="" opacity="1" y="29.875" transform="rotate(0)"><tspan id="SvgjsTspan1194" dy="16" x="78.5"><tspan id="SvgjsTspan1195" style="text-decoration:;">padding对齐</tspan></tspan></text></g></g><g id="SvgjsG1196"><path id="SvgjsPath1197" d="M337 309.5L396.5 309.5L396.5 309.5L453.4 309.5" stroke="#323232" stroke-width="2" fill="none" marker-end="url(#SvgjsMarker1198)"></path></g><g id="SvgjsG1200" transform="translate(456,275.5)"><path id="SvgjsPath1201" d="M 0 0L 362 0L 378 16L 378 68L 0 68L 0 0Z" stroke="none" fill-opacity="1" fill="#ffffaa"></path><path id="SvgjsPath1202" d="M 362 0L 362 16L 378 16Z" stroke="none" fill-opacity="1" fill="#cdcdcd"></path><path id="SvgjsPath1203" d="M 0 0L 362 0L 378 16L 378 68L 0 68L 0 0Z" stroke="none" fill="none"></path><g id="SvgjsG1204"><text id="SvgjsText1205" font-family="微软雅黑" text-anchor="start" font-size="13px" width="358px" fill="#323232" font-weight="400" align="top" lineHeight="125%" anchor="start" family="微软雅黑" size="13px" weight="400" font-style="" opacity="1" y="7.375" transform="rotate(0)"><tspan id="SvgjsTspan1206" dy="16" x="10"><tspan id="SvgjsTspan1207" style="text-decoration:;">大小一般8的倍数。</tspan></tspan></text></g></g></svg>