<svg id="SvgjsSvg1198" width="973.5" height="562" xmlns="http://www.w3.org/2000/svg" version="1.1" xmlns:xlink="http://www.w3.org/1999/xlink" xmlns:svgjs="http://svgjs.com/svgjs"><defs id="SvgjsDefs1199"><marker id="SvgjsMarker1242" markerWidth="14" markerHeight="10" refX="10" refY="5" viewBox="0 0 14 10" orient="auto" markerUnits="userSpaceOnUse" stroke-dasharray="0,0"><path id="SvgjsPath1243" d="M0,0 L14,5 L0,10 L0,0" fill="#323232" stroke="#323232" stroke-width="1"></path></marker><marker id="SvgjsMarker1252" markerWidth="14" markerHeight="10" refX="10" refY="5" viewBox="0 0 14 10" orient="auto" markerUnits="userSpaceOnUse" stroke-dasharray="0,0"><path id="SvgjsPath1253" d="M0,0 L14,5 L0,10 L0,0" fill="#323232" stroke="#323232" stroke-width="1"></path></marker></defs><g id="SvgjsG1200" transform="translate(25,25)"><path id="SvgjsPath1201" d="M 0 4Q 0 0 4 0L 183 0Q 187 0 187 4L 187 320Q 187 324 183 324L 4 324Q 0 324 0 320Z" stroke="rgba(50,50,50,1)" stroke-width="2" fill-opacity="1" fill="#ffffff"></path><g id="SvgjsG1202"><text id="SvgjsText1203" font-family="微软雅黑" text-anchor="middle" font-size="13px" width="167px" fill="#323232" font-weight="400" align="middle" lineHeight="125%" anchor="middle" family="微软雅黑" size="13px" weight="400" font-style="" opacity="1" y="151.375" transform="rotate(0)"></text></g></g><g id="SvgjsG1204" transform="translate(47,35)"><path id="SvgjsPath1205" d="M 0 0L 131 0L 147 16L 147 35L 0 35L 0 0Z" stroke="none" fill-opacity="1" fill="#ffffaa"></path><path id="SvgjsPath1206" d="M 131 0L 131 16L 147 16Z" stroke="none" fill-opacity="1" fill="#cdcdcd"></path><path id="SvgjsPath1207" d="M 0 0L 131 0L 147 16L 147 35L 0 35L 0 0Z" stroke="none" fill="none"></path><g id="SvgjsG1208"><text id="SvgjsText1209" font-family="微软雅黑" text-anchor="middle" font-size="13px" width="127px" fill="#323232" font-weight="400" align="middle" lineHeight="125%" anchor="middle" family="微软雅黑" size="13px" weight="400" font-style="" opacity="1" y="6.875" transform="rotate(0)"><tspan id="SvgjsTspan1210" dy="16" x="73.5"><tspan id="SvgjsTspan1211" style="text-decoration:;">静态常量池</tspan></tspan></text></g></g><g id="SvgjsG1212" transform="translate(56.25,92)"><path id="SvgjsPath1213" d="M 0 0L 128.5 0L 128.5 54L 0 54Z" stroke="rgba(50,50,50,1)" stroke-width="2" fill-opacity="1" fill="#ffffff"></path><g id="SvgjsG1214"><text id="SvgjsText1215" font-family="微软雅黑" text-anchor="middle" font-size="13px" width="109px" fill="#323232" font-weight="400" align="middle" lineHeight="125%" anchor="middle" family="微软雅黑" size="13px" weight="400" font-style="" opacity="1" y="16.375" transform="rotate(0)"><tspan id="SvgjsTspan1216" dy="16" x="64.5"><tspan id="SvgjsTspan1217" style="text-decoration:;">符号引用</tspan></tspan></text></g></g><g id="SvgjsG1218" transform="translate(56.25,168)"><path id="SvgjsPath1219" d="M 0 0L 128.5 0L 128.5 157L 0 157Z" stroke="rgba(50,50,50,1)" stroke-width="2" fill-opacity="1" fill="#ffffff"></path><g id="SvgjsG1220"><text id="SvgjsText1221" font-family="微软雅黑" text-anchor="middle" font-size="13px" width="109px" fill="#323232" font-weight="400" align="middle" lineHeight="125%" anchor="middle" family="微软雅黑" size="13px" weight="400" font-style="" opacity="1" y="67.875" transform="rotate(0)"></text></g></g><g id="SvgjsG1222" transform="translate(56.25,168)"><path id="SvgjsPath1223" d="M 0 4Q 0 0 4 0L 124.5 0Q 128.5 0 128.5 4L 128.5 34Q 128.5 38 124.5 38L 4 38Q 0 38 0 34Z" stroke="rgba(50,50,50,1)" stroke-width="2" fill-opacity="1" fill="#ffffff"></path><g id="SvgjsG1224"><text id="SvgjsText1225" font-family="微软雅黑" text-anchor="middle" font-size="13px" width="109px" fill="#323232" font-weight="400" align="middle" lineHeight="125%" anchor="middle" family="微软雅黑" size="13px" weight="400" font-style="" opacity="1" y="8.375" transform="rotate(0)"><tspan id="SvgjsTspan1226" dy="16" x="64.5"><tspan id="SvgjsTspan1227" style="text-decoration:;">字面量</tspan></tspan></text></g></g><g id="SvgjsG1228" transform="translate(56.25,234)"><path id="SvgjsPath1229" d="M 0 4Q 0 0 4 0L 124.5 0Q 128.5 0 128.5 4L 128.5 38Q 128.5 42 124.5 42L 4 42Q 0 42 0 38Z" stroke="rgba(50,50,50,1)" stroke-width="2" fill-opacity="1" fill="#ffffff"></path><g id="SvgjsG1230"><text id="SvgjsText1231" font-family="微软雅黑" text-anchor="middle" font-size="13px" width="109px" fill="#323232" font-weight="400" align="middle" lineHeight="125%" anchor="middle" family="微软雅黑" size="13px" weight="400" font-style="" opacity="1" y="10.375" transform="rotate(0)"><tspan id="SvgjsTspan1232" dy="16" x="64.5"><tspan id="SvgjsTspan1233" style="text-decoration:;">数值型</tspan></tspan></text></g></g><g id="SvgjsG1234" transform="translate(56.25,286)"><path id="SvgjsPath1235" d="M 0 4Q 0 0 4 0L 124.5 0Q 128.5 0 128.5 4L 128.5 38Q 128.5 42 124.5 42L 4 42Q 0 42 0 38Z" stroke="rgba(50,50,50,1)" stroke-width="2" fill-opacity="1" fill="#ffffff"></path><g id="SvgjsG1236"><text id="SvgjsText1237" font-family="微软雅黑" text-anchor="middle" font-size="13px" width="109px" fill="#323232" font-weight="400" align="middle" lineHeight="125%" anchor="middle" family="微软雅黑" size="13px" weight="400" font-style="" opacity="1" y="10.375" transform="rotate(0)"><tspan id="SvgjsTspan1238" dy="16" x="64.5"><tspan id="SvgjsTspan1239" style="text-decoration:;">字符型</tspan></tspan></text></g></g><g id="SvgjsG1240"><path id="SvgjsPath1241" d="M213 187L279 187L279 187L342.4 187" stroke="#323232" stroke-width="2" fill="none" marker-end="url(#SvgjsMarker1242)"></path></g><g id="SvgjsG1244" transform="translate(346,153)"><path id="SvgjsPath1245" d="M 0 4Q 0 0 4 0L 128 0Q 132 0 132 4L 132 64Q 132 68 128 68L 4 68Q 0 68 0 64Z" stroke="rgba(50,50,50,1)" stroke-width="2" fill-opacity="1" fill="#ffffff"></path><g id="SvgjsG1246"><text id="SvgjsText1247" font-family="微软雅黑" text-anchor="middle" font-size="13px" width="112px" fill="#323232" font-weight="400" align="middle" lineHeight="125%" anchor="middle" family="微软雅黑" size="13px" weight="400" font-style="" opacity="1" y="23.375" transform="rotate(0)"><tspan id="SvgjsTspan1248" dy="16" x="66"><tspan id="SvgjsTspan1249" style="text-decoration:;">内存中进行解析</tspan></tspan></text></g></g><g id="SvgjsG1250"><path id="SvgjsPath1251" d="M479 187L569.25 187L569.25 187L656.9 187" stroke="#323232" stroke-width="2" fill="none" marker-end="url(#SvgjsMarker1252)"></path></g><g id="SvgjsG1254" transform="translate(660.5,38)"><path id="SvgjsPath1255" d="M 0 4Q 0 0 4 0L 179 0Q 183 0 183 4L 183 294Q 183 298 179 298L 4 298Q 0 298 0 294Z" stroke="rgba(50,50,50,1)" stroke-width="2" fill-opacity="1" fill="#ffffff"></path><g id="SvgjsG1256"><text id="SvgjsText1257" font-family="微软雅黑" text-anchor="middle" font-size="13px" width="163px" fill="#323232" font-weight="400" align="middle" lineHeight="125%" anchor="middle" family="微软雅黑" size="13px" weight="400" font-style="" opacity="1" y="138.375" transform="rotate(0)"></text></g></g><g id="SvgjsG1258" transform="translate(680,47)"><path id="SvgjsPath1259" d="M 0 0L 131 0L 147 16L 147 35L 0 35L 0 0Z" stroke="none" fill-opacity="1" fill="#ffffaa"></path><path id="SvgjsPath1260" d="M 131 0L 131 16L 147 16Z" stroke="none" fill-opacity="1" fill="#cdcdcd"></path><path id="SvgjsPath1261" d="M 0 0L 131 0L 147 16L 147 35L 0 35L 0 0Z" stroke="none" fill="none"></path><g id="SvgjsG1262"><text id="SvgjsText1263" font-family="微软雅黑" text-anchor="middle" font-size="13px" width="127px" fill="#323232" font-weight="400" align="middle" lineHeight="125%" anchor="middle" family="微软雅黑" size="13px" weight="400" font-style="" opacity="1" y="6.875" transform="rotate(0)"><tspan id="SvgjsTspan1264" dy="16" x="73.5"><tspan id="SvgjsTspan1265" style="text-decoration:;">运行时常量池</tspan></tspan></text></g></g><g id="SvgjsG1266" transform="translate(689.25,108)"><path id="SvgjsPath1267" d="M 0 0L 128.5 0L 128.5 54L 0 54Z" stroke="rgba(50,50,50,1)" stroke-width="2" fill-opacity="1" fill="#ffffff"></path><g id="SvgjsG1268"><text id="SvgjsText1269" font-family="微软雅黑" text-anchor="middle" font-size="13px" width="109px" fill="#323232" font-weight="400" align="middle" lineHeight="125%" anchor="middle" family="微软雅黑" size="13px" weight="400" font-style="" opacity="1" y="16.375" transform="rotate(0)"><tspan id="SvgjsTspan1270" dy="16" x="64.5"><tspan id="SvgjsTspan1271" style="text-decoration:;">直接引用</tspan></tspan></text></g></g><g id="SvgjsG1272" transform="translate(689.25,188)"><path id="SvgjsPath1273" d="M 0 0L 128.5 0L 128.5 33L 0 33Z" stroke="rgba(50,50,50,1)" stroke-width="2" fill-opacity="1" fill="#ffffff"></path><g id="SvgjsG1274"><text id="SvgjsText1275" font-family="微软雅黑" text-anchor="middle" font-size="13px" width="109px" fill="#323232" font-weight="400" align="middle" lineHeight="125%" anchor="middle" family="微软雅黑" size="13px" weight="400" font-style="" opacity="1" y="5.875" transform="rotate(0)"><tspan id="SvgjsTspan1276" dy="16" x="64.5"><tspan id="SvgjsTspan1277" style="text-decoration:;">字面量</tspan></tspan></text></g></g><g id="SvgjsG1278" transform="translate(689.25,221)"><path id="SvgjsPath1279" d="M 0 4Q 0 0 4 0L 124.5 0Q 128.5 0 128.5 4L 128.5 69Q 128.5 73 124.5 73L 4 73Q 0 73 0 69Z" stroke="rgba(50,50,50,1)" stroke-width="2" fill-opacity="1" fill="#ffffff"></path><g id="SvgjsG1280"><text id="SvgjsText1281" font-family="微软雅黑" text-anchor="middle" font-size="13px" width="109px" fill="#323232" font-weight="400" align="middle" lineHeight="125%" anchor="middle" family="微软雅黑" size="13px" weight="400" font-style="" opacity="1" y="25.875" transform="rotate(0)"><tspan id="SvgjsTspan1282" dy="16" x="64.5"><tspan id="SvgjsTspan1283" style="text-decoration:;">数值型</tspan></tspan></text></g></g><g id="SvgjsG1284" transform="translate(565.5,387)"><path id="SvgjsPath1285" d="M 0 4Q 0 0 4 0L 379 0Q 383 0 383 4L 383 145.9905660377358Q 383 149.9905660377358 379 149.9905660377358L 4 149.9905660377358Q 0 149.9905660377358 0 145.9905660377358Z" stroke="rgba(50,50,50,1)" stroke-width="2" fill-opacity="1" fill="#ffffff"></path><g id="SvgjsG1286"><text id="SvgjsText1287" font-family="微软雅黑" text-anchor="middle" font-size="13px" width="363px" fill="#323232" font-weight="400" align="middle" lineHeight="125%" anchor="middle" family="微软雅黑" size="13px" weight="400" font-style="" opacity="1" y="64.3702830188679" transform="rotate(0)"></text></g></g><g id="SvgjsG1288" transform="translate(660.5,394)"><path id="SvgjsPath1289" d="M 0 0L 155 0L 171 16L 171 20L 0 20L 0 0Z" stroke="none" fill-opacity="1" fill="#ffffaa"></path><path id="SvgjsPath1290" d="M 155 0L 155 16L 171 16Z" stroke="none" fill-opacity="1" fill="#cdcdcd"></path><path id="SvgjsPath1291" d="M 0 0L 155 0L 171 16L 171 20L 0 20L 0 0Z" stroke="none" fill="none"></path><g id="SvgjsG1292"><text id="SvgjsText1293" font-family="微软雅黑" text-anchor="middle" font-size="13px" width="151px" fill="#323232" font-weight="400" align="middle" lineHeight="125%" anchor="middle" family="微软雅黑" size="13px" weight="400" font-style="" opacity="1" y="-0.625" transform="rotate(0)"><tspan id="SvgjsTspan1294" dy="16" x="85.5"><tspan id="SvgjsTspan1295" style="text-decoration:;">字符串常量池</tspan></tspan></text></g></g><g id="SvgjsG1296" transform="translate(687.75,426)"><path id="SvgjsPath1297" d="M 0 0L 128.5 0L 128.5 33L 0 33Z" stroke="rgba(50,50,50,1)" stroke-width="2" fill-opacity="1" fill="#ffffff"></path><g id="SvgjsG1298"><text id="SvgjsText1299" font-family="微软雅黑" text-anchor="middle" font-size="13px" width="109px" fill="#323232" font-weight="400" align="middle" lineHeight="125%" anchor="middle" family="微软雅黑" size="13px" weight="400" font-style="" opacity="1" y="5.875" transform="rotate(0)"><tspan id="SvgjsTspan1300" dy="16" x="64.5"><tspan id="SvgjsTspan1301" style="text-decoration:;">字面量</tspan></tspan></text></g></g><g id="SvgjsG1302" transform="translate(687.75,459)"><path id="SvgjsPath1303" d="M 0 4Q 0 0 4 0L 124.5 0Q 128.5 0 128.5 4L 128.5 69Q 128.5 73 124.5 73L 4 73Q 0 73 0 69Z" stroke="rgba(50,50,50,1)" stroke-width="2" fill-opacity="1" fill="#ffffff"></path><g id="SvgjsG1304"><text id="SvgjsText1305" font-family="微软雅黑" text-anchor="middle" font-size="13px" width="109px" fill="#323232" font-weight="400" align="middle" lineHeight="125%" anchor="middle" family="微软雅黑" size="13px" weight="400" font-style="" opacity="1" y="25.875" transform="rotate(0)"><tspan id="SvgjsTspan1306" dy="16" x="64.5"><tspan id="SvgjsTspan1307" style="text-decoration:;">字符型</tspan></tspan></text></g></g></svg>