<svg id="SvgjsSvg1006" width="874" height="444.5" xmlns="http://www.w3.org/2000/svg" version="1.1" xmlns:xlink="http://www.w3.org/1999/xlink" xmlns:svgjs="http://svgjs.com/svgjs"><defs id="SvgjsDefs1007"><marker id="SvgjsMarker1034" markerWidth="14" markerHeight="10" refX="10" refY="5" viewBox="0 0 14 10" orient="auto" markerUnits="userSpaceOnUse" stroke-dasharray="0,0"><path id="SvgjsPath1035" d="M0,0 L14,5 L0,10 L0,0" fill="#323232" stroke="#323232" stroke-width="1"></path></marker><marker id="SvgjsMarker1038" markerWidth="14" markerHeight="10" refX="10" refY="5" viewBox="0 0 14 10" orient="auto" markerUnits="userSpaceOnUse" stroke-dasharray="0,0"><path id="SvgjsPath1039" d="M0,0 L14,5 L0,10 L0,0" fill="#323232" stroke="#323232" stroke-width="1"></path></marker><marker id="SvgjsMarker1042" markerWidth="14" markerHeight="10" refX="10" refY="5" viewBox="0 0 14 10" orient="auto" markerUnits="userSpaceOnUse" stroke-dasharray="0,0"><path id="SvgjsPath1043" d="M0,0 L14,5 L0,10 L0,0" fill="#323232" stroke="#323232" stroke-width="1"></path></marker></defs><g id="SvgjsG1008" transform="translate(25,121.5)"><path id="SvgjsPath1009" d="M 0 4Q 0 0 4 0L 96 0Q 100 0 100 4L 100 66Q 100 70 96 70L 4 70Q 0 70 0 66Z" stroke="rgba(50,50,50,1)" stroke-width="2" fill-opacity="1" fill="#ffffff"></path><g id="SvgjsG1010"><text id="SvgjsText1011" font-family="微软雅黑" text-anchor="middle" font-size="13px" width="80px" fill="#323232" font-weight="400" align="middle" lineHeight="125%" anchor="middle" family="微软雅黑" size="13px" weight="400" font-style="" opacity="1" y="24.375" transform="rotate(0)"><tspan id="SvgjsTspan1012" dy="16" x="50"><tspan id="SvgjsTspan1013" style="text-decoration:;">对象一</tspan></tspan></text></g></g><g id="SvgjsG1014" transform="translate(25,235.5)"><path id="SvgjsPath1015" d="M 0 4Q 0 0 4 0L 96 0Q 100 0 100 4L 100 66Q 100 70 96 70L 4 70Q 0 70 0 66Z" stroke="rgba(50,50,50,1)" stroke-width="2" fill-opacity="1" fill="#ffffff"></path><g id="SvgjsG1016"><text id="SvgjsText1017" font-family="微软雅黑" text-anchor="middle" font-size="13px" width="80px" fill="#323232" font-weight="400" align="middle" lineHeight="125%" anchor="middle" family="微软雅黑" size="13px" weight="400" font-style="" opacity="1" y="24.375" transform="rotate(0)"><tspan id="SvgjsTspan1018" dy="16" x="50"><tspan id="SvgjsTspan1019" style="text-decoration:;">对象二</tspan></tspan></text></g></g><g id="SvgjsG1020" transform="translate(25,349.5)"><path id="SvgjsPath1021" d="M 0 4Q 0 0 4 0L 96 0Q 100 0 100 4L 100 66Q 100 70 96 70L 4 70Q 0 70 0 66Z" stroke="rgba(50,50,50,1)" stroke-width="2" fill-opacity="1" fill="#ffffff"></path><g id="SvgjsG1022"><text id="SvgjsText1023" font-family="微软雅黑" text-anchor="middle" font-size="13px" width="80px" fill="#323232" font-weight="400" align="middle" lineHeight="125%" anchor="middle" family="微软雅黑" size="13px" weight="400" font-style="" opacity="1" y="24.375" transform="rotate(0)"><tspan id="SvgjsTspan1024" dy="16" x="50"><tspan id="SvgjsTspan1025" style="text-decoration:;">对象三</tspan></tspan></text></g></g><g id="SvgjsG1026" transform="translate(448,235.5)"><path id="SvgjsPath1027" d="M 0 4Q 0 0 4 0L 96 0Q 100 0 100 4L 100 66Q 100 70 96 70L 4 70Q 0 70 0 66Z" stroke="rgba(50,50,50,1)" stroke-width="2" fill-opacity="1" fill="#ffffff"></path><g id="SvgjsG1028"><text id="SvgjsText1029" font-family="微软雅黑" text-anchor="middle" font-size="13px" width="80px" fill="#323232" font-weight="400" align="middle" lineHeight="125%" anchor="middle" family="微软雅黑" size="13px" weight="400" font-style="" opacity="1" y="24.375" transform="rotate(0)"><tspan id="SvgjsTspan1030" dy="16" x="50"><tspan id="SvgjsTspan1031" style="text-decoration:;">对象四 </tspan></tspan></text></g></g><g id="SvgjsG1032"><path id="SvgjsPath1033" d="M126 156.5L498 156.5L498 231.89999999999998" stroke="#323232" stroke-width="2" fill="none" marker-end="url(#SvgjsMarker1034)"></path></g><g id="SvgjsG1036"><path id="SvgjsPath1037" d="M126 270.5L286.5 270.5L286.5 270.5L444.4 270.5" stroke="#323232" stroke-width="2" fill="none" marker-end="url(#SvgjsMarker1038)"></path></g><g id="SvgjsG1040"><path id="SvgjsPath1041" d="M126 384.5L498 384.5L498 309.1" stroke="#323232" stroke-width="2" fill="none" marker-end="url(#SvgjsMarker1042)"></path></g><g id="SvgjsG1044" transform="translate(601,220.5)"><path id="SvgjsPath1045" d="M 0 0L 232 0L 248 16L 248 100L 0 100L 0 0Z" stroke="none" fill-opacity="1" fill="#ffffaa"></path><path id="SvgjsPath1046" d="M 232 0L 232 16L 248 16Z" stroke="none" fill-opacity="1" fill="#cdcdcd"></path><path id="SvgjsPath1047" d="M 0 0L 232 0L 248 16L 248 100L 0 100L 0 0Z" stroke="none" fill="none"></path><g id="SvgjsG1048"><text id="SvgjsText1049" font-family="微软雅黑" text-anchor="middle" font-size="13px" width="228px" fill="#323232" font-weight="400" align="middle" lineHeight="125%" anchor="middle" family="微软雅黑" size="13px" weight="400" font-style="" opacity="1" y="30.875" transform="rotate(0)"><tspan id="SvgjsTspan1050" dy="16" x="124"><tspan id="SvgjsTspan1051" style="text-decoration:;">记录自己被引用的个数</tspan></tspan><tspan id="SvgjsTspan1052" dy="16" x="124"><tspan id="SvgjsTspan1053" style="text-decoration:;">如果自己没有被其他对象引用,GC回收</tspan></tspan></text></g></g><g id="SvgjsG1054" transform="translate(25,25)"><path id="SvgjsPath1055" d="M 0 0L 510 0L 526 16L 526 68L 0 68L 0 0Z" stroke="none" fill-opacity="1" fill="#ffffaa"></path><path id="SvgjsPath1056" d="M 510 0L 510 16L 526 16Z" stroke="none" fill-opacity="1" fill="#cdcdcd"></path><path id="SvgjsPath1057" d="M 0 0L 510 0L 526 16L 526 68L 0 68L 0 0Z" stroke="none" fill="none"></path><g id="SvgjsG1058"><text id="SvgjsText1059" font-family="微软雅黑" text-anchor="middle" font-size="13px" width="506px" fill="#323232" font-weight="400" align="middle" lineHeight="125%" anchor="middle" family="微软雅黑" size="13px" weight="400" font-style="" opacity="1" y="23.375" transform="rotate(0)"><tspan id="SvgjsTspan1060" dy="16" x="263"><tspan id="SvgjsTspan1061" style="text-decoration:;">引用计数</tspan></tspan></text></g></g></svg>