<svg id="SvgjsSvg1006" width="749" height="480" xmlns="http://www.w3.org/2000/svg" version="1.1" xmlns:xlink="http://www.w3.org/1999/xlink" xmlns:svgjs="http://svgjs.com/svgjs"><defs id="SvgjsDefs1007"><marker id="SvgjsMarker1022" markerWidth="14" markerHeight="10" refX="10" refY="5" viewBox="0 0 14 10" orient="auto" markerUnits="userSpaceOnUse" stroke-dasharray="0,0"><path id="SvgjsPath1023" d="M0,0 L14,5 L0,10 L0,0" fill="#323232" stroke="#323232" stroke-width="1"></path></marker><marker id="SvgjsMarker1030" markerWidth="14" markerHeight="10" refX="10" refY="5" viewBox="0 0 14 10" orient="auto" markerUnits="userSpaceOnUse" stroke-dasharray="0,0"><path id="SvgjsPath1031" d="M0,0 L14,5 L0,10 L0,0" fill="#323232" stroke="#323232" stroke-width="1"></path></marker><marker id="SvgjsMarker1038" markerWidth="14" markerHeight="10" refX="10" refY="5" viewBox="0 0 14 10" orient="auto" markerUnits="userSpaceOnUse" stroke-dasharray="0,0"><path id="SvgjsPath1039" d="M0,0 L14,5 L0,10 L0,0" fill="#323232" stroke="#323232" stroke-width="1"></path></marker><marker id="SvgjsMarker1046" markerWidth="14" markerHeight="10" refX="10" refY="5" viewBox="0 0 14 10" orient="auto" markerUnits="userSpaceOnUse" stroke-dasharray="0,0"><path id="SvgjsPath1047" d="M0,0 L14,5 L0,10 L0,0" fill="#323232" stroke="#323232" stroke-width="1"></path></marker><marker id="SvgjsMarker1054" markerWidth="14" markerHeight="10" refX="10" refY="5" viewBox="0 0 14 10" orient="auto" markerUnits="userSpaceOnUse" stroke-dasharray="0,0"><path id="SvgjsPath1055" d="M0,0 L14,5 L0,10 L0,0" fill="#323232" stroke="#323232" stroke-width="1"></path></marker><marker id="SvgjsMarker1062" markerWidth="14" markerHeight="10" refX="10" refY="5" viewBox="0 0 14 10" orient="auto" markerUnits="userSpaceOnUse" stroke-dasharray="0,0"><path id="SvgjsPath1063" d="M0,0 L14,5 L0,10 L0,0" fill="#323232" stroke="#323232" stroke-width="1"></path></marker></defs><g id="SvgjsG1008" transform="translate(25,93)"><path id="SvgjsPath1009" d="M 0 4Q 0 0 4 0L 126 0Q 130 0 130 4L 130 358Q 130 362 126 362L 4 362Q 0 362 0 358Z" stroke="rgba(50,50,50,1)" stroke-width="2" fill-opacity="1" fill="#ffffff"></path><g id="SvgjsG1010"><text id="SvgjsText1011" font-family="微软雅黑" text-anchor="middle" font-size="13px" width="110px" fill="#323232" font-weight="400" align="middle" lineHeight="125%" anchor="middle" family="微软雅黑" size="13px" weight="400" font-style="" opacity="1" y="170.375" transform="rotate(0)"><tspan id="SvgjsTspan1012" dy="16" x="65"><tspan id="SvgjsTspan1013" style="text-decoration:;">cpu</tspan></tspan></text></g></g><g id="SvgjsG1014" transform="translate(594,93)"><path id="SvgjsPath1015" d="M 0 4Q 0 0 4 0L 126 0Q 130 0 130 4L 130 358Q 130 362 126 362L 4 362Q 0 362 0 358Z" stroke="rgba(50,50,50,1)" stroke-width="2" fill-opacity="1" fill="#ffffff"></path><g id="SvgjsG1016"><text id="SvgjsText1017" font-family="微软雅黑" text-anchor="middle" font-size="13px" width="110px" fill="#323232" font-weight="400" align="middle" lineHeight="125%" anchor="middle" family="微软雅黑" size="13px" weight="400" font-style="" opacity="1" y="170.375" transform="rotate(0)"><tspan id="SvgjsTspan1018" dy="16" x="65"><tspan id="SvgjsTspan1019" style="text-decoration:;">内存</tspan></tspan></text></g></g><g id="SvgjsG1020"><path id="SvgjsPath1021" d="M156 134L374.5 134L374.5 134L590.4 134" stroke="#323232" stroke-width="2" fill="none" marker-end="url(#SvgjsMarker1022)"></path><rect id="SvgjsRect1024" width="39" height="16" x="353.7" y="126" fill="#ffffff"></rect><text id="SvgjsText1025" font-family="微软雅黑" text-anchor="middle" font-size="13px" width="39px" fill="#323232" font-weight="400" align="top" lineHeight="16px" anchor="middle" family="微软雅黑" size="13px" weight="400" font-style="" opacity="1" y="123.375" transform="rotate(0)"><tspan id="SvgjsTspan1026" dy="16" x="373.2"><tspan id="SvgjsTspan1027" style="text-decoration:;">指令一</tspan></tspan></text></g><g id="SvgjsG1028"><path id="SvgjsPath1029" d="M156 197L374.5 197L374.5 197L590.4 197" stroke="#323232" stroke-width="2" fill="none" marker-end="url(#SvgjsMarker1030)"></path><rect id="SvgjsRect1032" width="39" height="16" x="353.7" y="189" fill="#ffffff"></rect><text id="SvgjsText1033" font-family="微软雅黑" text-anchor="middle" font-size="13px" width="39px" fill="#323232" font-weight="400" align="top" lineHeight="16px" anchor="middle" family="微软雅黑" size="13px" weight="400" font-style="" opacity="1" y="186.375" transform="rotate(0)"><tspan id="SvgjsTspan1034" dy="16" x="373.2"><tspan id="SvgjsTspan1035" style="text-decoration:;">指令二</tspan></tspan></text></g><g id="SvgjsG1036"><path id="SvgjsPath1037" d="M156 253L374.5 253L374.5 253L590.4 253" stroke="#323232" stroke-width="2" fill="none" marker-end="url(#SvgjsMarker1038)"></path><rect id="SvgjsRect1040" width="39" height="16" x="353.7" y="245" fill="#ffffff"></rect><text id="SvgjsText1041" font-family="微软雅黑" text-anchor="middle" font-size="13px" width="39px" fill="#323232" font-weight="400" align="top" lineHeight="16px" anchor="middle" family="微软雅黑" size="13px" weight="400" font-style="" opacity="1" y="242.375" transform="rotate(0)"><tspan id="SvgjsTspan1042" dy="16" x="373.2"><tspan id="SvgjsTspan1043" style="text-decoration:;">指令三</tspan></tspan></text></g><g id="SvgjsG1044"><path id="SvgjsPath1045" d="M155 311L374 311L374 311L590.4 311" stroke="#323232" stroke-width="2" fill="none" marker-end="url(#SvgjsMarker1046)"></path><rect id="SvgjsRect1048" width="39" height="16" x="353.2" y="303" fill="#ffffff"></rect><text id="SvgjsText1049" font-family="微软雅黑" text-anchor="middle" font-size="13px" width="39px" fill="#323232" font-weight="400" align="top" lineHeight="16px" anchor="middle" family="微软雅黑" size="13px" weight="400" font-style="" opacity="1" y="300.375" transform="rotate(0)"><tspan id="SvgjsTspan1050" dy="16" x="372.7"><tspan id="SvgjsTspan1051" style="text-decoration:;">指令四</tspan></tspan></text></g><g id="SvgjsG1052"><path id="SvgjsPath1053" d="M156 370L374.5 370L374.5 370L590.4 370" stroke="#323232" stroke-width="2" fill="none" marker-end="url(#SvgjsMarker1054)"></path><rect id="SvgjsRect1056" width="39" height="16" x="353.7" y="362" fill="#ffffff"></rect><text id="SvgjsText1057" font-family="微软雅黑" text-anchor="middle" font-size="13px" width="39px" fill="#323232" font-weight="400" align="top" lineHeight="16px" anchor="middle" family="微软雅黑" size="13px" weight="400" font-style="" opacity="1" y="359.375" transform="rotate(0)"><tspan id="SvgjsTspan1058" dy="16" x="373.2"><tspan id="SvgjsTspan1059" style="text-decoration:;">指令五</tspan></tspan></text></g><g id="SvgjsG1060"><path id="SvgjsPath1061" d="M154 419L369.5 419L369.5 419L586 419" stroke="#323232" stroke-width="2" fill="none" marker-end="url(#SvgjsMarker1062)"></path><rect id="SvgjsRect1064" width="39" height="16" x="350.50000000000006" y="411" fill="#ffffff"></rect><text id="SvgjsText1065" font-family="微软雅黑" text-anchor="middle" font-size="13px" width="39px" fill="#323232" font-weight="400" align="top" lineHeight="16px" anchor="middle" family="微软雅黑" size="13px" weight="400" font-style="" opacity="1" y="408.375" transform="rotate(0)"><tspan id="SvgjsTspan1066" dy="16" x="370.00000000000006"><tspan id="SvgjsTspan1067" style="text-decoration:;">指令六</tspan></tspan></text></g><g id="SvgjsG1068" transform="translate(208,25)"><path id="SvgjsPath1069" d="M 0 0L 320 0L 336 16L 336 53L 0 53L 0 0Z" stroke="none" fill-opacity="1" fill="#ffffaa"></path><path id="SvgjsPath1070" d="M 320 0L 320 16L 336 16Z" stroke="none" fill-opacity="1" fill="#cdcdcd"></path><path id="SvgjsPath1071" d="M 0 0L 320 0L 336 16L 336 53L 0 53L 0 0Z" stroke="none" fill="none"></path><g id="SvgjsG1072"><text id="SvgjsText1073" font-family="微软雅黑" text-anchor="middle" font-size="13px" width="316px" fill="#323232" font-weight="400" align="middle" lineHeight="125%" anchor="middle" family="微软雅黑" size="13px" weight="400" font-style="" opacity="1" y="15.875" transform="rotate(0)"><tspan id="SvgjsTspan1074" dy="16" x="168"><tspan id="SvgjsTspan1075" style="text-decoration:;">CPU为了执行效率,异步执行</tspan></tspan></text></g></g><g id="SvgjsG1076" transform="translate(200,158)"><path id="SvgjsPath1077" d="M 0 0L 353 0L 369 16L 369 20L 0 20L 0 0Z" stroke="none" fill-opacity="1" fill="#ffffaa"></path><path id="SvgjsPath1078" d="M 353 0L 353 16L 369 16Z" stroke="none" fill-opacity="1" fill="#cdcdcd"></path><path id="SvgjsPath1079" d="M 0 0L 353 0L 369 16L 369 20L 0 20L 0 0Z" stroke="none" fill="none"></path><g id="SvgjsG1080"><text id="SvgjsText1081" font-family="微软雅黑" text-anchor="middle" font-size="13px" width="349px" fill="#323232" font-weight="400" align="middle" lineHeight="125%" anchor="middle" family="微软雅黑" size="13px" weight="400" font-style="" opacity="1" y="-0.625" transform="rotate(0)"><tspan id="SvgjsTspan1082" dy="16" x="184.5"><tspan id="SvgjsTspan1083" style="text-decoration:;">指令一执行速度慢,还没等指令一执行完,就去执行指令二。</tspan></tspan></text></g></g><g id="SvgjsG1084" transform="translate(184.33333333333348,268.33333333333326)"><path id="SvgjsPath1085" d="M 0 0L 368.66666666666663 0L 384.66666666666663 16L 384.66666666666663 28.888888888888914L 0 28.888888888888914L 0 0Z" stroke="none" fill-opacity="1" fill="#ffffaa"></path><path id="SvgjsPath1086" d="M 368.66666666666663 0L 368.66666666666663 16L 384.66666666666663 16Z" stroke="none" fill-opacity="1" fill="#cdcdcd"></path><path id="SvgjsPath1087" d="M 0 0L 368.66666666666663 0L 384.66666666666663 16L 384.66666666666663 28.888888888888914L 0 28.888888888888914L 0 0Z" stroke="none" fill="none"></path><g id="SvgjsG1088"><text id="SvgjsText1089" font-family="微软雅黑" text-anchor="middle" font-size="13px" width="365px" fill="#323232" font-weight="400" align="middle" lineHeight="125%" anchor="middle" family="微软雅黑" size="13px" weight="400" font-style="" opacity="1" y="-4.680555555555543" transform="rotate(0)"><tspan id="SvgjsTspan1090" dy="16" x="192.5"><tspan id="SvgjsTspan1091" style="text-decoration:;">指令二依赖于指令三,当指令二执行效率慢,指令三也要等着指令</tspan></tspan><tspan id="SvgjsTspan1092" dy="16" x="192.5"><tspan id="SvgjsTspan1093" style="text-decoration:;">二执行完成之后才执行。其他指令照常异步执行。</tspan></tspan></text></g></g></svg>