<svg id="SvgjsSvg1100" width="873.5390625" height="566.5" xmlns="http://www.w3.org/2000/svg" version="1.1" xmlns:xlink="http://www.w3.org/1999/xlink" xmlns:svgjs="http://svgjs.com/svgjs"><defs id="SvgjsDefs1101"><marker id="SvgjsMarker1138" markerWidth="14" markerHeight="10" refX="10" refY="5" viewBox="0 0 14 10" orient="auto" markerUnits="userSpaceOnUse" stroke-dasharray="0,0"><path id="SvgjsPath1139" d="M0,0 L14,5 L0,10 L0,0" fill="#323232" stroke="#323232" stroke-width="1"></path></marker><marker id="SvgjsMarker1142" markerWidth="14" markerHeight="10" refX="10" refY="5" viewBox="0 0 14 10" orient="auto" markerUnits="userSpaceOnUse" stroke-dasharray="0,0"><path id="SvgjsPath1143" d="M0,0 L14,5 L0,10 L0,0" fill="#323232" stroke="#323232" stroke-width="1"></path></marker></defs><g id="SvgjsG1102" transform="translate(30,263)"><path id="SvgjsPath1103" d="M 0 0L 264 0L 264 165L 0 165Z" stroke="rgba(50,50,50,1)" stroke-width="2" fill-opacity="1" fill="#ffffff"></path><g id="SvgjsG1104"><text id="SvgjsText1105" font-family="微软雅黑" text-anchor="middle" font-size="13px" width="244px" fill="#323232" font-weight="400" align="middle" lineHeight="125%" anchor="middle" family="微软雅黑" size="13px" weight="400" font-style="" opacity="1" y="71.875" transform="rotate(0)"><tspan id="SvgjsTspan1106" dy="16" x="132"><tspan id="SvgjsTspan1107" style="text-decoration:;">eden(伊甸区)</tspan></tspan></text></g></g><g id="SvgjsG1108" transform="translate(294,262.9090909090908)"><path id="SvgjsPath1109" d="M 0 0L 100 0L 100 165.18181818181836L 0 165.18181818181836Z" stroke="rgba(50,50,50,1)" stroke-width="2" fill-opacity="1" fill="#ffffff"></path><g id="SvgjsG1110"><text id="SvgjsText1111" font-family="微软雅黑" text-anchor="middle" font-size="12px" width="80px" fill="#323232" font-weight="400" align="middle" lineHeight="125%" anchor="middle" family="微软雅黑" size="12px" weight="400" font-style="" opacity="1" y="65.09090909090918" transform="rotate(0)"><tspan id="SvgjsTspan1112" dy="15" x="50"><tspan id="SvgjsTspan1113" style="text-decoration:;">survivor幸存区</tspan></tspan><tspan id="SvgjsTspan1114" dy="15" x="50"><tspan id="SvgjsTspan1115" style="text-decoration:;">from</tspan></tspan></text></g></g><g id="SvgjsG1116" transform="translate(393.54545454545337,262.8181818181816)"><path id="SvgjsPath1117" d="M 0 0L 100 0L 100 165.18181818181836L 0 165.18181818181836Z" stroke="rgba(50,50,50,1)" stroke-width="2" fill-opacity="1" fill="#ffffff"></path><g id="SvgjsG1118"><text id="SvgjsText1119" font-family="微软雅黑" text-anchor="middle" font-size="12px" width="80px" fill="#323232" font-weight="400" align="middle" lineHeight="125%" anchor="middle" family="微软雅黑" size="12px" weight="400" font-style="" opacity="1" y="65.09090909090918" transform="rotate(0)"><tspan id="SvgjsTspan1120" dy="15" x="50"><tspan id="SvgjsTspan1121" style="text-decoration:;">survivor幸存区</tspan></tspan><tspan id="SvgjsTspan1122" dy="15" x="50"><tspan id="SvgjsTspan1123" style="text-decoration:;">to</tspan></tspan></text></g></g><g id="SvgjsG1124" transform="translate(30,149.5)"><path id="SvgjsPath1125" d="M 0 4Q 0 0 4 0L 96 0Q 100 0 100 4L 100 66Q 100 70 96 70L 4 70Q 0 70 0 66Z" stroke="rgba(50,50,50,1)" stroke-width="2" fill-opacity="1" fill="#ffffff"></path><g id="SvgjsG1126"><text id="SvgjsText1127" font-family="微软雅黑" text-anchor="middle" font-size="13px" width="80px" fill="#323232" font-weight="400" align="middle" lineHeight="125%" anchor="middle" family="微软雅黑" size="13px" weight="400" font-style="" opacity="1" y="24.375" transform="rotate(0)"><tspan id="SvgjsTspan1128" dy="16" x="50"><tspan id="SvgjsTspan1129" style="text-decoration:;">栈</tspan></tspan></text></g></g><g id="SvgjsG1130" transform="translate(163.5,25)"><path id="SvgjsPath1131" d="M 0 35C 0 -11.666666666666666 70 -11.666666666666666 70 35C 70 81.66666666666667 0 81.66666666666667 0 35Z" stroke="rgba(50,50,50,1)" stroke-width="2" fill-opacity="1" fill="#ffffff"></path><g id="SvgjsG1132"><text id="SvgjsText1133" font-family="微软雅黑" text-anchor="middle" font-size="13px" width="50px" fill="#323232" font-weight="400" align="middle" lineHeight="125%" anchor="middle" family="微软雅黑" size="13px" weight="400" font-style="" opacity="1" y="24.375" transform="rotate(0)"><tspan id="SvgjsTspan1134" dy="16" x="35"><tspan id="SvgjsTspan1135" style="text-decoration:;">对象</tspan></tspan></text></g></g><g id="SvgjsG1136"><path id="SvgjsPath1137" d="M198.5 96L198.5 122.25L80 122.25L80 145.9" stroke="#323232" stroke-width="2" fill="none" marker-end="url(#SvgjsMarker1138)"></path></g><g id="SvgjsG1140"><path id="SvgjsPath1141" d="M80 220.5L80 241.25L162 241.25L162 259.4" stroke="#323232" stroke-width="2" fill="none" marker-end="url(#SvgjsMarker1142)"></path></g><g id="SvgjsG1144" transform="translate(253.54545454545337,68.5)"><path id="SvgjsPath1145" d="M 0 0L 190.95454545454663 0L 206.95454545454663 16L 206.95454545454663 42L 0 42L 0 0Z" stroke="none" fill-opacity="1" fill="#ffffaa"></path><path id="SvgjsPath1146" d="M 190.95454545454663 0L 190.95454545454663 16L 206.95454545454663 16Z" stroke="none" fill-opacity="1" fill="#cdcdcd"></path><path id="SvgjsPath1147" d="M 0 0L 190.95454545454663 0L 206.95454545454663 16L 206.95454545454663 42L 0 42L 0 0Z" stroke="none" fill="none"></path><g id="SvgjsG1148"><text id="SvgjsText1149" font-family="微软雅黑" text-anchor="middle" font-size="13px" width="187px" fill="#323232" font-weight="400" align="middle" lineHeight="125%" anchor="middle" family="微软雅黑" size="13px" weight="400" font-style="" opacity="1" y="10.375" transform="rotate(0)"><tspan id="SvgjsTspan1150" dy="16" x="103.5"><tspan id="SvgjsTspan1151" style="text-decoration:;">第一步:对象尝试在栈上分配</tspan></tspan></text></g></g><g id="SvgjsG1152" transform="translate(178.54545454545337,177.5)"><path id="SvgjsPath1153" d="M 0 0L 251.95454545454663 0L 267.95454545454663 16L 267.95454545454663 42L 0 42L 0 0Z" stroke="none" fill-opacity="1" fill="#ffffaa"></path><path id="SvgjsPath1154" d="M 251.95454545454663 0L 251.95454545454663 16L 267.95454545454663 16Z" stroke="none" fill-opacity="1" fill="#cdcdcd"></path><path id="SvgjsPath1155" d="M 0 0L 251.95454545454663 0L 267.95454545454663 16L 267.95454545454663 42L 0 42L 0 0Z" stroke="none" fill="none"></path><g id="SvgjsG1156"><text id="SvgjsText1157" font-family="微软雅黑" text-anchor="middle" font-size="13px" width="248px" fill="#323232" font-weight="400" align="middle" lineHeight="125%" anchor="middle" family="微软雅黑" size="13px" weight="400" font-style="" opacity="1" y="10.375" transform="rotate(0)"><tspan id="SvgjsTspan1158" dy="16" x="134"><tspan id="SvgjsTspan1159" style="text-decoration:;">第二步:栈上分配不下,分配到堆内存中。</tspan></tspan></text></g></g><g id="SvgjsG1160" transform="translate(79.1363636363601,374.40909090909076)"><path id="SvgjsPath1161" d="M 0 0L 152.40909090909327 0L 168.40909090909327 16L 168.40909090909327 28.590909090909236L 0 28.590909090909236L 0 0Z" stroke="none" fill-opacity="1" fill="#ffffaa"></path><path id="SvgjsPath1162" d="M 152.40909090909327 0L 152.40909090909327 16L 168.40909090909327 16Z" stroke="none" fill-opacity="1" fill="#cdcdcd"></path><path id="SvgjsPath1163" d="M 0 0L 152.40909090909327 0L 168.40909090909327 16L 168.40909090909327 28.590909090909236L 0 28.590909090909236L 0 0Z" stroke="none" fill="none"></path><g id="SvgjsG1164"><text id="SvgjsText1165" font-family="微软雅黑" text-anchor="middle" font-size="13px" width="149px" fill="#323232" font-weight="400" align="middle" lineHeight="125%" anchor="middle" family="微软雅黑" size="13px" weight="400" font-style="" opacity="1" y="3.670454545454618" transform="rotate(0)"><tspan id="SvgjsTspan1166" dy="16" x="84.5"><tspan id="SvgjsTspan1167" style="text-decoration:;">第三步:分配到伊甸区</tspan></tspan></text></g></g><g id="SvgjsG1168" transform="translate(25,443.5)"><path id="SvgjsPath1169" d="M 0 0L 248.5 0L 264.5 16L 264.5 77L 0 77L 0 0Z" stroke="none" fill-opacity="1" fill="#ffffaa"></path><path id="SvgjsPath1170" d="M 248.5 0L 248.5 16L 264.5 16Z" stroke="none" fill-opacity="1" fill="#cdcdcd"></path><path id="SvgjsPath1171" d="M 0 0L 248.5 0L 264.5 16L 264.5 77L 0 77L 0 0Z" stroke="none" fill="none"></path><g id="SvgjsG1172"><text id="SvgjsText1173" font-family="微软雅黑" text-anchor="middle" font-size="13px" width="245px" fill="#323232" font-weight="400" align="middle" lineHeight="125%" anchor="middle" family="微软雅黑" size="13px" weight="400" font-style="" opacity="1" y="27.875" transform="rotate(0)"><tspan id="SvgjsTspan1174" dy="16" x="132.5"><tspan id="SvgjsTspan1175" style="text-decoration:;">每gc一次伊甸区存活的对象就进入幸存区</tspan></tspan></text></g></g><g id="SvgjsG1176" transform="translate(304.5,438.5)"><path id="SvgjsPath1177" d="M 0 0L 173.04545454545337 0L 189.04545454545337 16L 189.04545454545337 103L 0 103L 0 0Z" stroke="none" fill-opacity="1" fill="#ffffaa"></path><path id="SvgjsPath1178" d="M 173.04545454545337 0L 173.04545454545337 16L 189.04545454545337 16Z" stroke="none" fill-opacity="1" fill="#cdcdcd"></path><path id="SvgjsPath1179" d="M 0 0L 173.04545454545337 0L 189.04545454545337 16L 189.04545454545337 103L 0 103L 0 0Z" stroke="none" fill="none"></path><g id="SvgjsG1180"><text id="SvgjsText1181" font-family="微软雅黑" text-anchor="middle" font-size="13px" width="170px" fill="#323232" font-weight="400" align="middle" lineHeight="125%" anchor="middle" family="微软雅黑" size="13px" weight="400" font-style="" opacity="1" y="24.375" transform="rotate(0)"><tspan id="SvgjsTspan1182" dy="16" x="95"><tspan id="SvgjsTspan1183" style="text-decoration:;">幸存的对象在form跟to之间</tspan></tspan><tspan id="SvgjsTspan1184" dy="16" x="95"><tspan id="SvgjsTspan1185" style="text-decoration:;">不断切换,达到一定的年龄之</tspan></tspan><tspan id="SvgjsTspan1186" dy="16" x="95"><tspan id="SvgjsTspan1187" style="text-decoration:;">后就进入老年代</tspan></tspan></text></g></g><g id="SvgjsG1188" transform="translate(493.54545454545337,262.9090909090908)"><path id="SvgjsPath1189" d="M 0 0L 354.95454545454663 0L 354.95454545454663 164.9999999999999L 0 164.9999999999999Z" stroke="rgba(50,50,50,1)" stroke-width="2" fill-opacity="1" fill="#ffffff"></path><g id="SvgjsG1190"><text id="SvgjsText1191" font-family="微软雅黑" text-anchor="middle" font-size="13px" width="335px" fill="#323232" font-weight="400" align="middle" lineHeight="125%" anchor="middle" family="微软雅黑" size="13px" weight="400" font-style="" opacity="1" y="71.87499999999994" transform="rotate(0)"><tspan id="SvgjsTspan1192" dy="16" x="177.5"><tspan id="SvgjsTspan1193" style="text-decoration:;">老年代</tspan></tspan></text></g></g></svg>