<svg id="SvgjsSvg1112" width="1236" height="334.5" xmlns="http://www.w3.org/2000/svg" version="1.1" xmlns:xlink="http://www.w3.org/1999/xlink" xmlns:svgjs="http://svgjs.com/svgjs"><defs id="SvgjsDefs1113"><marker id="SvgjsMarker1138" markerWidth="14" markerHeight="10" refX="10" refY="5" viewBox="0 0 14 10" orient="auto" markerUnits="userSpaceOnUse" stroke-dasharray="0,0"><path id="SvgjsPath1139" d="M0,0 L14,5 L0,10 L0,0" fill="#323232" stroke="#323232" stroke-width="1"></path></marker><marker id="SvgjsMarker1158" markerWidth="14" markerHeight="10" refX="10" refY="5" viewBox="0 0 14 10" orient="auto" markerUnits="userSpaceOnUse" stroke-dasharray="0,0"><path id="SvgjsPath1159" d="M0,0 L14,5 L0,10 L0,0" fill="#323232" stroke="#323232" stroke-width="1"></path></marker><marker id="SvgjsMarker1166" markerWidth="14" markerHeight="10" refX="10" refY="5" viewBox="0 0 14 10" orient="auto" markerUnits="userSpaceOnUse" stroke-dasharray="0,0"><path id="SvgjsPath1167" d="M0,0 L14,5 L0,10 L0,0" fill="#323232" stroke="#323232" stroke-width="1"></path></marker><marker id="SvgjsMarker1170" markerWidth="14" markerHeight="10" refX="10" refY="5" viewBox="0 0 14 10" orient="auto" markerUnits="userSpaceOnUse" stroke-dasharray="0,0"><path id="SvgjsPath1171" d="M0,0 L14,5 L0,10 L0,0" fill="#323232" stroke="#323232" stroke-width="1"></path></marker><marker id="SvgjsMarker1180" markerWidth="14" markerHeight="10" refX="10" refY="5" viewBox="0 0 14 10" orient="auto" markerUnits="userSpaceOnUse" stroke-dasharray="0,0"><path id="SvgjsPath1181" d="M0,0 L14,5 L0,10 L0,0" fill="#323232" stroke="#323232" stroke-width="1"></path></marker></defs><g id="SvgjsG1114" transform="translate(462,84.5)"><path id="SvgjsPath1115" d="M 0 4Q 0 0 4 0L 118 0Q 122 0 122 4L 122 67Q 122 71 118 71L 4 71Q 0 71 0 67Z" stroke="rgba(50,50,50,1)" stroke-width="2" fill-opacity="1" fill="#ffffff"></path><g id="SvgjsG1116"><text id="SvgjsText1117" font-family="微软雅黑" text-anchor="middle" font-size="13px" width="102px" fill="#323232" font-weight="400" align="middle" lineHeight="125%" anchor="middle" family="微软雅黑" size="13px" weight="400" font-style="" opacity="1" y="24.875" transform="rotate(0)"><tspan id="SvgjsTspan1118" dy="16" x="61"><tspan id="SvgjsTspan1119" style="text-decoration:;">verification</tspan></tspan></text></g></g><g id="SvgjsG1120" transform="translate(311,209.5)"><path id="SvgjsPath1121" d="M 0 0L 64 0L 80 16L 80 100L 0 100L 0 0Z" stroke="none" fill-opacity="1" fill="#ffffaa"></path><path id="SvgjsPath1122" d="M 64 0L 64 16L 80 16Z" stroke="none" fill-opacity="1" fill="#cdcdcd"></path><path id="SvgjsPath1123" d="M 0 0L 64 0L 80 16L 80 100L 0 100L 0 0Z" stroke="none" fill="none"></path><g id="SvgjsG1124"><text id="SvgjsText1125" font-family="微软雅黑" text-anchor="middle" font-size="13px" width="60px" fill="#323232" font-weight="400" align="middle" lineHeight="125%" anchor="middle" family="微软雅黑" size="13px" weight="400" font-style="" opacity="1" y="39.375" transform="rotate(0)"><tspan id="SvgjsTspan1126" dy="16" x="40"><tspan id="SvgjsTspan1127" style="text-decoration:;">class文件</tspan></tspan></text></g></g><g id="SvgjsG1128" transform="translate(25,209.5)"><path id="SvgjsPath1129" d="M 0 0L 64 0L 80 16L 80 100L 0 100L 0 0Z" stroke="none" fill-opacity="1" fill="#ffffaa"></path><path id="SvgjsPath1130" d="M 64 0L 64 16L 80 16Z" stroke="none" fill-opacity="1" fill="#cdcdcd"></path><path id="SvgjsPath1131" d="M 0 0L 64 0L 80 16L 80 100L 0 100L 0 0Z" stroke="none" fill="none"></path><g id="SvgjsG1132"><text id="SvgjsText1133" font-family="微软雅黑" text-anchor="middle" font-size="13px" width="60px" fill="#323232" font-weight="400" align="middle" lineHeight="125%" anchor="middle" family="微软雅黑" size="13px" weight="400" font-style="" opacity="1" y="39.375" transform="rotate(0)"><tspan id="SvgjsTspan1134" dy="16" x="40"><tspan id="SvgjsTspan1135" style="text-decoration:;">Java文件</tspan></tspan></text></g></g><g id="SvgjsG1136"><path id="SvgjsPath1137" d="M105 259.5L208 259.5L208 259.5L308.4 259.5" stroke="#323232" stroke-width="2" fill="none" marker-end="url(#SvgjsMarker1138)"></path><rect id="SvgjsRect1140" width="31" height="16" x="191.2" y="251.5" fill="#ffffff"></rect><text id="SvgjsText1141" font-family="微软雅黑" text-anchor="middle" font-size="13px" width="31px" fill="#323232" font-weight="400" align="top" lineHeight="16px" anchor="middle" family="微软雅黑" size="13px" weight="400" font-style="" opacity="1" y="248.875" transform="rotate(0)"><tspan id="SvgjsTspan1142" dy="16" x="206.7"><tspan id="SvgjsTspan1143" style="text-decoration:;">javac</tspan></tspan></text></g><g id="SvgjsG1144" transform="translate(636,84.5)"><path id="SvgjsPath1145" d="M 0 4Q 0 0 4 0L 118 0Q 122 0 122 4L 122 67Q 122 71 118 71L 4 71Q 0 71 0 67Z" stroke="rgba(50,50,50,1)" stroke-width="2" fill-opacity="1" fill="#ffffff"></path><g id="SvgjsG1146"><text id="SvgjsText1147" font-family="微软雅黑" text-anchor="middle" font-size="13px" width="102px" fill="#323232" font-weight="400" align="middle" lineHeight="125%" anchor="middle" family="微软雅黑" size="13px" weight="400" font-style="" opacity="1" y="24.875" transform="rotate(0)"><tspan id="SvgjsTspan1148" dy="16" x="61"><tspan id="SvgjsTspan1149" style="text-decoration:;">preparation</tspan></tspan></text></g></g><g id="SvgjsG1150" transform="translate(810,84.5)"><path id="SvgjsPath1151" d="M 0 4Q 0 0 4 0L 118 0Q 122 0 122 4L 122 67Q 122 71 118 71L 4 71Q 0 71 0 67Z" stroke="rgba(50,50,50,1)" stroke-width="2" fill-opacity="1" fill="#ffffff"></path><g id="SvgjsG1152"><text id="SvgjsText1153" font-family="微软雅黑" text-anchor="middle" font-size="13px" width="102px" fill="#323232" font-weight="400" align="middle" lineHeight="125%" anchor="middle" family="微软雅黑" size="13px" weight="400" font-style="" opacity="1" y="24.875" transform="rotate(0)"><tspan id="SvgjsTspan1154" dy="16" x="61"><tspan id="SvgjsTspan1155" style="text-decoration:;">resolution</tspan></tspan></text></g></g><g id="SvgjsG1156"><path id="SvgjsPath1157" d="M391 259.5L426.5 259.5L426.5 120L458.4 120" stroke="#323232" stroke-width="2" fill="none" marker-end="url(#SvgjsMarker1158)"></path><rect id="SvgjsRect1160" width="78" height="16" x="387.5" y="183.54999999999998" fill="#ffffff"></rect><text id="SvgjsText1161" font-family="微软雅黑" text-anchor="middle" font-size="13px" width="78px" fill="#323232" font-weight="400" align="top" lineHeight="16px" anchor="middle" family="微软雅黑" size="13px" weight="400" font-style="" opacity="1" y="180.92499999999998" transform="rotate(0)"><tspan id="SvgjsTspan1162" dy="16" x="426.5"><tspan id="SvgjsTspan1163" style="text-decoration:;">load到内存中</tspan></tspan></text></g><g id="SvgjsG1164"><path id="SvgjsPath1165" d="M585 120L610 120L610 120L632.4 120" stroke="#323232" stroke-width="2" fill="none" marker-end="url(#SvgjsMarker1166)"></path></g><g id="SvgjsG1168"><path id="SvgjsPath1169" d="M759 120L784 120L784 120L806.4 120" stroke="#323232" stroke-width="2" fill="none" marker-end="url(#SvgjsMarker1170)"></path></g><g id="SvgjsG1172" transform="translate(958,201.5)"><path id="SvgjsPath1173" d="M 0 4Q 0 0 4 0L 96 0Q 100 0 100 4L 100 66Q 100 70 96 70L 4 70Q 0 70 0 66Z" stroke="rgba(50,50,50,1)" stroke-width="2" fill-opacity="1" fill="#ffffff"></path><g id="SvgjsG1174"><text id="SvgjsText1175" font-family="微软雅黑" text-anchor="middle" font-size="13px" width="80px" fill="#323232" font-weight="400" align="middle" lineHeight="125%" anchor="middle" family="微软雅黑" size="13px" weight="400" font-style="" opacity="1" y="24.375" transform="rotate(0)"><tspan id="SvgjsTspan1176" dy="16" x="50"><tspan id="SvgjsTspan1177" style="text-decoration:;">initializing</tspan></tspan></text></g></g><g id="SvgjsG1178"><path id="SvgjsPath1179" d="M933 120L1008 120L1008 197.89999999999998" stroke="#323232" stroke-width="2" fill="none" marker-end="url(#SvgjsMarker1180)"></path></g><g id="SvgjsG1182" transform="translate(469.5,25)"><path id="SvgjsPath1183" d="M 0 0L 98.5 0L 114.5 16L 114.5 47L 0 47L 0 0Z" stroke="none" fill-opacity="1" fill="#ffffaa"></path><path id="SvgjsPath1184" d="M 98.5 0L 98.5 16L 114.5 16Z" stroke="none" fill-opacity="1" fill="#cdcdcd"></path><path id="SvgjsPath1185" d="M 0 0L 98.5 0L 114.5 16L 114.5 47L 0 47L 0 0Z" stroke="none" fill="none"></path><g id="SvgjsG1186"><text id="SvgjsText1187" font-family="微软雅黑" text-anchor="middle" font-size="13px" width="95px" fill="#323232" font-weight="400" align="middle" lineHeight="125%" anchor="middle" family="微软雅黑" size="13px" weight="400" font-style="" opacity="1" y="12.875" transform="rotate(0)"><tspan id="SvgjsTspan1188" dy="16" x="57.5"><tspan id="SvgjsTspan1189" style="text-decoration:;">校验字节码文件</tspan></tspan></text></g></g><g id="SvgjsG1190" transform="translate(625.75,25)"><path id="SvgjsPath1191" d="M 0 0L 126.5 0L 142.5 16L 142.5 47L 0 47L 0 0Z" stroke="none" fill-opacity="1" fill="#ffffaa"></path><path id="SvgjsPath1192" d="M 126.5 0L 126.5 16L 142.5 16Z" stroke="none" fill-opacity="1" fill="#cdcdcd"></path><path id="SvgjsPath1193" d="M 0 0L 126.5 0L 142.5 16L 142.5 47L 0 47L 0 0Z" stroke="none" fill="none"></path><g id="SvgjsG1194"><text id="SvgjsText1195" font-family="微软雅黑" text-anchor="middle" font-size="13px" width="123px" fill="#323232" font-weight="400" align="middle" lineHeight="125%" anchor="middle" family="微软雅黑" size="13px" weight="400" font-style="" opacity="1" y="12.875" transform="rotate(0)"><tspan id="SvgjsTspan1196" dy="16" x="71.5"><tspan id="SvgjsTspan1197" style="text-decoration:;">为静态变量赋默认值</tspan></tspan></text></g></g><g id="SvgjsG1198" transform="translate(799.75,25)"><path id="SvgjsPath1199" d="M 0 0L 126.5 0L 142.5 16L 142.5 47L 0 47L 0 0Z" stroke="none" fill-opacity="1" fill="#ffffaa"></path><path id="SvgjsPath1200" d="M 126.5 0L 126.5 16L 142.5 16Z" stroke="none" fill-opacity="1" fill="#cdcdcd"></path><path id="SvgjsPath1201" d="M 0 0L 126.5 0L 142.5 16L 142.5 47L 0 47L 0 0Z" stroke="none" fill="none"></path><g id="SvgjsG1202"><text id="SvgjsText1203" font-family="微软雅黑" text-anchor="middle" font-size="13px" width="123px" fill="#323232" font-weight="400" align="middle" lineHeight="125%" anchor="middle" family="微软雅黑" size="13px" weight="400" font-style="" opacity="1" y="4.375" transform="rotate(0)"><tspan id="SvgjsTspan1204" dy="16" x="71.5"><tspan id="SvgjsTspan1205" style="text-decoration:;">将常量池符号引用转</tspan></tspan><tspan id="SvgjsTspan1206" dy="16" x="71.5"><tspan id="SvgjsTspan1207" style="text-decoration:;">化为直接引用</tspan></tspan></text></g></g><g id="SvgjsG1208" transform="translate(1087,206.5)"><path id="SvgjsPath1209" d="M 0 0L 108 0L 124 16L 124 60L 0 60L 0 0Z" stroke="none" fill-opacity="1" fill="#ffffaa"></path><path id="SvgjsPath1210" d="M 108 0L 108 16L 124 16Z" stroke="none" fill-opacity="1" fill="#cdcdcd"></path><path id="SvgjsPath1211" d="M 0 0L 108 0L 124 16L 124 60L 0 60L 0 0Z" stroke="none" fill="none"></path><g id="SvgjsG1212"><text id="SvgjsText1213" font-family="微软雅黑" text-anchor="middle" font-size="13px" width="104px" fill="#323232" font-weight="400" align="middle" lineHeight="125%" anchor="middle" family="微软雅黑" size="13px" weight="400" font-style="" opacity="1" y="10.875" transform="rotate(0)"><tspan id="SvgjsTspan1214" dy="16" x="62"><tspan id="SvgjsTspan1215" style="text-decoration:;">为静态变量赋初始</tspan></tspan><tspan id="SvgjsTspan1216" dy="16" x="62"><tspan id="SvgjsTspan1217" style="text-decoration:;">值</tspan></tspan></text></g></g></svg>