<svg id="SvgjsSvg1062" width="735.25" height="254" xmlns="http://www.w3.org/2000/svg" version="1.1" xmlns:xlink="http://www.w3.org/1999/xlink" xmlns:svgjs="http://svgjs.com/svgjs"><defs id="SvgjsDefs1063"><marker id="SvgjsMarker1078" markerWidth="14" markerHeight="10" refX="10" refY="5" viewBox="0 0 14 10" orient="auto" markerUnits="userSpaceOnUse" stroke-dasharray="0,0"><path id="SvgjsPath1079" d="M0,0 L14,5 L0,10 L0,0" fill="#323232" stroke="#323232" stroke-width="1"></path></marker><marker id="SvgjsMarker1090" markerWidth="14" markerHeight="10" refX="10" refY="5" viewBox="0 0 14 10" orient="auto" markerUnits="userSpaceOnUse" stroke-dasharray="0,0"><path id="SvgjsPath1091" d="M0,0 L14,5 L0,10 L0,0" fill="#323232" stroke="#323232" stroke-width="1"></path></marker></defs><g id="SvgjsG1064" transform="translate(25,114)"><path id="SvgjsPath1065" d="M 0 4Q 0 0 4 0L 96 0Q 100 0 100 4L 100 66Q 100 70 96 70L 4 70Q 0 70 0 66Z" stroke="rgba(50,50,50,1)" stroke-width="2" fill-opacity="1" fill="#ffffff"></path><g id="SvgjsG1066"><text id="SvgjsText1067" font-family="微软雅黑" text-anchor="middle" font-size="13px" width="80px" fill="#323232" font-weight="400" align="middle" lineHeight="125%" anchor="middle" family="微软雅黑" size="13px" weight="400" font-style="" opacity="1" y="24.375" transform="rotate(0)"><tspan id="SvgjsTspan1068" dy="16" x="50"><tspan id="SvgjsTspan1069" style="text-decoration:;">客户端</tspan></tspan></text></g></g><g id="SvgjsG1070" transform="translate(557,69)"><path id="SvgjsPath1071" d="M 0 4Q 0 0 4 0L 127 0Q 131 0 131 4L 131 156Q 131 160 127 160L 4 160Q 0 160 0 156Z" stroke="rgba(50,50,50,1)" stroke-width="2" fill-opacity="1" fill="#ffffff"></path><g id="SvgjsG1072"><text id="SvgjsText1073" font-family="微软雅黑" text-anchor="middle" font-size="13px" width="111px" fill="#323232" font-weight="400" align="middle" lineHeight="125%" anchor="middle" family="微软雅黑" size="13px" weight="400" font-style="" opacity="1" y="69.375" transform="rotate(0)"><tspan id="SvgjsTspan1074" dy="16" x="65.5"><tspan id="SvgjsTspan1075" style="text-decoration:;">服务器</tspan></tspan></text></g></g><g id="SvgjsG1076"><path id="SvgjsPath1077" d="M126 126L341 126L341 126L553.4 126" stroke="#323232" stroke-width="2" fill="none" marker-end="url(#SvgjsMarker1078)"></path></g><g id="SvgjsG1080" transform="translate(195,85)"><path id="SvgjsPath1081" d="M 0 0L 249 0L 265 16L 265 25L 0 25L 0 0Z" stroke="none" fill-opacity="1" fill="#ffffaa"></path><path id="SvgjsPath1082" d="M 249 0L 249 16L 265 16Z" stroke="none" fill-opacity="1" fill="#cdcdcd"></path><path id="SvgjsPath1083" d="M 0 0L 249 0L 265 16L 265 25L 0 25L 0 0Z" stroke="none" fill="none"></path><g id="SvgjsG1084"><text id="SvgjsText1085" font-family="微软雅黑" text-anchor="middle" font-size="13px" width="245px" fill="#323232" font-weight="400" align="middle" lineHeight="125%" anchor="middle" family="微软雅黑" size="13px" weight="400" font-style="" opacity="1" y="1.875" transform="rotate(0)"><tspan id="SvgjsTspan1086" dy="16" x="132.5"><tspan id="SvgjsTspan1087" style="text-decoration:;">发送客户端信息</tspan></tspan></text></g></g><g id="SvgjsG1088"><path id="SvgjsPath1089" d="M556 160L341 160L341 160L128.6 160" stroke="#323232" stroke-width="2" fill="none" marker-end="url(#SvgjsMarker1090)"></path></g><g id="SvgjsG1092" transform="translate(187.5,174)"><path id="SvgjsPath1093" d="M 0 0L 264 0L 280 16L 280 23L 0 23L 0 0Z" stroke="none" fill-opacity="1" fill="#ffffaa"></path><path id="SvgjsPath1094" d="M 264 0L 264 16L 280 16Z" stroke="none" fill-opacity="1" fill="#cdcdcd"></path><path id="SvgjsPath1095" d="M 0 0L 264 0L 280 16L 280 23L 0 23L 0 0Z" stroke="none" fill="none"></path><g id="SvgjsG1096"><text id="SvgjsText1097" font-family="微软雅黑" text-anchor="middle" font-size="13px" width="260px" fill="#323232" font-weight="400" align="middle" lineHeight="125%" anchor="middle" family="微软雅黑" size="13px" weight="400" font-style="" opacity="1" y="0.875" transform="rotate(0)"><tspan id="SvgjsTspan1098" dy="16" x="140"><tspan id="SvgjsTspan1099" style="text-decoration:;">返回token</tspan></tspan></text></g></g><g id="SvgjsG1100" transform="translate(535.25,25)"><path id="SvgjsPath1101" d="M 0 0L 158.5 0L 174.5 16L 174.5 34L 0 34L 0 0Z" stroke="none" fill-opacity="1" fill="#ffffaa"></path><path id="SvgjsPath1102" d="M 158.5 0L 158.5 16L 174.5 16Z" stroke="none" fill-opacity="1" fill="#cdcdcd"></path><path id="SvgjsPath1103" d="M 0 0L 158.5 0L 174.5 16L 174.5 34L 0 34L 0 0Z" stroke="none" fill="none"></path><g id="SvgjsG1104"><text id="SvgjsText1105" font-family="微软雅黑" text-anchor="middle" font-size="13px" width="155px" fill="#323232" font-weight="400" align="middle" lineHeight="125%" anchor="middle" family="微软雅黑" size="13px" weight="400" font-style="" opacity="1" y="6.375" transform="rotate(0)"><tspan id="SvgjsTspan1106" dy="16" x="87.5"><tspan id="SvgjsTspan1107" style="text-decoration:;">当前客户端是否安全</tspan></tspan></text></g></g></svg>