<svg id="SvgjsSvg1006" width="847.0000305175781" height="287.9895935058594" xmlns="http://www.w3.org/2000/svg" version="1.1" xmlns:xlink="http://www.w3.org/1999/xlink" xmlns:svgjs="http://svgjs.com/svgjs"><defs id="SvgjsDefs1007"><marker id="SvgjsMarker1022" markerWidth="14" markerHeight="10" refX="10" refY="5" viewBox="0 0 14 10" orient="auto" markerUnits="userSpaceOnUse" stroke-dasharray="0,0"><path id="SvgjsPath1023" d="M0,0 L14,5 L0,10 L0,0" fill="#323232" stroke="#323232" stroke-width="1"></path></marker><marker id="SvgjsMarker1034" markerWidth="14" markerHeight="10" refX="10" refY="5" viewBox="0 0 14 10" orient="auto" markerUnits="userSpaceOnUse" stroke-dasharray="0,0"><path id="SvgjsPath1035" d="M0,0 L14,5 L0,10 L0,0" fill="#323232" stroke="#323232" stroke-width="1"></path></marker></defs><g id="SvgjsG1008" transform="translate(52,95.99999237060547)"><path id="SvgjsPath1009" d="M 0 4Q 0 0 4 0L 96 0Q 100 0 100 4L 100 66Q 100 70 96 70L 4 70Q 0 70 0 66Z" stroke="rgba(50,50,50,1)" stroke-width="2" fill-opacity="1" fill="#ffffff"></path><g id="SvgjsG1010"><text id="SvgjsText1011" font-family="微软雅黑" text-anchor="middle" font-size="13px" width="80px" fill="#323232" font-weight="400" align="middle" lineHeight="125%" anchor="middle" family="微软雅黑" size="13px" weight="400" font-style="" opacity="1" y="24.375" transform="rotate(0)"><tspan id="SvgjsTspan1012" dy="16" x="50"><tspan id="SvgjsTspan1013" style="text-decoration:;">客户端</tspan></tspan></text></g></g><g id="SvgjsG1014" transform="translate(561,95.99999237060547)"><path id="SvgjsPath1015" d="M 0 4Q 0 0 4 0L 257 0Q 261 0 261 4L 261 83Q 261 87 257 87L 4 87Q 0 87 0 83Z" stroke="rgba(50,50,50,1)" stroke-width="2" fill-opacity="1" fill="#ffffff"></path><g id="SvgjsG1016"><text id="SvgjsText1017" font-family="微软雅黑" text-anchor="middle" font-size="13px" width="241px" fill="#323232" font-weight="400" align="middle" lineHeight="125%" anchor="middle" family="微软雅黑" size="13px" weight="400" font-style="" opacity="1" y="32.875" transform="rotate(0)"><tspan id="SvgjsTspan1018" dy="16" x="130.5"><tspan id="SvgjsTspan1019" style="text-decoration:;">认证服务</tspan></tspan></text></g></g><g id="SvgjsG1020"><path id="SvgjsPath1021" d="M153 109.99999046325684L352.5 109.99999046325684L352.5 109.99999046325684L553 109.99999046325684" stroke="#323232" stroke-width="2" fill="none" marker-end="url(#SvgjsMarker1022)"></path></g><g id="SvgjsG1024" transform="translate(205.5,79.99999237060547)"><path id="SvgjsPath1025" d="M 0 0L 286 0L 302 16L 302 24L 0 24L 0 0Z" stroke="none" fill-opacity="1" fill="#ffffaa"></path><path id="SvgjsPath1026" d="M 286 0L 286 16L 302 16Z" stroke="none" fill-opacity="1" fill="#cdcdcd"></path><path id="SvgjsPath1027" d="M 0 0L 286 0L 302 16L 302 24L 0 24L 0 0Z" stroke="none" fill="none"></path><g id="SvgjsG1028"><text id="SvgjsText1029" font-family="微软雅黑" text-anchor="middle" font-size="13px" width="282px" fill="#323232" font-weight="400" align="middle" lineHeight="125%" anchor="middle" family="微软雅黑" size="13px" weight="400" font-style="" opacity="1" y="1.375" transform="rotate(0)"><tspan id="SvgjsTspan1030" dy="16" x="151"><tspan id="SvgjsTspan1031" style="text-decoration:;">携带用户名与密码</tspan></tspan></text></g></g><g id="SvgjsG1032"><path id="SvgjsPath1033" d="M560 139.49999237060547L356 139.49999237060547L356 139.49999237060547L154.6 139.49999237060547" stroke="#323232" stroke-width="2" fill="none" marker-end="url(#SvgjsMarker1034)"></path></g><g id="SvgjsG1036" transform="translate(205.5,147.99999237060547)"><path id="SvgjsPath1037" d="M 0 0L 286 0L 302 16L 302 24L 0 24L 0 0Z" stroke="none" fill-opacity="1" fill="#ffffaa"></path><path id="SvgjsPath1038" d="M 286 0L 286 16L 302 16Z" stroke="none" fill-opacity="1" fill="#cdcdcd"></path><path id="SvgjsPath1039" d="M 0 0L 286 0L 302 16L 302 24L 0 24L 0 0Z" stroke="none" fill="none"></path><g id="SvgjsG1040"><text id="SvgjsText1041" font-family="微软雅黑" text-anchor="middle" font-size="13px" width="282px" fill="#323232" font-weight="400" align="middle" lineHeight="125%" anchor="middle" family="微软雅黑" size="13px" weight="400" font-style="" opacity="1" y="1.375" transform="rotate(0)"><tspan id="SvgjsTspan1042" dy="16" x="151"><tspan id="SvgjsTspan1043" style="text-decoration:;">校验成功返回token</tspan></tspan></text></g></g><g id="SvgjsG1044" transform="translate(564.5,24.99999237060547)"><path id="SvgjsPath1045" d="M 0 0L 238 0L 254 16L 254 55L 0 55L 0 0Z" stroke="none" fill-opacity="1" fill="#ffffaa"></path><path id="SvgjsPath1046" d="M 238 0L 238 16L 254 16Z" stroke="none" fill-opacity="1" fill="#cdcdcd"></path><path id="SvgjsPath1047" d="M 0 0L 238 0L 254 16L 254 55L 0 55L 0 0Z" stroke="none" fill="none"></path><g id="SvgjsG1048"><text id="SvgjsText1049" font-family="微软雅黑" text-anchor="middle" font-size="13px" width="234px" fill="#323232" font-weight="400" align="middle" lineHeight="125%" anchor="middle" family="微软雅黑" size="13px" weight="400" font-style="" opacity="1" y="16.875" transform="rotate(0)"><tspan id="SvgjsTspan1050" dy="16" x="127"><tspan id="SvgjsTspan1051" style="text-decoration:;">用户名与密码进行校验</tspan></tspan></text></g></g><g id="SvgjsG1052" transform="translate(25,204.99999237060547)"><path id="SvgjsPath1053" d="M 0 0L 138 0L 154 16L 154 58L 0 58L 0 0Z" stroke="none" fill-opacity="1" fill="#ffffaa"></path><path id="SvgjsPath1054" d="M 138 0L 138 16L 154 16Z" stroke="none" fill-opacity="1" fill="#cdcdcd"></path><path id="SvgjsPath1055" d="M 0 0L 138 0L 154 16L 154 58L 0 58L 0 0Z" stroke="none" fill="none"></path><g id="SvgjsG1056"><text id="SvgjsText1057" font-family="微软雅黑" text-anchor="middle" font-size="13px" width="134px" fill="#323232" font-weight="400" align="middle" lineHeight="125%" anchor="middle" family="微软雅黑" size="13px" weight="400" font-style="" opacity="1" y="9.875" transform="rotate(0)"><tspan id="SvgjsTspan1058" dy="16" x="77"><tspan id="SvgjsTspan1059" style="text-decoration:;">校验成功过后,每次请求</tspan></tspan><tspan id="SvgjsTspan1060" dy="16" x="77"><tspan id="SvgjsTspan1061" style="text-decoration:;">都必须携带token</tspan></tspan></text></g></g></svg>