<svg id="SvgjsSvg1006" width="707.09375" height="371.81251525878906" xmlns="http://www.w3.org/2000/svg" version="1.1" xmlns:xlink="http://www.w3.org/1999/xlink" xmlns:svgjs="http://svgjs.com/svgjs"><defs id="SvgjsDefs1007"><marker id="SvgjsMarker1028" markerWidth="14" markerHeight="10" refX="10" refY="5" viewBox="0 0 14 10" orient="auto" markerUnits="userSpaceOnUse" stroke-dasharray="0,0"><path id="SvgjsPath1029" d="M0,0 L14,5 L0,10 L0,0" fill="#323232" stroke="#323232" stroke-width="1"></path></marker><marker id="SvgjsMarker1040" markerWidth="14" markerHeight="10" refX="10" refY="5" viewBox="0 0 14 10" orient="auto" markerUnits="userSpaceOnUse" stroke-dasharray="0,0"><path id="SvgjsPath1041" d="M0,0 L14,5 L0,10 L0,0" fill="#323232" stroke="#323232" stroke-width="1"></path></marker><marker id="SvgjsMarker1052" markerWidth="14" markerHeight="10" refX="10" refY="5" viewBox="0 0 14 10" orient="auto" markerUnits="userSpaceOnUse" stroke-dasharray="0,0"><path id="SvgjsPath1053" d="M0,0 L14,5 L0,10 L0,0" fill="#323232" stroke="#323232" stroke-width="1"></path></marker><marker id="SvgjsMarker1064" markerWidth="14" markerHeight="10" refX="10" refY="5" viewBox="0 0 14 10" orient="auto" markerUnits="userSpaceOnUse" stroke-dasharray="0,0"><path id="SvgjsPath1065" d="M0,0 L14,5 L0,10 L0,0" fill="#323232" stroke="#323232" stroke-width="1"></path></marker></defs><g id="SvgjsG1008" transform="translate(25.010406494140625,45.45832824707031)"><path id="SvgjsPath1009" d="M 0 4Q 0 0 4 0L 106 0Q 110 0 110 4L 110 291Q 110 295 106 295L 4 295Q 0 295 0 291Z" stroke="rgba(50,50,50,1)" stroke-width="2" fill-opacity="1" fill="#ffffff"></path><g id="SvgjsG1010"><text id="SvgjsText1011" font-family="微软雅黑" text-anchor="middle" font-size="13px" width="90px" fill="#323232" font-weight="400" align="middle" lineHeight="125%" anchor="middle" family="微软雅黑" size="13px" weight="400" font-style="" opacity="1" y="136.875" transform="rotate(0)"><tspan id="SvgjsTspan1012" dy="16" x="55"><tspan id="SvgjsTspan1013" style="text-decoration:;">客户端</tspan></tspan></text></g></g><g id="SvgjsG1014" transform="translate(529.0104175914419,45.45832824707031)"><path id="SvgjsPath1015" d="M 0 4Q 0 0 4 0L 96 0Q 100 0 100 4L 100 66Q 100 70 96 70L 4 70Q 0 70 0 66Z" stroke="rgba(50,50,50,1)" stroke-width="2" fill-opacity="1" fill="#ffffff"></path><g id="SvgjsG1016"><text id="SvgjsText1017" font-family="微软雅黑" text-anchor="middle" font-size="13px" width="80px" fill="#323232" font-weight="400" align="middle" lineHeight="125%" anchor="middle" family="微软雅黑" size="13px" weight="400" font-style="" opacity="1" y="24.375" transform="rotate(0)"><tspan id="SvgjsTspan1018" dy="16" x="50"><tspan id="SvgjsTspan1019" style="text-decoration:;">认证服务器</tspan></tspan></text></g></g><g id="SvgjsG1020" transform="translate(498.1013266823509,216.36741915616153)"><path id="SvgjsPath1021" d="M 0 4Q 0 0 4 0L 179.6363636363635 0Q 183.6363636363635 0 183.6363636363635 4L 183.6363636363635 113.7272727272724Q 183.6363636363635 117.7272727272724 179.6363636363635 117.7272727272724L 4 117.7272727272724Q 0 117.7272727272724 0 113.7272727272724Z" stroke="rgba(50,50,50,1)" stroke-width="2" fill-opacity="1" fill="#ffffff"></path><g id="SvgjsG1022"><text id="SvgjsText1023" font-family="微软雅黑" text-anchor="middle" font-size="13px" width="164px" fill="#323232" font-weight="400" align="middle" lineHeight="125%" anchor="middle" family="微软雅黑" size="13px" weight="400" font-style="" opacity="1" y="48.2386363636362" transform="rotate(0)"><tspan id="SvgjsTspan1024" dy="16" x="92"><tspan id="SvgjsTspan1025" style="text-decoration:;">资源服务器</tspan></tspan></text></g></g><g id="SvgjsG1026"><path id="SvgjsPath1027" d="M135.4649630459872 59.54923733797938L332.1922357732599 59.54923733797938L332.1922357732599 59.54923733797938L526.3195085005326 59.54923733797938" stroke="#323232" stroke-width="2" fill="none" marker-end="url(#SvgjsMarker1028)"></path></g><g id="SvgjsG1030" transform="translate(228.1013266823502,25.003782792524873)"><path id="SvgjsPath1031" d="M 0 0L 205.81818181818187 0L 221.81818181818187 16L 221.81818181818187 29.99999999999997L 0 29.99999999999997L 0 0Z" stroke="none" fill-opacity="1" fill="#ffffaa"></path><path id="SvgjsPath1032" d="M 205.81818181818187 0L 205.81818181818187 16L 221.81818181818187 16Z" stroke="none" fill-opacity="1" fill="#cdcdcd"></path><path id="SvgjsPath1033" d="M 0 0L 205.81818181818187 0L 221.81818181818187 16L 221.81818181818187 29.99999999999997L 0 29.99999999999997L 0 0Z" stroke="none" fill="none"></path><g id="SvgjsG1034"><text id="SvgjsText1035" font-family="微软雅黑" text-anchor="middle" font-size="13px" width="202px" fill="#323232" font-weight="400" align="middle" lineHeight="125%" anchor="middle" family="微软雅黑" size="13px" weight="400" font-style="" opacity="1" y="4.374999999999986" transform="rotate(0)"><tspan id="SvgjsTspan1036" dy="16" x="111"><tspan id="SvgjsTspan1037" style="text-decoration:;">携带客户端信息到认证服务器</tspan></tspan></text></g></g><g id="SvgjsG1038"><path id="SvgjsPath1039" d="M528.9195085005326 95.00378279252482L332.1922357732599 95.00378279252482L332.1922357732599 95.00378279252482L138.06496304598718 95.00378279252482" stroke="#323232" stroke-width="2" fill="none" marker-end="url(#SvgjsMarker1040)"></path></g><g id="SvgjsG1042" transform="translate(228.10132668235025,102.27651006525207)"><path id="SvgjsPath1043" d="M 0 0L 205.81818181818187 0L 221.81818181818187 16L 221.81818181818187 29.99999999999997L 0 29.99999999999997L 0 0Z" stroke="none" fill-opacity="1" fill="#ffffaa"></path><path id="SvgjsPath1044" d="M 205.81818181818187 0L 205.81818181818187 16L 221.81818181818187 16Z" stroke="none" fill-opacity="1" fill="#cdcdcd"></path><path id="SvgjsPath1045" d="M 0 0L 205.81818181818187 0L 221.81818181818187 16L 221.81818181818187 29.99999999999997L 0 29.99999999999997L 0 0Z" stroke="none" fill="none"></path><g id="SvgjsG1046"><text id="SvgjsText1047" font-family="微软雅黑" text-anchor="middle" font-size="13px" width="202px" fill="#323232" font-weight="400" align="middle" lineHeight="125%" anchor="middle" family="微软雅黑" size="13px" weight="400" font-style="" opacity="1" y="4.374999999999986" transform="rotate(0)"><tspan id="SvgjsTspan1048" dy="16" x="111"><tspan id="SvgjsTspan1049" style="text-decoration:;">认证成功返回token</tspan></tspan></text></g></g><g id="SvgjsG1050"><path id="SvgjsPath1051" d="M135.4649630459872 241.3674191561612L316.7376903187145 241.3674191561612L316.7376903187145 241.3674191561612L495.4104175914417 241.3674191561612" stroke="#323232" stroke-width="2" fill="none" marker-end="url(#SvgjsMarker1052)"></path></g><g id="SvgjsG1054" transform="translate(205.6467756791548,203.1856009743434)"><path id="SvgjsPath1055" d="M 0 0L 205.81818181818187 0L 221.81818181818187 16L 221.81818181818187 29.99999999999997L 0 29.99999999999997L 0 0Z" stroke="none" fill-opacity="1" fill="#ffffaa"></path><path id="SvgjsPath1056" d="M 205.81818181818187 0L 205.81818181818187 16L 221.81818181818187 16Z" stroke="none" fill-opacity="1" fill="#cdcdcd"></path><path id="SvgjsPath1057" d="M 0 0L 205.81818181818187 0L 221.81818181818187 16L 221.81818181818187 29.99999999999997L 0 29.99999999999997L 0 0Z" stroke="none" fill="none"></path><g id="SvgjsG1058"><text id="SvgjsText1059" font-family="微软雅黑" text-anchor="middle" font-size="13px" width="202px" fill="#323232" font-weight="400" align="middle" lineHeight="125%" anchor="middle" family="微软雅黑" size="13px" weight="400" font-style="" opacity="1" y="4.374999999999986" transform="rotate(0)"><tspan id="SvgjsTspan1060" dy="16" x="111"><tspan id="SvgjsTspan1061" style="text-decoration:;">每次访问资源服务器都携带token</tspan></tspan></text></g></g><g id="SvgjsG1062"><path id="SvgjsPath1063" d="M498.01041759144175 307.73105551979756L316.7376903187145 307.73105551979756L316.7376903187145 307.73105551979756L138.06496304598718 307.73105551979756" stroke="#323232" stroke-width="2" fill="none" marker-end="url(#SvgjsMarker1064)"></path></g><g id="SvgjsG1066" transform="translate(205.6467756791548,316.82196461070714)"><path id="SvgjsPath1067" d="M 0 0L 205.81818181818187 0L 221.81818181818187 16L 221.81818181818187 29.99999999999997L 0 29.99999999999997L 0 0Z" stroke="none" fill-opacity="1" fill="#ffffaa"></path><path id="SvgjsPath1068" d="M 205.81818181818187 0L 205.81818181818187 16L 221.81818181818187 16Z" stroke="none" fill-opacity="1" fill="#cdcdcd"></path><path id="SvgjsPath1069" d="M 0 0L 205.81818181818187 0L 221.81818181818187 16L 221.81818181818187 29.99999999999997L 0 29.99999999999997L 0 0Z" stroke="none" fill="none"></path><g id="SvgjsG1070"><text id="SvgjsText1071" font-family="微软雅黑" text-anchor="middle" font-size="13px" width="202px" fill="#323232" font-weight="400" align="middle" lineHeight="125%" anchor="middle" family="微软雅黑" size="13px" weight="400" font-style="" opacity="1" y="4.374999999999986" transform="rotate(0)"><tspan id="SvgjsTspan1072" dy="16" x="111"><tspan id="SvgjsTspan1073" style="text-decoration:;">返回数据给客户端</tspan></tspan></text></g></g></svg>