<svg id="SvgjsSvg1120" width="1318" height="598.3333435058594" xmlns="http://www.w3.org/2000/svg" version="1.1" xmlns:xlink="http://www.w3.org/1999/xlink" xmlns:svgjs="http://svgjs.com/svgjs"><defs id="SvgjsDefs1121"><marker id="SvgjsMarker1156" markerWidth="14" markerHeight="10" refX="10" refY="5" viewBox="0 0 14 10" orient="auto" markerUnits="userSpaceOnUse" stroke-dasharray="0,0"><path id="SvgjsPath1157" d="M0,0 L14,5 L0,10 L0,0" fill="#323232" stroke="#323232" stroke-width="1"></path></marker><marker id="SvgjsMarker1160" markerWidth="14" markerHeight="10" refX="10" refY="5" viewBox="0 0 14 10" orient="auto" markerUnits="userSpaceOnUse" stroke-dasharray="0,0"><path id="SvgjsPath1161" d="M0,0 L14,5 L0,10 L0,0" fill="#323232" stroke="#323232" stroke-width="1"></path></marker><marker id="SvgjsMarker1176" markerWidth="14" markerHeight="10" refX="10" refY="5" viewBox="0 0 14 10" orient="auto" markerUnits="userSpaceOnUse" stroke-dasharray="0,0"><path id="SvgjsPath1177" d="M0,0 L14,5 L0,10 L0,0" fill="#323232" stroke="#323232" stroke-width="1"></path></marker><marker id="SvgjsMarker1198" markerWidth="14" markerHeight="10" refX="10" refY="5" viewBox="0 0 14 10" orient="auto" markerUnits="userSpaceOnUse" stroke-dasharray="0,0"><path id="SvgjsPath1199" d="M0,0 L14,5 L0,10 L0,0" fill="#323232" stroke="#323232" stroke-width="1"></path></marker><marker id="SvgjsMarker1202" markerWidth="14" markerHeight="10" refX="10" refY="5" viewBox="0 0 14 10" orient="auto" markerUnits="userSpaceOnUse" stroke-dasharray="0,0"><path id="SvgjsPath1203" d="M0,0 L14,5 L0,10 L0,0" fill="#323232" stroke="#323232" stroke-width="1"></path></marker><marker id="SvgjsMarker1214" markerWidth="14" markerHeight="10" refX="10" refY="5" viewBox="0 0 14 10" orient="auto" markerUnits="userSpaceOnUse" stroke-dasharray="0,0"><path id="SvgjsPath1215" d="M0,0 L14,5 L0,10 L0,0" fill="#323232" stroke="#323232" stroke-width="1"></path></marker><marker id="SvgjsMarker1222" markerWidth="14" markerHeight="10" refX="10" refY="5" viewBox="0 0 14 10" orient="auto" markerUnits="userSpaceOnUse" stroke-dasharray="0,0"><path id="SvgjsPath1223" d="M0,0 L14,5 L0,10 L0,0" fill="#323232" stroke="#323232" stroke-width="1"></path></marker><marker id="SvgjsMarker1230" markerWidth="14" markerHeight="10" refX="10" refY="5" viewBox="0 0 14 10" orient="auto" markerUnits="userSpaceOnUse" stroke-dasharray="0,0"><path id="SvgjsPath1231" d="M0,0 L14,5 L0,10 L0,0" fill="#323232" stroke="#323232" stroke-width="1"></path></marker></defs><g id="SvgjsG1122" transform="translate(171,225.66665649414062)"><path id="SvgjsPath1123" d="M 0 4Q 0 0 4 0L 86 0Q 90 0 90 4L 90 330.66666412353516Q 90 334.66666412353516 86 334.66666412353516L 4 334.66666412353516Q 0 334.66666412353516 0 330.66666412353516Z" stroke="rgba(50,50,50,1)" stroke-width="2" fill-opacity="1" fill="#ffffff"></path><g id="SvgjsG1124"><text id="SvgjsText1125" font-family="微软雅黑" text-anchor="middle" font-size="13px" width="70px" fill="#323232" font-weight="400" align="middle" lineHeight="125%" anchor="middle" family="微软雅黑" size="13px" weight="400" font-style="" opacity="1" y="156.70833206176758" transform="rotate(0)"><tspan id="SvgjsTspan1126" dy="16" x="45"><tspan id="SvgjsTspan1127" style="text-decoration:;">客户端</tspan></tspan></text></g></g><g id="SvgjsG1128" transform="translate(673,219.33332061767578)"><path id="SvgjsPath1129" d="M 0 4Q 0 0 4 0L 278 0Q 282 0 282 4L 282 109Q 282 113 278 113L 4 113Q 0 113 0 109Z" stroke="rgba(50,50,50,1)" stroke-width="2" fill-opacity="1" fill="#ffffff"></path><g id="SvgjsG1130"><text id="SvgjsText1131" font-family="微软雅黑" text-anchor="middle" font-size="13px" width="262px" fill="#323232" font-weight="400" align="middle" lineHeight="125%" anchor="middle" family="微软雅黑" size="13px" weight="400" font-style="" opacity="1" y="45.875" transform="rotate(0)"><tspan id="SvgjsTspan1132" dy="16" x="141"><tspan id="SvgjsTspan1133" style="text-decoration:;">认证授权服务器</tspan></tspan></text></g></g><g id="SvgjsG1134" transform="translate(673,460.3333206176758)"><path id="SvgjsPath1135" d="M 0 4Q 0 0 4 0L 278 0Q 282 0 282 4L 282 109Q 282 113 278 113L 4 113Q 0 113 0 109Z" stroke="rgba(50,50,50,1)" stroke-width="2" fill-opacity="1" fill="#ffffff"></path><g id="SvgjsG1136"><text id="SvgjsText1137" font-family="微软雅黑" text-anchor="middle" font-size="13px" width="262px" fill="#323232" font-weight="400" align="middle" lineHeight="125%" anchor="middle" family="微软雅黑" size="13px" weight="400" font-style="" opacity="1" y="45.875" transform="rotate(0)"><tspan id="SvgjsTspan1138" dy="16" x="141"><tspan id="SvgjsTspan1139" style="text-decoration:;">服务端</tspan></tspan></text></g></g><g id="SvgjsG1140" transform="translate(166,28.999984741210938)"><path id="SvgjsPath1141" d="M 0 4Q 0 0 4 0L 96 0Q 100 0 100 4L 100 66Q 100 70 96 70L 4 70Q 0 70 0 66Z" stroke="rgba(50,50,50,1)" stroke-width="2" fill-opacity="1" fill="#ffffff"></path><g id="SvgjsG1142"><text id="SvgjsText1143" font-family="微软雅黑" text-anchor="middle" font-size="13px" width="80px" fill="#323232" font-weight="400" align="middle" lineHeight="125%" anchor="middle" family="微软雅黑" size="13px" weight="400" font-style="" opacity="1" y="24.375" transform="rotate(0)"><tspan id="SvgjsTspan1144" dy="16" x="50"><tspan id="SvgjsTspan1145" style="text-decoration:;">用户</tspan></tspan></text></g></g><g id="SvgjsG1146" transform="translate(25,114.33332061767578)"><path id="SvgjsPath1147" d="M 0 0L 130 0L 146 16L 146 96L 0 96L 0 0Z" stroke="none" fill-opacity="1" fill="#ffffaa"></path><path id="SvgjsPath1148" d="M 130 0L 130 16L 146 16Z" stroke="none" fill-opacity="1" fill="#cdcdcd"></path><path id="SvgjsPath1149" d="M 0 0L 130 0L 146 16L 146 96L 0 96L 0 0Z" stroke="none" fill="none"></path><g id="SvgjsG1150"><text id="SvgjsText1151" font-family="微软雅黑" text-anchor="middle" font-size="13px" width="126px" fill="#323232" font-weight="400" align="middle" lineHeight="125%" anchor="middle" family="微软雅黑" size="13px" weight="400" font-style="" opacity="1" y="37.375" transform="rotate(0)"><tspan id="SvgjsTspan1152" dy="16" x="73"><tspan id="SvgjsTspan1153" style="text-decoration:;">客户端访问登录界面</tspan></tspan></text></g></g><g id="SvgjsG1154"><path id="SvgjsPath1155" d="M187 98.99998474121094L187 161.99998474121094L187 161.99998474121094L187 222.39998474121094" stroke="#323232" stroke-width="2" fill="none" marker-end="url(#SvgjsMarker1156)"></path></g><g id="SvgjsG1158"><path id="SvgjsPath1159" d="M248 224.99996948242188L248 161.99996948242188L248 161.99996948242188L248 101.59996948242187" stroke="#323232" stroke-width="2" fill="none" marker-end="url(#SvgjsMarker1160)"></path></g><g id="SvgjsG1162" transform="translate(266,133.99998474121094)"><path id="SvgjsPath1163" d="M 0 0L 472 0L 488 16L 488 61.99998474121094L 0 61.99998474121094L 0 0Z" stroke="none" fill-opacity="1" fill="#ffffaa"></path><path id="SvgjsPath1164" d="M 472 0L 472 16L 488 16Z" stroke="none" fill-opacity="1" fill="#cdcdcd"></path><path id="SvgjsPath1165" d="M 0 0L 472 0L 488 16L 488 61.99998474121094L 0 61.99998474121094L 0 0Z" stroke="none" fill="none"></path><g id="SvgjsG1166"><text id="SvgjsText1167" font-family="微软雅黑" text-anchor="middle" font-size="13px" width="468px" fill="#323232" font-weight="400" align="middle" lineHeight="125%" anchor="middle" family="微软雅黑" size="13px" weight="400" font-style="" opacity="1" y="3.8749923706054688" transform="rotate(0)"><tspan id="SvgjsTspan1168" dy="16" x="244"><tspan id="SvgjsTspan1169" style="text-decoration:;">返回支付宝登录界面链接</tspan></tspan><tspan id="SvgjsTspan1170" dy="16" x="244"><tspan id="SvgjsTspan1171" style="text-decoration:;">https://openauth.alipay.com/oauth2/publicAppAuthorize.htm?app_id=商户</tspan></tspan><tspan id="SvgjsTspan1172" dy="16" x="244"><tspan id="SvgjsTspan1173" style="text-decoration:;">的APPID&amp;scope=auth_user&amp;redirect_uri=ENCODED_URL&amp;state=init</tspan></tspan></text></g></g><g id="SvgjsG1174"><path id="SvgjsPath1175" d="M267 63.99998474121094L814 63.99998474121094L814 215.7333206176758" stroke="#323232" stroke-width="2" fill="none" marker-end="url(#SvgjsMarker1176)"></path></g><g id="SvgjsG1178" transform="translate(342,24.999969482421875)"><path id="SvgjsPath1179" d="M 0 0L 364 0L 380 16L 380 30L 0 30L 0 0Z" stroke="none" fill-opacity="1" fill="#ffffaa"></path><path id="SvgjsPath1180" d="M 364 0L 364 16L 380 16Z" stroke="none" fill-opacity="1" fill="#cdcdcd"></path><path id="SvgjsPath1181" d="M 0 0L 364 0L 380 16L 380 30L 0 30L 0 0Z" stroke="none" fill="none"></path><g id="SvgjsG1182"><text id="SvgjsText1183" font-family="微软雅黑" text-anchor="middle" font-size="13px" width="360px" fill="#323232" font-weight="400" align="middle" lineHeight="125%" anchor="middle" family="微软雅黑" size="13px" weight="400" font-style="" opacity="1" y="4.375" transform="rotate(0)"><tspan id="SvgjsTspan1184" dy="16" x="190"><tspan id="SvgjsTspan1185" style="text-decoration:;">用户登录成功</tspan></tspan></text></g></g><g id="SvgjsG1186" transform="translate(955,369.4999885559082)"><path id="SvgjsPath1187" d="M 0 0L 322 0L 338 16L 338 52.83333206176758L 0 52.83333206176758L 0 0Z" stroke="none" fill-opacity="1" fill="#ffffaa"></path><path id="SvgjsPath1188" d="M 322 0L 322 16L 338 16Z" stroke="none" fill-opacity="1" fill="#cdcdcd"></path><path id="SvgjsPath1189" d="M 0 0L 322 0L 338 16L 338 52.83333206176758L 0 52.83333206176758L 0 0Z" stroke="none" fill="none"></path><g id="SvgjsG1190"><text id="SvgjsText1191" font-family="微软雅黑" text-anchor="middle" font-size="13px" width="318px" fill="#323232" font-weight="400" align="middle" lineHeight="125%" anchor="middle" family="微软雅黑" size="13px" weight="400" font-style="" opacity="1" y="7.291666030883789" transform="rotate(0)"><tspan id="SvgjsTspan1192" dy="16" x="169"><tspan id="SvgjsTspan1193" style="text-decoration:;">用户登录成功,跳转到指定的服务器地址,并返回</tspan></tspan><tspan id="SvgjsTspan1194" dy="16" x="169"><tspan id="SvgjsTspan1195" style="text-decoration:;">app_id,scope,redirect_uri</tspan></tspan></text></g></g><g id="SvgjsG1196"><path id="SvgjsPath1197" d="M935 333.33332312107086L935 396.33332312107086L935 396.33332312107086L935 456.73332312107084" stroke="#323232" stroke-width="2" fill="none" marker-end="url(#SvgjsMarker1198)"></path></g><g id="SvgjsG1200"><path id="SvgjsPath1201" d="M681 459.3333206176758L681 396.3333206176758L681 396.3333206176758L681 335.9333206176758" stroke="#323232" stroke-width="2" fill="none" marker-end="url(#SvgjsMarker1202)"></path></g><g id="SvgjsG1204" transform="translate(500,340.0833225250244)"><path id="SvgjsPath1205" d="M 0 0L 150 0L 166 16L 166 105.83333206176758L 0 105.83333206176758L 0 0Z" stroke="none" fill-opacity="1" fill="#ffffaa"></path><path id="SvgjsPath1206" d="M 150 0L 150 16L 166 16Z" stroke="none" fill-opacity="1" fill="#cdcdcd"></path><path id="SvgjsPath1207" d="M 0 0L 150 0L 166 16L 166 105.83333206176758L 0 105.83333206176758L 0 0Z" stroke="none" fill="none"></path><g id="SvgjsG1208"><text id="SvgjsText1209" font-family="微软雅黑" text-anchor="middle" font-size="13px" width="146px" fill="#323232" font-weight="400" align="middle" lineHeight="125%" anchor="middle" family="微软雅黑" size="13px" weight="400" font-style="" opacity="1" y="42.29166603088379" transform="rotate(0)"><tspan id="SvgjsTspan1210" dy="16" x="83"><tspan id="SvgjsTspan1211" style="text-decoration:;">通过token获取用户信息</tspan></tspan></text></g></g><g id="SvgjsG1212"><path id="SvgjsPath1213" d="M845 460.3333206176758L845 395.3333206176758L845 395.3333206176758L845 333.9333206176758" stroke="#323232" stroke-width="2" fill="none" marker-end="url(#SvgjsMarker1214)"></path><rect id="SvgjsRect1216" width="118" height="16" x="786" y="389.1333206176758" fill="#ffffff"></rect><text id="SvgjsText1217" font-family="微软雅黑" text-anchor="middle" font-size="13px" width="118px" fill="#323232" font-weight="400" align="top" lineHeight="16px" anchor="middle" family="微软雅黑" size="13px" weight="400" font-style="" opacity="1" y="386.5083206176758" transform="rotate(0)"><tspan id="SvgjsTspan1218" dy="16" x="845"><tspan id="SvgjsTspan1219" style="text-decoration:;">通过code获取token</tspan></tspan></text></g><g id="SvgjsG1220"><path id="SvgjsPath1221" d="M745 332.3333206176758L745 395.8333206176758L745 395.8333206176758L745 456.73332061767576" stroke="#323232" stroke-width="2" fill="none" marker-end="url(#SvgjsMarker1222)"></path><rect id="SvgjsRect1224" width="61" height="16" x="714.5" y="386.53332061767577" fill="#ffffff"></rect><text id="SvgjsText1225" font-family="微软雅黑" text-anchor="middle" font-size="13px" width="61px" fill="#323232" font-weight="400" align="top" lineHeight="16px" anchor="middle" family="微软雅黑" size="13px" weight="400" font-style="" opacity="1" y="383.90832061767577" transform="rotate(0)"><tspan id="SvgjsTspan1226" dy="16" x="745"><tspan id="SvgjsTspan1227" style="text-decoration:;">返回token</tspan></tspan></text></g><g id="SvgjsG1228"><path id="SvgjsPath1229" d="M672 516.8333206176758L470.83333333333337 516.8333206176758L470.83333333333337 516.8333206176758L268.6666666666667 516.8333206176758" stroke="#323232" stroke-width="2" fill="none" marker-end="url(#SvgjsMarker1230)"></path></g><g id="SvgjsG1232" transform="translate(334.27778625488276,529)"><path id="SvgjsPath1233" d="M 0 0L 249.44442749023438 0L 265.4444274902344 16L 265.4444274902344 44.33332061767578L 0 44.33332061767578L 0 0Z" stroke="none" fill-opacity="1" fill="#ffffaa"></path><path id="SvgjsPath1234" d="M 249.44442749023438 0L 249.44442749023438 16L 265.4444274902344 16Z" stroke="none" fill-opacity="1" fill="#cdcdcd"></path><path id="SvgjsPath1235" d="M 0 0L 249.44442749023438 0L 265.4444274902344 16L 265.4444274902344 44.33332061767578L 0 44.33332061767578L 0 0Z" stroke="none" fill="none"></path><g id="SvgjsG1236"><text id="SvgjsText1237" font-family="微软雅黑" text-anchor="middle" font-size="13px" width="246px" fill="#323232" font-weight="400" align="middle" lineHeight="125%" anchor="middle" family="微软雅黑" size="13px" weight="400" font-style="" opacity="1" y="11.54166030883789" transform="rotate(0)"><tspan id="SvgjsTspan1238" dy="16" x="133"><tspan id="SvgjsTspan1239" style="text-decoration:;">通过token获取到的数据返回给客户端</tspan></tspan></text></g></g></svg>