<svg id="SvgjsSvg1006" width="1318" height="598.3333282470703" xmlns="http://www.w3.org/2000/svg" version="1.1" xmlns:xlink="http://www.w3.org/1999/xlink" xmlns:svgjs="http://svgjs.com/svgjs"><defs id="SvgjsDefs1007"><marker id="SvgjsMarker1042" markerWidth="14" markerHeight="10" refX="10" refY="5" viewBox="0 0 14 10" orient="auto" markerUnits="userSpaceOnUse" stroke-dasharray="0,0"><path id="SvgjsPath1043" d="M0,0 L14,5 L0,10 L0,0" fill="#323232" stroke="#323232" stroke-width="1"></path></marker><marker id="SvgjsMarker1046" markerWidth="14" markerHeight="10" refX="10" refY="5" viewBox="0 0 14 10" orient="auto" markerUnits="userSpaceOnUse" stroke-dasharray="0,0"><path id="SvgjsPath1047" d="M0,0 L14,5 L0,10 L0,0" fill="#323232" stroke="#323232" stroke-width="1"></path></marker><marker id="SvgjsMarker1058" markerWidth="14" markerHeight="10" refX="10" refY="5" viewBox="0 0 14 10" orient="auto" markerUnits="userSpaceOnUse" stroke-dasharray="0,0"><path id="SvgjsPath1059" d="M0,0 L14,5 L0,10 L0,0" fill="#323232" stroke="#323232" stroke-width="1"></path></marker><marker id="SvgjsMarker1078" markerWidth="14" markerHeight="10" refX="10" refY="5" viewBox="0 0 14 10" orient="auto" markerUnits="userSpaceOnUse" stroke-dasharray="0,0"><path id="SvgjsPath1079" d="M0,0 L14,5 L0,10 L0,0" fill="#323232" stroke="#323232" stroke-width="1"></path></marker><marker id="SvgjsMarker1082" markerWidth="14" markerHeight="10" refX="10" refY="5" viewBox="0 0 14 10" orient="auto" markerUnits="userSpaceOnUse" stroke-dasharray="0,0"><path id="SvgjsPath1083" d="M0,0 L14,5 L0,10 L0,0" fill="#323232" stroke="#323232" stroke-width="1"></path></marker><marker id="SvgjsMarker1094" markerWidth="14" markerHeight="10" refX="10" refY="5" viewBox="0 0 14 10" orient="auto" markerUnits="userSpaceOnUse" stroke-dasharray="0,0"><path id="SvgjsPath1095" d="M0,0 L14,5 L0,10 L0,0" fill="#323232" stroke="#323232" stroke-width="1"></path></marker><marker id="SvgjsMarker1102" markerWidth="14" markerHeight="10" refX="10" refY="5" viewBox="0 0 14 10" orient="auto" markerUnits="userSpaceOnUse" stroke-dasharray="0,0"><path id="SvgjsPath1103" d="M0,0 L14,5 L0,10 L0,0" fill="#323232" stroke="#323232" stroke-width="1"></path></marker><marker id="SvgjsMarker1110" markerWidth="14" markerHeight="10" refX="10" refY="5" viewBox="0 0 14 10" orient="auto" markerUnits="userSpaceOnUse" stroke-dasharray="0,0"><path id="SvgjsPath1111" d="M0,0 L14,5 L0,10 L0,0" fill="#323232" stroke="#323232" stroke-width="1"></path></marker></defs><g id="SvgjsG1008" transform="translate(171,225.6666717529297)"><path id="SvgjsPath1009" d="M 0 4Q 0 0 4 0L 86 0Q 90 0 90 4L 90 330.66666412353516Q 90 334.66666412353516 86 334.66666412353516L 4 334.66666412353516Q 0 334.66666412353516 0 330.66666412353516Z" stroke="rgba(50,50,50,1)" stroke-width="2" fill-opacity="1" fill="#ffffff"></path><g id="SvgjsG1010"><text id="SvgjsText1011" font-family="微软雅黑" text-anchor="middle" font-size="13px" width="70px" fill="#323232" font-weight="400" align="middle" lineHeight="125%" anchor="middle" family="微软雅黑" size="13px" weight="400" font-style="" opacity="1" y="156.70833206176758" transform="rotate(0)"><tspan id="SvgjsTspan1012" dy="16" x="45"><tspan id="SvgjsTspan1013" style="text-decoration:;">客户端</tspan></tspan></text></g></g><g id="SvgjsG1014" transform="translate(673,219.33333587646484)"><path id="SvgjsPath1015" d="M 0 4Q 0 0 4 0L 278 0Q 282 0 282 4L 282 109Q 282 113 278 113L 4 113Q 0 113 0 109Z" stroke="rgba(50,50,50,1)" stroke-width="2" fill-opacity="1" fill="#ffffff"></path><g id="SvgjsG1016"><text id="SvgjsText1017" font-family="微软雅黑" text-anchor="middle" font-size="13px" width="262px" fill="#323232" font-weight="400" align="middle" lineHeight="125%" anchor="middle" family="微软雅黑" size="13px" weight="400" font-style="" opacity="1" y="45.875" transform="rotate(0)"><tspan id="SvgjsTspan1018" dy="16" x="141"><tspan id="SvgjsTspan1019" style="text-decoration:;">认证授权服务器</tspan></tspan></text></g></g><g id="SvgjsG1020" transform="translate(673,460.33333587646484)"><path id="SvgjsPath1021" d="M 0 4Q 0 0 4 0L 278 0Q 282 0 282 4L 282 109Q 282 113 278 113L 4 113Q 0 113 0 109Z" stroke="rgba(50,50,50,1)" stroke-width="2" fill-opacity="1" fill="#ffffff"></path><g id="SvgjsG1022"><text id="SvgjsText1023" font-family="微软雅黑" text-anchor="middle" font-size="13px" width="262px" fill="#323232" font-weight="400" align="middle" lineHeight="125%" anchor="middle" family="微软雅黑" size="13px" weight="400" font-style="" opacity="1" y="45.875" transform="rotate(0)"><tspan id="SvgjsTspan1024" dy="16" x="141"><tspan id="SvgjsTspan1025" style="text-decoration:;">服务端</tspan></tspan></text></g></g><g id="SvgjsG1026" transform="translate(166,29)"><path id="SvgjsPath1027" d="M 0 4Q 0 0 4 0L 96 0Q 100 0 100 4L 100 66Q 100 70 96 70L 4 70Q 0 70 0 66Z" stroke="rgba(50,50,50,1)" stroke-width="2" fill-opacity="1" fill="#ffffff"></path><g id="SvgjsG1028"><text id="SvgjsText1029" font-family="微软雅黑" text-anchor="middle" font-size="13px" width="80px" fill="#323232" font-weight="400" align="middle" lineHeight="125%" anchor="middle" family="微软雅黑" size="13px" weight="400" font-style="" opacity="1" y="24.375" transform="rotate(0)"><tspan id="SvgjsTspan1030" dy="16" x="50"><tspan id="SvgjsTspan1031" style="text-decoration:;">用户</tspan></tspan></text></g></g><g id="SvgjsG1032" transform="translate(25,114.33333587646484)"><path id="SvgjsPath1033" d="M 0 0L 130 0L 146 16L 146 96L 0 96L 0 0Z" stroke="none" fill-opacity="1" fill="#ffffaa"></path><path id="SvgjsPath1034" d="M 130 0L 130 16L 146 16Z" stroke="none" fill-opacity="1" fill="#cdcdcd"></path><path id="SvgjsPath1035" d="M 0 0L 130 0L 146 16L 146 96L 0 96L 0 0Z" stroke="none" fill="none"></path><g id="SvgjsG1036"><text id="SvgjsText1037" font-family="微软雅黑" text-anchor="middle" font-size="13px" width="126px" fill="#323232" font-weight="400" align="middle" lineHeight="125%" anchor="middle" family="微软雅黑" size="13px" weight="400" font-style="" opacity="1" y="37.375" transform="rotate(0)"><tspan id="SvgjsTspan1038" dy="16" x="73"><tspan id="SvgjsTspan1039" style="text-decoration:;">客户端访问登录界面</tspan></tspan></text></g></g><g id="SvgjsG1040"><path id="SvgjsPath1041" d="M187 99L187 162L187 162L187 222.4" stroke="#323232" stroke-width="2" fill="none" marker-end="url(#SvgjsMarker1042)"></path></g><g id="SvgjsG1044"><path id="SvgjsPath1045" d="M248 224.99998474121094L248 161.99998474121094L248 161.99998474121094L248 101.59998474121093" stroke="#323232" stroke-width="2" fill="none" marker-end="url(#SvgjsMarker1046)"></path></g><g id="SvgjsG1048" transform="translate(266,134)"><path id="SvgjsPath1049" d="M 0 0L 153 0L 169 16L 169 39.99998474121094L 0 39.99998474121094L 0 0Z" stroke="none" fill-opacity="1" fill="#ffffaa"></path><path id="SvgjsPath1050" d="M 153 0L 153 16L 169 16Z" stroke="none" fill-opacity="1" fill="#cdcdcd"></path><path id="SvgjsPath1051" d="M 0 0L 153 0L 169 16L 169 39.99998474121094L 0 39.99998474121094L 0 0Z" stroke="none" fill="none"></path><g id="SvgjsG1052"><text id="SvgjsText1053" font-family="微软雅黑" text-anchor="middle" font-size="13px" width="149px" fill="#323232" font-weight="400" align="middle" lineHeight="125%" anchor="middle" family="微软雅黑" size="13px" weight="400" font-style="" opacity="1" y="9.374992370605469" transform="rotate(0)"><tspan id="SvgjsTspan1054" dy="16" x="84.5"><tspan id="SvgjsTspan1055" style="text-decoration:;">返回登录界面链接</tspan></tspan></text></g></g><g id="SvgjsG1056"><path id="SvgjsPath1057" d="M267 64L814 64L814 215.73333587646485" stroke="#323232" stroke-width="2" fill="none" marker-end="url(#SvgjsMarker1058)"></path></g><g id="SvgjsG1060" transform="translate(342,24.999984741210938)"><path id="SvgjsPath1061" d="M 0 0L 364 0L 380 16L 380 30L 0 30L 0 0Z" stroke="none" fill-opacity="1" fill="#ffffaa"></path><path id="SvgjsPath1062" d="M 364 0L 364 16L 380 16Z" stroke="none" fill-opacity="1" fill="#cdcdcd"></path><path id="SvgjsPath1063" d="M 0 0L 364 0L 380 16L 380 30L 0 30L 0 0Z" stroke="none" fill="none"></path><g id="SvgjsG1064"><text id="SvgjsText1065" font-family="微软雅黑" text-anchor="middle" font-size="13px" width="360px" fill="#323232" font-weight="400" align="middle" lineHeight="125%" anchor="middle" family="微软雅黑" size="13px" weight="400" font-style="" opacity="1" y="4.375" transform="rotate(0)"><tspan id="SvgjsTspan1066" dy="16" x="190"><tspan id="SvgjsTspan1067" style="text-decoration:;">用户登录成功</tspan></tspan></text></g></g><g id="SvgjsG1068" transform="translate(955,369.50000381469727)"><path id="SvgjsPath1069" d="M 0 0L 322 0L 338 16L 338 52.83333206176758L 0 52.83333206176758L 0 0Z" stroke="none" fill-opacity="1" fill="#ffffaa"></path><path id="SvgjsPath1070" d="M 322 0L 322 16L 338 16Z" stroke="none" fill-opacity="1" fill="#cdcdcd"></path><path id="SvgjsPath1071" d="M 0 0L 322 0L 338 16L 338 52.83333206176758L 0 52.83333206176758L 0 0Z" stroke="none" fill="none"></path><g id="SvgjsG1072"><text id="SvgjsText1073" font-family="微软雅黑" text-anchor="middle" font-size="13px" width="318px" fill="#323232" font-weight="400" align="middle" lineHeight="125%" anchor="middle" family="微软雅黑" size="13px" weight="400" font-style="" opacity="1" y="15.791666030883789" transform="rotate(0)"><tspan id="SvgjsTspan1074" dy="16" x="169"><tspan id="SvgjsTspan1075" style="text-decoration:;">用户登录成功,跳转到指定的服务器地址,并返回code</tspan></tspan></text></g></g><g id="SvgjsG1076"><path id="SvgjsPath1077" d="M935 333.3333383798599L935 396.3333383798599L935 396.3333383798599L935 456.7333383798599" stroke="#323232" stroke-width="2" fill="none" marker-end="url(#SvgjsMarker1078)"></path></g><g id="SvgjsG1080"><path id="SvgjsPath1081" d="M681 459.33333587646484L681 396.33333587646484L681 396.33333587646484L681 335.93333587646487" stroke="#323232" stroke-width="2" fill="none" marker-end="url(#SvgjsMarker1082)"></path></g><g id="SvgjsG1084" transform="translate(500,340.0833377838135)"><path id="SvgjsPath1085" d="M 0 0L 150 0L 166 16L 166 105.83333206176758L 0 105.83333206176758L 0 0Z" stroke="none" fill-opacity="1" fill="#ffffaa"></path><path id="SvgjsPath1086" d="M 150 0L 150 16L 166 16Z" stroke="none" fill-opacity="1" fill="#cdcdcd"></path><path id="SvgjsPath1087" d="M 0 0L 150 0L 166 16L 166 105.83333206176758L 0 105.83333206176758L 0 0Z" stroke="none" fill="none"></path><g id="SvgjsG1088"><text id="SvgjsText1089" font-family="微软雅黑" text-anchor="middle" font-size="13px" width="146px" fill="#323232" font-weight="400" align="middle" lineHeight="125%" anchor="middle" family="微软雅黑" size="13px" weight="400" font-style="" opacity="1" y="42.29166603088379" transform="rotate(0)"><tspan id="SvgjsTspan1090" dy="16" x="83"><tspan id="SvgjsTspan1091" style="text-decoration:;">通过token获取用户信息</tspan></tspan></text></g></g><g id="SvgjsG1092"><path id="SvgjsPath1093" d="M845 460.33333587646484L845 395.33333587646484L845 395.33333587646484L845 333.93333587646487" stroke="#323232" stroke-width="2" fill="none" marker-end="url(#SvgjsMarker1094)"></path><rect id="SvgjsRect1096" width="118" height="16" x="786" y="389.13333587646486" fill="#ffffff"></rect><text id="SvgjsText1097" font-family="微软雅黑" text-anchor="middle" font-size="13px" width="118px" fill="#323232" font-weight="400" align="top" lineHeight="16px" anchor="middle" family="微软雅黑" size="13px" weight="400" font-style="" opacity="1" y="386.50833587646486" transform="rotate(0)"><tspan id="SvgjsTspan1098" dy="16" x="845"><tspan id="SvgjsTspan1099" style="text-decoration:;">通过code获取token</tspan></tspan></text></g><g id="SvgjsG1100"><path id="SvgjsPath1101" d="M745 332.33333587646484L745 395.83333587646484L745 395.83333587646484L745 456.7333358764648" stroke="#323232" stroke-width="2" fill="none" marker-end="url(#SvgjsMarker1102)"></path><rect id="SvgjsRect1104" width="61" height="16" x="714.5" y="386.53333587646483" fill="#ffffff"></rect><text id="SvgjsText1105" font-family="微软雅黑" text-anchor="middle" font-size="13px" width="61px" fill="#323232" font-weight="400" align="top" lineHeight="16px" anchor="middle" family="微软雅黑" size="13px" weight="400" font-style="" opacity="1" y="383.90833587646483" transform="rotate(0)"><tspan id="SvgjsTspan1106" dy="16" x="745"><tspan id="SvgjsTspan1107" style="text-decoration:;">返回token</tspan></tspan></text></g><g id="SvgjsG1108"><path id="SvgjsPath1109" d="M672 516.8333358764648L470.83333333333337 516.8333358764648L470.83333333333337 516.8333358764648L268.6666666666667 516.8333358764648" stroke="#323232" stroke-width="2" fill="none" marker-end="url(#SvgjsMarker1110)"></path></g><g id="SvgjsG1112" transform="translate(334.27778625488276,529.0000152587891)"><path id="SvgjsPath1113" d="M 0 0L 249.44442749023438 0L 265.4444274902344 16L 265.4444274902344 44.33332061767578L 0 44.33332061767578L 0 0Z" stroke="none" fill-opacity="1" fill="#ffffaa"></path><path id="SvgjsPath1114" d="M 249.44442749023438 0L 249.44442749023438 16L 265.4444274902344 16Z" stroke="none" fill-opacity="1" fill="#cdcdcd"></path><path id="SvgjsPath1115" d="M 0 0L 249.44442749023438 0L 265.4444274902344 16L 265.4444274902344 44.33332061767578L 0 44.33332061767578L 0 0Z" stroke="none" fill="none"></path><g id="SvgjsG1116"><text id="SvgjsText1117" font-family="微软雅黑" text-anchor="middle" font-size="13px" width="246px" fill="#323232" font-weight="400" align="middle" lineHeight="125%" anchor="middle" family="微软雅黑" size="13px" weight="400" font-style="" opacity="1" y="11.54166030883789" transform="rotate(0)"><tspan id="SvgjsTspan1118" dy="16" x="133"><tspan id="SvgjsTspan1119" style="text-decoration:;">通过token获取到的数据返回给客户端</tspan></tspan></text></g></g></svg>