<svg id="SvgjsSvg1454" width="811.78125" height="431.10416412353516" xmlns="http://www.w3.org/2000/svg" version="1.1" xmlns:xlink="http://www.w3.org/1999/xlink" xmlns:svgjs="http://svgjs.com/svgjs"><defs id="SvgjsDefs1455"><marker id="SvgjsMarker1478" markerWidth="14" markerHeight="10" refX="10" refY="5" viewBox="0 0 14 10" orient="auto" markerUnits="userSpaceOnUse" stroke-dasharray="0,0"><path id="SvgjsPath1479" d="M0,0 L14,5 L0,10 L0,0" fill="#323232" stroke="#323232" stroke-width="1"></path></marker><marker id="SvgjsMarker1488" markerWidth="14" markerHeight="10" refX="10" refY="5" viewBox="0 0 14 10" orient="auto" markerUnits="userSpaceOnUse" stroke-dasharray="0,0"><path id="SvgjsPath1489" d="M0,0 L14,5 L0,10 L0,0" fill="#323232" stroke="#323232" stroke-width="1"></path></marker><marker id="SvgjsMarker1492" markerWidth="14" markerHeight="10" refX="10" refY="5" viewBox="0 0 14 10" orient="auto" markerUnits="userSpaceOnUse" stroke-dasharray="0,0"><path id="SvgjsPath1493" d="M0,0 L14,5 L0,10 L0,0" fill="#323232" stroke="#323232" stroke-width="1"></path></marker></defs><g id="SvgjsG1456" transform="translate(25.00347222222217,336.10532124837243)"><path id="SvgjsPath1457" d="M 0 4Q 0 0 4 0L 96 0Q 100 0 100 4L 100 66Q 100 70 96 70L 4 70Q 0 70 0 66Z" stroke="rgba(50,50,50,1)" stroke-width="2" fill-opacity="1" fill="#ffffff"></path><g id="SvgjsG1458"><text id="SvgjsText1459" font-family="微软雅黑" text-anchor="middle" font-size="13px" width="80px" fill="#323232" font-weight="400" align="middle" lineHeight="125%" anchor="middle" family="微软雅黑" size="13px" weight="400" font-style="" opacity="1" y="24.375" transform="rotate(0)"><tspan id="SvgjsTspan1460" dy="16" x="50"><tspan id="SvgjsTspan1461" style="text-decoration:;">服务端1</tspan></tspan></text></g></g><g id="SvgjsG1462" transform="translate(451.67013888888823,336.1053212483725)"><path id="SvgjsPath1463" d="M 0 4Q 0 0 4 0L 96 0Q 100 0 100 4L 100 66Q 100 70 96 70L 4 70Q 0 70 0 66Z" stroke="rgba(50,50,50,1)" stroke-width="2" fill-opacity="1" fill="#ffffff"></path><g id="SvgjsG1464"><text id="SvgjsText1465" font-family="微软雅黑" text-anchor="middle" font-size="13px" width="80px" fill="#323232" font-weight="400" align="middle" lineHeight="125%" anchor="middle" family="微软雅黑" size="13px" weight="400" font-style="" opacity="1" y="24.375" transform="rotate(0)"><tspan id="SvgjsTspan1466" dy="16" x="50"><tspan id="SvgjsTspan1467" style="text-decoration:;">服务端2</tspan></tspan></text></g></g><g id="SvgjsG1468" transform="translate(255.0034722222224,24.994210137261305)"><path id="SvgjsPath1469" d="M 0 0L 64 0L 80 16L 80 100L 0 100L 0 0Z" stroke="none" fill-opacity="1" fill="#ffffaa"></path><path id="SvgjsPath1470" d="M 64 0L 64 16L 80 16Z" stroke="none" fill-opacity="1" fill="#cdcdcd"></path><path id="SvgjsPath1471" d="M 0 0L 64 0L 80 16L 80 100L 0 100L 0 0Z" stroke="none" fill="none"></path><g id="SvgjsG1472"><text id="SvgjsText1473" font-family="微软雅黑" text-anchor="middle" font-size="13px" width="60px" fill="#323232" font-weight="400" align="middle" lineHeight="125%" anchor="middle" family="微软雅黑" size="13px" weight="400" font-style="" opacity="1" y="39.375" transform="rotate(0)"><tspan id="SvgjsTspan1474" dy="16" x="40"><tspan id="SvgjsTspan1475" style="text-decoration:;">用户</tspan></tspan></text></g></g><g id="SvgjsG1476"><path id="SvgjsPath1477" d="M295.0034722222224 124.99421013726129L295.0034722222224 162.84606213039822L295.0034722222224 162.84606213039822L295.0034722222224 197.09791412353516" stroke="#323232" stroke-width="2" fill="none" marker-end="url(#SvgjsMarker1478)"></path></g><g id="SvgjsG1480" transform="translate(245.0034722222224,200.69791412353516)"><path id="SvgjsPath1481" d="M 0 4Q 0 0 4 0L 96 0Q 100 0 100 4L 100 66Q 100 70 96 70L 4 70Q 0 70 0 66Z" stroke="rgba(50,50,50,1)" stroke-width="2" fill-opacity="1" fill="#ffffff"></path><g id="SvgjsG1482"><text id="SvgjsText1483" font-family="微软雅黑" text-anchor="middle" font-size="13px" width="80px" fill="#323232" font-weight="400" align="middle" lineHeight="125%" anchor="middle" family="微软雅黑" size="13px" weight="400" font-style="" opacity="1" y="24.375" transform="rotate(0)"><tspan id="SvgjsTspan1484" dy="16" x="50"><tspan id="SvgjsTspan1485" style="text-decoration:;">负载均衡</tspan></tspan></text></g></g><g id="SvgjsG1486"><path id="SvgjsPath1487" d="M295.0034722222224 271.69791412353516L295.0034722222224 303.4016176859538L75.00347222222217 303.4016176859538L75.00347222222217 332.5053212483724" stroke="#323232" stroke-width="2" fill="none" marker-end="url(#SvgjsMarker1488)"></path></g><g id="SvgjsG1490"><path id="SvgjsPath1491" d="M295.0034722222224 271.69791412353516L295.0034722222224 303.40161768595385L501.67013888888823 303.40161768595385L501.67013888888823 332.50532124837247" stroke="#323232" stroke-width="2" fill="none" marker-end="url(#SvgjsMarker1492)"></path></g><g id="SvgjsG1494" transform="translate(356.78125,143.69791412353516)"><path id="SvgjsPath1495" d="M 0 0L 414 0L 430 16L 430 40L 0 40L 0 0Z" stroke="none" fill-opacity="1" fill="#ffffaa"></path><path id="SvgjsPath1496" d="M 414 0L 414 16L 430 16Z" stroke="none" fill-opacity="1" fill="#cdcdcd"></path><path id="SvgjsPath1497" d="M 0 0L 414 0L 430 16L 430 40L 0 40L 0 0Z" stroke="none" fill="none"></path><g id="SvgjsG1498"><text id="SvgjsText1499" font-family="微软雅黑" text-anchor="middle" font-size="13px" width="410px" fill="#323232" font-weight="400" align="middle" lineHeight="125%" anchor="middle" family="微软雅黑" size="13px" weight="400" font-style="" opacity="1" y="0.875" transform="rotate(0)"><tspan id="SvgjsTspan1500" dy="16" x="215"><tspan id="SvgjsTspan1501" style="text-decoration:;">hash取模,</tspan></tspan><tspan id="SvgjsTspan1502" dy="16" x="215"><tspan id="SvgjsTspan1503" style="text-decoration:;">通过用户的sessionid进行hash,取模,将用户的请求落在哪台服务器上。</tspan></tspan></text></g></g></svg>