<svg id="SvgjsSvg1146" width="1322.2916870117188" height="407.9583282470703" xmlns="http://www.w3.org/2000/svg" version="1.1" xmlns:xlink="http://www.w3.org/1999/xlink" xmlns:svgjs="http://svgjs.com/svgjs"><defs id="SvgjsDefs1147"><marker id="SvgjsMarker1162" markerWidth="14" markerHeight="10" refX="10" refY="5" viewBox="0 0 14 10" orient="auto" markerUnits="userSpaceOnUse" stroke-dasharray="0,0"><path id="SvgjsPath1163" d="M0,0 L14,5 L0,10 L0,0" fill="#323232" stroke="#323232" stroke-width="1"></path></marker><marker id="SvgjsMarker1174" markerWidth="14" markerHeight="10" refX="10" refY="5" viewBox="0 0 14 10" orient="auto" markerUnits="userSpaceOnUse" stroke-dasharray="0,0"><path id="SvgjsPath1175" d="M0,0 L14,5 L0,10 L0,0" fill="#323232" stroke="#323232" stroke-width="1"></path></marker><marker id="SvgjsMarker1196" markerWidth="14" markerHeight="10" refX="10" refY="5" viewBox="0 0 14 10" orient="auto" markerUnits="userSpaceOnUse" stroke-dasharray="0,0"><path id="SvgjsPath1197" d="M0,0 L14,5 L0,10 L0,0" fill="#323232" stroke="#323232" stroke-width="1"></path></marker><marker id="SvgjsMarker1208" markerWidth="14" markerHeight="10" refX="10" refY="5" viewBox="0 0 14 10" orient="auto" markerUnits="userSpaceOnUse" stroke-dasharray="0,0"><path id="SvgjsPath1209" d="M0,0 L14,5 L0,10 L0,0" fill="#323232" stroke="#323232" stroke-width="1"></path></marker></defs><g id="SvgjsG1148" transform="translate(25.0011257595486,32.96757931179479)"><path id="SvgjsPath1149" d="M 0 4Q 0 0 4 0L 134.88888888888889 0Q 138.88888888888889 0 138.88888888888889 4L 138.88888888888889 345.81482611762146Q 138.88888888888889 349.81482611762146 134.88888888888889 349.81482611762146L 4 349.81482611762146Q 0 349.81482611762146 0 345.81482611762146Z" stroke="rgba(50,50,50,1)" stroke-width="2" fill-opacity="1" fill="#ffffff"></path><g id="SvgjsG1150"><text id="SvgjsText1151" font-family="微软雅黑" text-anchor="middle" font-size="13px" width="119px" fill="#323232" font-weight="400" align="middle" lineHeight="125%" anchor="middle" family="微软雅黑" size="13px" weight="400" font-style="" opacity="1" y="164.28241305881073" transform="rotate(0)"><tspan id="SvgjsTspan1152" dy="16" x="69.5"><tspan id="SvgjsTspan1153" style="text-decoration:;">客户端</tspan></tspan></text></g></g><g id="SvgjsG1154" transform="translate(802.7789035373262,32.96757931179468)"><path id="SvgjsPath1155" d="M 0 4Q 0 0 4 0L 134.88888888888889 0Q 138.88888888888889 0 138.88888888888889 4L 138.88888888888889 345.81482611762146Q 138.88888888888889 349.81482611762146 134.88888888888889 349.81482611762146L 4 349.81482611762146Q 0 349.81482611762146 0 345.81482611762146Z" stroke="rgba(50,50,50,1)" stroke-width="2" fill-opacity="1" fill="#ffffff"></path><g id="SvgjsG1156"><text id="SvgjsText1157" font-family="微软雅黑" text-anchor="middle" font-size="13px" width="119px" fill="#323232" font-weight="400" align="middle" lineHeight="125%" anchor="middle" family="微软雅黑" size="13px" weight="400" font-style="" opacity="1" y="164.28241305881073" transform="rotate(0)"><tspan id="SvgjsTspan1158" dy="16" x="69.5"><tspan id="SvgjsTspan1159" style="text-decoration:;">服务端</tspan></tspan></text></g></g><g id="SvgjsG1160"><path id="SvgjsPath1161" d="M163.77890353732639 72.7824054294162L482.7789035373264 72.7824054294162L482.7789035373264 72.7824054294162L799.1789035373264 72.7824054294162" stroke="#323232" stroke-width="2" fill="none" marker-end="url(#SvgjsMarker1162)"></path></g><g id="SvgjsG1164" transform="translate(258.33445909288196,25.004627651638486)"><path id="SvgjsPath1165" d="M 0 0L 433.99999999999994 0L 449.99999999999994 16L 449.99999999999994 37.77777777777777L 0 37.77777777777777L 0 0Z" stroke="none" fill-opacity="1" fill="#ffffaa"></path><path id="SvgjsPath1166" d="M 433.99999999999994 0L 433.99999999999994 16L 449.99999999999994 16Z" stroke="none" fill-opacity="1" fill="#cdcdcd"></path><path id="SvgjsPath1167" d="M 0 0L 433.99999999999994 0L 449.99999999999994 16L 449.99999999999994 37.77777777777777L 0 37.77777777777777L 0 0Z" stroke="none" fill="none"></path><g id="SvgjsG1168"><text id="SvgjsText1169" font-family="微软雅黑" text-anchor="middle" font-size="13px" width="430px" fill="#323232" font-weight="400" align="middle" lineHeight="125%" anchor="middle" family="微软雅黑" size="13px" weight="400" font-style="" opacity="1" y="8.263888888888886" transform="rotate(0)"><tspan id="SvgjsTspan1170" dy="16" x="225"><tspan id="SvgjsTspan1171" style="text-decoration:;">第一次访问,进行登录</tspan></tspan></text></g></g><g id="SvgjsG1172"><path id="SvgjsPath1173" d="M802.5196557574802 112.7824054294162L483.5196557574802 112.7824054294162L483.5196557574802 112.7824054294162L167.1196557574802 112.7824054294162" stroke="#323232" stroke-width="2" fill="none" marker-end="url(#SvgjsMarker1174)"></path></g><g id="SvgjsG1176" transform="translate(258.33445909288207,121.67129431830489)"><path id="SvgjsPath1177" d="M 0 0L 433.99999999999994 0L 449.99999999999994 16L 449.99999999999994 37.77777777777777L 0 37.77777777777777L 0 0Z" stroke="none" fill-opacity="1" fill="#ffffaa"></path><path id="SvgjsPath1178" d="M 433.99999999999994 0L 433.99999999999994 16L 449.99999999999994 16Z" stroke="none" fill-opacity="1" fill="#cdcdcd"></path><path id="SvgjsPath1179" d="M 0 0L 433.99999999999994 0L 449.99999999999994 16L 449.99999999999994 37.77777777777777L 0 37.77777777777777L 0 0Z" stroke="none" fill="none"></path><g id="SvgjsG1180"><text id="SvgjsText1181" font-family="微软雅黑" text-anchor="middle" font-size="13px" width="430px" fill="#323232" font-weight="400" align="middle" lineHeight="125%" anchor="middle" family="微软雅黑" size="13px" weight="400" font-style="" opacity="1" y="8.263888888888886" transform="rotate(0)"><tspan id="SvgjsTspan1182" dy="16" x="225"><tspan id="SvgjsTspan1183" style="text-decoration:;">登录成功,命令浏览器cookie中保存jsessionid</tspan></tspan></text></g></g><g id="SvgjsG1184" transform="translate(961.2974335352578,50.560183207194086)"><path id="SvgjsPath1185" d="M 0 0L 319.55555555555566 0L 335.55555555555566 16L 335.55555555555566 62.22222222222223L 0 62.22222222222223L 0 0Z" stroke="none" fill-opacity="1" fill="#ffffaa"></path><path id="SvgjsPath1186" d="M 319.55555555555566 0L 319.55555555555566 16L 335.55555555555566 16Z" stroke="none" fill-opacity="1" fill="#cdcdcd"></path><path id="SvgjsPath1187" d="M 0 0L 319.55555555555566 0L 335.55555555555566 16L 335.55555555555566 62.22222222222223L 0 62.22222222222223L 0 0Z" stroke="none" fill="none"></path><g id="SvgjsG1188"><text id="SvgjsText1189" font-family="微软雅黑" text-anchor="middle" font-size="13px" width="316px" fill="#323232" font-weight="400" align="middle" lineHeight="125%" anchor="middle" family="微软雅黑" size="13px" weight="400" font-style="" opacity="1" y="11.986111111111114" transform="rotate(0)"><tspan id="SvgjsTspan1190" dy="16" x="168"><tspan id="SvgjsTspan1191" style="text-decoration:;">用户数据保存在Map中,用户通过sessionid换回用户的</tspan></tspan><tspan id="SvgjsTspan1192" dy="16" x="168"><tspan id="SvgjsTspan1193" style="text-decoration:;">数据。</tspan></tspan></text></g></g><g id="SvgjsG1194"><path id="SvgjsPath1195" d="M164.5196557574802 195.7453655666775L483.5196557574802 195.7453655666775L483.5196557574802 195.7453655666775L799.9196557574802 195.7453655666775" stroke="#323232" stroke-width="2" fill="none" marker-end="url(#SvgjsMarker1196)"></path></g><g id="SvgjsG1198" transform="translate(258.3344590928823,218.337960984971)"><path id="SvgjsPath1199" d="M 0 0L 433.99999999999994 0L 449.99999999999994 16L 449.99999999999994 37.77777777777777L 0 37.77777777777777L 0 0Z" stroke="none" fill-opacity="1" fill="#ffffaa"></path><path id="SvgjsPath1200" d="M 433.99999999999994 0L 433.99999999999994 16L 449.99999999999994 16Z" stroke="none" fill-opacity="1" fill="#cdcdcd"></path><path id="SvgjsPath1201" d="M 0 0L 433.99999999999994 0L 449.99999999999994 16L 449.99999999999994 37.77777777777777L 0 37.77777777777777L 0 0Z" stroke="none" fill="none"></path><g id="SvgjsG1202"><text id="SvgjsText1203" font-family="微软雅黑" text-anchor="middle" font-size="13px" width="430px" fill="#323232" font-weight="400" align="middle" lineHeight="125%" anchor="middle" family="微软雅黑" size="13px" weight="400" font-style="" opacity="1" y="8.263888888888886" transform="rotate(0)"><tspan id="SvgjsTspan1204" dy="16" x="225"><tspan id="SvgjsTspan1205" style="text-decoration:;">以后访问都会携带cookie</tspan></tspan></text></g></g><g id="SvgjsG1206"><path id="SvgjsPath1207" d="M163.40854464636908 315.7453655666775L482.96410020192457 315.7453655666775L482.96410020192457 315.7453655666775L799.9196557574802 315.7453655666775" stroke="#323232" stroke-width="2" fill="none" marker-end="url(#SvgjsMarker1208)"></path></g><g id="SvgjsG1210" transform="translate(251.66779242621567,333.89351654052666)"><path id="SvgjsPath1211" d="M 0 0L 433.99999999999994 0L 449.99999999999994 16L 449.99999999999994 37.77777777777777L 0 37.77777777777777L 0 0Z" stroke="none" fill-opacity="1" fill="#ffffaa"></path><path id="SvgjsPath1212" d="M 433.99999999999994 0L 433.99999999999994 16L 449.99999999999994 16Z" stroke="none" fill-opacity="1" fill="#cdcdcd"></path><path id="SvgjsPath1213" d="M 0 0L 433.99999999999994 0L 449.99999999999994 16L 449.99999999999994 37.77777777777777L 0 37.77777777777777L 0 0Z" stroke="none" fill="none"></path><g id="SvgjsG1214"><text id="SvgjsText1215" font-family="微软雅黑" text-anchor="middle" font-size="13px" width="430px" fill="#323232" font-weight="400" align="middle" lineHeight="125%" anchor="middle" family="微软雅黑" size="13px" weight="400" font-style="" opacity="1" y="8.263888888888886" transform="rotate(0)"><tspan id="SvgjsTspan1216" dy="16" x="225"><tspan id="SvgjsTspan1217" style="text-decoration:;">下次没有jsessionid,创建一个</tspan></tspan></text></g></g></svg>