<svg id="SvgjsSvg1298" width="576.6666870117188" height="396.114603638649" xmlns="http://www.w3.org/2000/svg" version="1.1" xmlns:xlink="http://www.w3.org/1999/xlink" xmlns:svgjs="http://svgjs.com/svgjs"><defs id="SvgjsDefs1299"><marker id="SvgjsMarker1314" markerWidth="14" markerHeight="10" refX="10" refY="5" viewBox="0 0 14 10" orient="auto" markerUnits="userSpaceOnUse" stroke-dasharray="0,0"><path id="SvgjsPath1315" d="M0,0 L14,5 L0,10 L0,0" fill="#323232" stroke="#323232" stroke-width="1"></path></marker><marker id="SvgjsMarker1322" markerWidth="14" markerHeight="10" refX="10" refY="5" viewBox="0 0 14 10" orient="auto" markerUnits="userSpaceOnUse" stroke-dasharray="0,0"><path id="SvgjsPath1323" d="M0,0 L14,5 L0,10 L0,0" fill="#323232" stroke="#323232" stroke-width="1"></path></marker><marker id="SvgjsMarker1344" markerWidth="14" markerHeight="10" refX="10" refY="5" viewBox="0 0 14 10" orient="auto" markerUnits="userSpaceOnUse" stroke-dasharray="0,0"><path id="SvgjsPath1345" d="M0,0 L14,5 L0,10 L0,0" fill="#323232" stroke="#323232" stroke-width="1"></path></marker><marker id="SvgjsMarker1348" markerWidth="14" markerHeight="10" refX="10" refY="5" viewBox="0 0 14 10" orient="auto" markerUnits="userSpaceOnUse" stroke-dasharray="0,0"><path id="SvgjsPath1349" d="M0,0 L14,5 L0,10 L0,0" fill="#323232" stroke="#323232" stroke-width="1"></path></marker><marker id="SvgjsMarker1352" markerWidth="14" markerHeight="10" refX="10" refY="5" viewBox="0 0 14 10" orient="auto" markerUnits="userSpaceOnUse" stroke-dasharray="0,0"><path id="SvgjsPath1353" d="M0,0 L14,5 L0,10 L0,0" fill="#323232" stroke="#323232" stroke-width="1"></path></marker></defs><g id="SvgjsG1300" transform="translate(25.00347222222217,301.11573787530267)"><path id="SvgjsPath1301" d="M 0 4Q 0 0 4 0L 96 0Q 100 0 100 4L 100 66Q 100 70 96 70L 4 70Q 0 70 0 66Z" stroke="rgba(50,50,50,1)" stroke-width="2" fill-opacity="1" fill="#ffffff"></path><g id="SvgjsG1302"><text id="SvgjsText1303" font-family="微软雅黑" text-anchor="middle" font-size="13px" width="80px" fill="#323232" font-weight="400" align="middle" lineHeight="125%" anchor="middle" family="微软雅黑" size="13px" weight="400" font-style="" opacity="1" y="24.375" transform="rotate(0)"><tspan id="SvgjsTspan1304" dy="16" x="50"><tspan id="SvgjsTspan1305" style="text-decoration:;">服务端1</tspan></tspan></text></g></g><g id="SvgjsG1306" transform="translate(451.67013888888823,301.1157378753027)"><path id="SvgjsPath1307" d="M 0 4Q 0 0 4 0L 96 0Q 100 0 100 4L 100 66Q 100 70 96 70L 4 70Q 0 70 0 66Z" stroke="rgba(50,50,50,1)" stroke-width="2" fill-opacity="1" fill="#ffffff"></path><g id="SvgjsG1308"><text id="SvgjsText1309" font-family="微软雅黑" text-anchor="middle" font-size="13px" width="80px" fill="#323232" font-weight="400" align="middle" lineHeight="125%" anchor="middle" family="微软雅黑" size="13px" weight="400" font-style="" opacity="1" y="24.375" transform="rotate(0)"><tspan id="SvgjsTspan1310" dy="16" x="50"><tspan id="SvgjsTspan1311" style="text-decoration:;">服务端1</tspan></tspan></text></g></g><g id="SvgjsG1312"><path id="SvgjsPath1313" d="M126.00347222222223 318.33796009752484L288.33680555555554 318.33796009752484L288.33680555555554 318.33796009752484L448.0701388888889 318.33796009752484" stroke="#323232" stroke-width="2" fill="none" marker-end="url(#SvgjsMarker1314)"></path><rect id="SvgjsRect1316" width="71" height="16" x="251.5368055555556" y="310.33796009752484" fill="#ffffff"></rect><text id="SvgjsText1317" font-family="微软雅黑" text-anchor="middle" font-size="13px" width="71px" fill="#323232" font-weight="400" align="top" lineHeight="16px" anchor="middle" family="微软雅黑" size="13px" weight="400" font-style="" opacity="1" y="307.71296009752484" transform="rotate(0)"><tspan id="SvgjsTspan1318" dy="16" x="287.0368055555556"><tspan id="SvgjsTspan1319" style="text-decoration:;">session同步</tspan></tspan></text></g><g id="SvgjsG1320"><path id="SvgjsPath1321" d="M451.59194903493926 361.3445209580664L288.25903534745606 361.3445209580664L288.25903534745606 361.3445209580664L127.52612165997289 361.3445209580664" stroke="#323232" stroke-width="2" fill="none" marker-end="url(#SvgjsMarker1322)"></path><rect id="SvgjsRect1324" width="71" height="16" x="254.05903534745607" y="353.3445209580664" fill="#ffffff"></rect><text id="SvgjsText1325" font-family="微软雅黑" text-anchor="middle" font-size="13px" width="71px" fill="#323232" font-weight="400" align="top" lineHeight="16px" anchor="middle" family="微软雅黑" size="13px" weight="400" font-style="" opacity="1" y="350.7195209580664" transform="rotate(0)"><tspan id="SvgjsTspan1326" dy="16" x="289.5590353474561"><tspan id="SvgjsTspan1327" style="text-decoration:;">session同步</tspan></tspan></text></g><g id="SvgjsG1328" transform="translate(255.0034722222224,25.004626764191542)"><path id="SvgjsPath1329" d="M 0 0L 64 0L 80 16L 80 100L 0 100L 0 0Z" stroke="none" fill-opacity="1" fill="#ffffaa"></path><path id="SvgjsPath1330" d="M 64 0L 64 16L 80 16Z" stroke="none" fill-opacity="1" fill="#cdcdcd"></path><path id="SvgjsPath1331" d="M 0 0L 64 0L 80 16L 80 100L 0 100L 0 0Z" stroke="none" fill="none"></path><g id="SvgjsG1332"><text id="SvgjsText1333" font-family="微软雅黑" text-anchor="middle" font-size="13px" width="60px" fill="#323232" font-weight="400" align="middle" lineHeight="125%" anchor="middle" family="微软雅黑" size="13px" weight="400" font-style="" opacity="1" y="39.375" transform="rotate(0)"><tspan id="SvgjsTspan1334" dy="16" x="40"><tspan id="SvgjsTspan1335" style="text-decoration:;">用户</tspan></tspan></text></g></g><g id="SvgjsG1336" transform="translate(251.9479166666669,172.22684898641373)"><path id="SvgjsPath1337" d="M 0 36.94444444444444C 0 -12.314814814814815 86.11111111111097 -12.314814814814815 86.11111111111097 36.94444444444444C 86.11111111111097 86.2037037037037 0 86.2037037037037 0 36.94444444444444Z" stroke="rgba(50,50,50,1)" stroke-width="2" fill-opacity="1" fill="#ffffff"></path><g id="SvgjsG1338"><text id="SvgjsText1339" font-family="微软雅黑" text-anchor="middle" font-size="13px" width="67px" fill="#323232" font-weight="400" align="middle" lineHeight="125%" anchor="middle" family="微软雅黑" size="13px" weight="400" font-style="" opacity="1" y="26.319444444444443" transform="rotate(0)"><tspan id="SvgjsTspan1340" dy="16" x="43.5"><tspan id="SvgjsTspan1341" style="text-decoration:;">负载均衡</tspan></tspan></text></g></g><g id="SvgjsG1342"><path id="SvgjsPath1343" d="M295.0034722222224 125.00462676419153L295.0034722222224 148.61573787530264L295.0034722222224 148.61573787530264L295.0034722222224 168.62684898641373" stroke="#323232" stroke-width="2" fill="none" marker-end="url(#SvgjsMarker1344)"></path></g><g id="SvgjsG1346"><path id="SvgjsPath1347" d="M295.0034722222224 247.1157378753026L295.0034722222224 273.61573787530267L75.00347222222217 273.61573787530267L75.00347222222217 297.51573787530265" stroke="#323232" stroke-width="2" fill="none" marker-end="url(#SvgjsMarker1348)"></path></g><g id="SvgjsG1350"><path id="SvgjsPath1351" d="M295.0034722222224 247.1157378753026L295.0034722222224 273.61573787530267L501.67013888888823 273.61573787530267L501.67013888888823 297.5157378753027" stroke="#323232" stroke-width="2" fill="none" marker-end="url(#SvgjsMarker1352)"></path></g></svg>