<svg id="SvgjsSvg1218" width="1847.8959197998047" height="407.95831298828125" xmlns="http://www.w3.org/2000/svg" version="1.1" xmlns:xlink="http://www.w3.org/1999/xlink" xmlns:svgjs="http://svgjs.com/svgjs"><defs id="SvgjsDefs1219"><marker id="SvgjsMarker1234" markerWidth="14" markerHeight="10" refX="10" refY="5" viewBox="0 0 14 10" orient="auto" markerUnits="userSpaceOnUse" stroke-dasharray="0,0"><path id="SvgjsPath1235" d="M0,0 L14,5 L0,10 L0,0" fill="#323232" stroke="#323232" stroke-width="1"></path></marker><marker id="SvgjsMarker1246" markerWidth="14" markerHeight="10" refX="10" refY="5" viewBox="0 0 14 10" orient="auto" markerUnits="userSpaceOnUse" stroke-dasharray="0,0"><path id="SvgjsPath1247" d="M0,0 L14,5 L0,10 L0,0" fill="#323232" stroke="#323232" stroke-width="1"></path></marker><marker id="SvgjsMarker1258" markerWidth="14" markerHeight="10" refX="10" refY="5" viewBox="0 0 14 10" orient="auto" markerUnits="userSpaceOnUse" stroke-dasharray="0,0"><path id="SvgjsPath1259" d="M0,0 L14,5 L0,10 L0,0" fill="#323232" stroke="#323232" stroke-width="1"></path></marker><marker id="SvgjsMarker1270" markerWidth="14" markerHeight="10" refX="10" refY="5" viewBox="0 0 14 10" orient="auto" markerUnits="userSpaceOnUse" stroke-dasharray="0,0"><path id="SvgjsPath1271" d="M0,0 L14,5 L0,10 L0,0" fill="#323232" stroke="#323232" stroke-width="1"></path></marker></defs><g id="SvgjsG1220" transform="translate(375.26157040066187,32.967567867702996)"><path id="SvgjsPath1221" d="M 0 4Q 0 0 4 0L 134.88888888888889 0Q 138.88888888888889 0 138.88888888888889 4L 138.88888888888889 345.81482611762146Q 138.88888888888889 349.81482611762146 134.88888888888889 349.81482611762146L 4 349.81482611762146Q 0 349.81482611762146 0 345.81482611762146Z" stroke="rgba(50,50,50,1)" stroke-width="2" fill-opacity="1" fill="#ffffff"></path><g id="SvgjsG1222"><text id="SvgjsText1223" font-family="微软雅黑" text-anchor="middle" font-size="13px" width="119px" fill="#323232" font-weight="400" align="middle" lineHeight="125%" anchor="middle" family="微软雅黑" size="13px" weight="400" font-style="" opacity="1" y="164.28241305881073" transform="rotate(0)"><tspan id="SvgjsTspan1224" dy="16" x="69.5"><tspan id="SvgjsTspan1225" style="text-decoration:;">客户端</tspan></tspan></text></g></g><g id="SvgjsG1226" transform="translate(1153.0393481784395,32.96756786770288)"><path id="SvgjsPath1227" d="M 0 4Q 0 0 4 0L 134.88888888888889 0Q 138.88888888888889 0 138.88888888888889 4L 138.88888888888889 345.81482611762146Q 138.88888888888889 349.81482611762146 134.88888888888889 349.81482611762146L 4 349.81482611762146Q 0 349.81482611762146 0 345.81482611762146Z" stroke="rgba(50,50,50,1)" stroke-width="2" fill-opacity="1" fill="#ffffff"></path><g id="SvgjsG1228"><text id="SvgjsText1229" font-family="微软雅黑" text-anchor="middle" font-size="13px" width="119px" fill="#323232" font-weight="400" align="middle" lineHeight="125%" anchor="middle" family="微软雅黑" size="13px" weight="400" font-style="" opacity="1" y="164.28241305881073" transform="rotate(0)"><tspan id="SvgjsTspan1230" dy="16" x="69.5"><tspan id="SvgjsTspan1231" style="text-decoration:;">服务端</tspan></tspan></text></g></g><g id="SvgjsG1232"><path id="SvgjsPath1233" d="M514.0393481784397 72.7823939853244L833.0393481784397 72.7823939853244L833.0393481784397 72.7823939853244L1149.4393481784396 72.7823939853244" stroke="#323232" stroke-width="2" fill="none" marker-end="url(#SvgjsMarker1234)"></path></g><g id="SvgjsG1236" transform="translate(608.5949037339952,25.00461620754669)"><path id="SvgjsPath1237" d="M 0 0L 433.99999999999994 0L 449.99999999999994 16L 449.99999999999994 37.77777777777777L 0 37.77777777777777L 0 0Z" stroke="none" fill-opacity="1" fill="#ffffaa"></path><path id="SvgjsPath1238" d="M 433.99999999999994 0L 433.99999999999994 16L 449.99999999999994 16Z" stroke="none" fill-opacity="1" fill="#cdcdcd"></path><path id="SvgjsPath1239" d="M 0 0L 433.99999999999994 0L 449.99999999999994 16L 449.99999999999994 37.77777777777777L 0 37.77777777777777L 0 0Z" stroke="none" fill="none"></path><g id="SvgjsG1240"><text id="SvgjsText1241" font-family="微软雅黑" text-anchor="middle" font-size="13px" width="430px" fill="#323232" font-weight="400" align="middle" lineHeight="125%" anchor="middle" family="微软雅黑" size="13px" weight="400" font-style="" opacity="1" y="8.263888888888886" transform="rotate(0)"><tspan id="SvgjsTspan1242" dy="16" x="225"><tspan id="SvgjsTspan1243" style="text-decoration:;">第一次访问,进行登录</tspan></tspan></text></g></g><g id="SvgjsG1244"><path id="SvgjsPath1245" d="M1152.7801003985935 112.7823939853244L833.7801003985935 112.7823939853244L833.7801003985935 112.7823939853244L517.3801003985934 112.7823939853244" stroke="#323232" stroke-width="2" fill="none" marker-end="url(#SvgjsMarker1246)"></path></g><g id="SvgjsG1248" transform="translate(608.5949037339954,121.67128287421309)"><path id="SvgjsPath1249" d="M 0 0L 433.99999999999994 0L 449.99999999999994 16L 449.99999999999994 37.77777777777777L 0 37.77777777777777L 0 0Z" stroke="none" fill-opacity="1" fill="#ffffaa"></path><path id="SvgjsPath1250" d="M 433.99999999999994 0L 433.99999999999994 16L 449.99999999999994 16Z" stroke="none" fill-opacity="1" fill="#cdcdcd"></path><path id="SvgjsPath1251" d="M 0 0L 433.99999999999994 0L 449.99999999999994 16L 449.99999999999994 37.77777777777777L 0 37.77777777777777L 0 0Z" stroke="none" fill="none"></path><g id="SvgjsG1252"><text id="SvgjsText1253" font-family="微软雅黑" text-anchor="middle" font-size="13px" width="430px" fill="#323232" font-weight="400" align="middle" lineHeight="125%" anchor="middle" family="微软雅黑" size="13px" weight="400" font-style="" opacity="1" y="8.263888888888886" transform="rotate(0)"><tspan id="SvgjsTspan1254" dy="16" x="225"><tspan id="SvgjsTspan1255" style="text-decoration:;">登录成功,返回token</tspan></tspan></text></g></g><g id="SvgjsG1256"><path id="SvgjsPath1257" d="M514.7801003985935 195.7453541225857L833.7801003985935 195.7453541225857L833.7801003985935 195.7453541225857L1150.1801003985934 195.7453541225857" stroke="#323232" stroke-width="2" fill="none" marker-end="url(#SvgjsMarker1258)"></path></g><g id="SvgjsG1260" transform="translate(608.5949037339956,218.3379495408792)"><path id="SvgjsPath1261" d="M 0 0L 433.99999999999994 0L 449.99999999999994 16L 449.99999999999994 37.77777777777777L 0 37.77777777777777L 0 0Z" stroke="none" fill-opacity="1" fill="#ffffaa"></path><path id="SvgjsPath1262" d="M 433.99999999999994 0L 433.99999999999994 16L 449.99999999999994 16Z" stroke="none" fill-opacity="1" fill="#cdcdcd"></path><path id="SvgjsPath1263" d="M 0 0L 433.99999999999994 0L 449.99999999999994 16L 449.99999999999994 37.77777777777777L 0 37.77777777777777L 0 0Z" stroke="none" fill="none"></path><g id="SvgjsG1264"><text id="SvgjsText1265" font-family="微软雅黑" text-anchor="middle" font-size="13px" width="430px" fill="#323232" font-weight="400" align="middle" lineHeight="125%" anchor="middle" family="微软雅黑" size="13px" weight="400" font-style="" opacity="1" y="8.263888888888886" transform="rotate(0)"><tspan id="SvgjsTspan1266" dy="16" x="225"><tspan id="SvgjsTspan1267" style="text-decoration:;">以后访问请求头都会携带token</tspan></tspan></text></g></g><g id="SvgjsG1268"><path id="SvgjsPath1269" d="M513.6689892874824 315.7453541225857L833.2245448430378 315.7453541225857L833.2245448430378 315.7453541225857L1150.1801003985934 315.7453541225857" stroke="#323232" stroke-width="2" fill="none" marker-end="url(#SvgjsMarker1270)"></path></g><g id="SvgjsG1272" transform="translate(601.928237067329,333.89350509643486)"><path id="SvgjsPath1273" d="M 0 0L 433.99999999999994 0L 449.99999999999994 16L 449.99999999999994 37.77777777777777L 0 37.77777777777777L 0 0Z" stroke="none" fill-opacity="1" fill="#ffffaa"></path><path id="SvgjsPath1274" d="M 433.99999999999994 0L 433.99999999999994 16L 449.99999999999994 16Z" stroke="none" fill-opacity="1" fill="#cdcdcd"></path><path id="SvgjsPath1275" d="M 0 0L 433.99999999999994 0L 449.99999999999994 16L 449.99999999999994 37.77777777777777L 0 37.77777777777777L 0 0Z" stroke="none" fill="none"></path><g id="SvgjsG1276"><text id="SvgjsText1277" font-family="微软雅黑" text-anchor="middle" font-size="13px" width="430px" fill="#323232" font-weight="400" align="middle" lineHeight="125%" anchor="middle" family="微软雅黑" size="13px" weight="400" font-style="" opacity="1" y="8.263888888888886" transform="rotate(0)"><tspan id="SvgjsTspan1278" dy="16" x="225"><tspan id="SvgjsTspan1279" style="text-decoration:;">如果token过期了或者token失效了,需重新登录</tspan></tspan></text></g></g><g id="SvgjsG1280" transform="translate(24.99701690673831,112.72949140033921)"><path id="SvgjsPath1281" d="M 0 0L 315.42857142857144 0L 331.42857142857144 16L 331.42857142857144 105.60845814053994L 0 105.60845814053994L 0 0Z" stroke="none" fill-opacity="1" fill="#ffffaa"></path><path id="SvgjsPath1282" d="M 315.42857142857144 0L 315.42857142857144 16L 331.42857142857144 16Z" stroke="none" fill-opacity="1" fill="#cdcdcd"></path><path id="SvgjsPath1283" d="M 0 0L 315.42857142857144 0L 331.42857142857144 16L 331.42857142857144 105.60845814053994L 0 105.60845814053994L 0 0Z" stroke="none" fill="none"></path><g id="SvgjsG1284"><text id="SvgjsText1285" font-family="微软雅黑" text-anchor="middle" font-size="13px" width="312px" fill="#323232" font-weight="400" align="middle" lineHeight="125%" anchor="middle" family="微软雅黑" size="13px" weight="400" font-style="" opacity="1" y="42.17922907026997" transform="rotate(0)"><tspan id="SvgjsTspan1286" dy="16" x="166"><tspan id="SvgjsTspan1287" style="text-decoration:;">客户端将token存储到cookie或者localstore中</tspan></tspan></text></g></g><g id="SvgjsG1288" transform="translate(1326.9017933436803,32.96756786770294)"><path id="SvgjsPath1289" d="M 0 0L 479.7142857142858 0L 495.7142857142858 16L 495.7142857142858 121.42857142857144L 0 121.42857142857144L 0 0Z" stroke="none" fill-opacity="1" fill="#ffffaa"></path><path id="SvgjsPath1290" d="M 479.7142857142858 0L 479.7142857142858 16L 495.7142857142858 16Z" stroke="none" fill-opacity="1" fill="#cdcdcd"></path><path id="SvgjsPath1291" d="M 0 0L 479.7142857142858 0L 495.7142857142858 16L 495.7142857142858 121.42857142857144L 0 121.42857142857144L 0 0Z" stroke="none" fill="none"></path><g id="SvgjsG1292"><text id="SvgjsText1293" font-family="微软雅黑" text-anchor="middle" font-size="13px" width="476px" fill="#323232" font-weight="400" align="middle" lineHeight="125%" anchor="middle" family="微软雅黑" size="13px" weight="400" font-style="" opacity="1" y="41.58928571428572" transform="rotate(0)"><tspan id="SvgjsTspan1294" dy="16" x="248"><tspan id="SvgjsTspan1295" style="text-decoration:;">客户端可以判断token是否失效或者过期,</tspan></tspan><tspan id="SvgjsTspan1296" dy="16" x="248"><tspan id="SvgjsTspan1297" style="text-decoration:;">token可以携带一些信息,后台解析即可。</tspan></tspan></text></g></g></svg>