<svg id="SvgjsSvg1006" width="1322.2916641235352" height="407.9583282470703" xmlns="http://www.w3.org/2000/svg" version="1.1" xmlns:xlink="http://www.w3.org/1999/xlink" xmlns:svgjs="http://svgjs.com/svgjs"><defs id="SvgjsDefs1007"><marker id="SvgjsMarker1022" markerWidth="14" markerHeight="10" refX="10" refY="5" viewBox="0 0 14 10" orient="auto" markerUnits="userSpaceOnUse" stroke-dasharray="0,0"><path id="SvgjsPath1023" d="M0,0 L14,5 L0,10 L0,0" fill="#323232" stroke="#323232" stroke-width="1"></path></marker><marker id="SvgjsMarker1034" markerWidth="14" markerHeight="10" refX="10" refY="5" viewBox="0 0 14 10" orient="auto" markerUnits="userSpaceOnUse" stroke-dasharray="0,0"><path id="SvgjsPath1035" d="M0,0 L14,5 L0,10 L0,0" fill="#323232" stroke="#323232" stroke-width="1"></path></marker><marker id="SvgjsMarker1054" markerWidth="14" markerHeight="10" refX="10" refY="5" viewBox="0 0 14 10" orient="auto" markerUnits="userSpaceOnUse" stroke-dasharray="0,0"><path id="SvgjsPath1055" d="M0,0 L14,5 L0,10 L0,0" fill="#323232" stroke="#323232" stroke-width="1"></path></marker><marker id="SvgjsMarker1066" markerWidth="14" markerHeight="10" refX="10" refY="5" viewBox="0 0 14 10" orient="auto" markerUnits="userSpaceOnUse" stroke-dasharray="0,0"><path id="SvgjsPath1067" d="M0,0 L14,5 L0,10 L0,0" fill="#323232" stroke="#323232" stroke-width="1"></path></marker></defs><g id="SvgjsG1008" transform="translate(25.001143402523454,32.96757931179479)"><path id="SvgjsPath1009" d="M 0 4Q 0 0 4 0L 134.88888888888889 0Q 138.88888888888889 0 138.88888888888889 4L 138.88888888888889 345.81482611762146Q 138.88888888888889 349.81482611762146 134.88888888888889 349.81482611762146L 4 349.81482611762146Q 0 349.81482611762146 0 345.81482611762146Z" stroke="rgba(50,50,50,1)" stroke-width="2" fill-opacity="1" fill="#ffffff"></path><g id="SvgjsG1010"><text id="SvgjsText1011" font-family="微软雅黑" text-anchor="middle" font-size="13px" width="119px" fill="#323232" font-weight="400" align="middle" lineHeight="125%" anchor="middle" family="微软雅黑" size="13px" weight="400" font-style="" opacity="1" y="164.28241305881073" transform="rotate(0)"><tspan id="SvgjsTspan1012" dy="16" x="69.5"><tspan id="SvgjsTspan1013" style="text-decoration:;">客户端</tspan></tspan></text></g></g><g id="SvgjsG1014" transform="translate(802.778921180301,32.96757931179468)"><path id="SvgjsPath1015" d="M 0 4Q 0 0 4 0L 134.88888888888889 0Q 138.88888888888889 0 138.88888888888889 4L 138.88888888888889 345.81482611762146Q 138.88888888888889 349.81482611762146 134.88888888888889 349.81482611762146L 4 349.81482611762146Q 0 349.81482611762146 0 345.81482611762146Z" stroke="rgba(50,50,50,1)" stroke-width="2" fill-opacity="1" fill="#ffffff"></path><g id="SvgjsG1016"><text id="SvgjsText1017" font-family="微软雅黑" text-anchor="middle" font-size="13px" width="119px" fill="#323232" font-weight="400" align="middle" lineHeight="125%" anchor="middle" family="微软雅黑" size="13px" weight="400" font-style="" opacity="1" y="164.28241305881073" transform="rotate(0)"><tspan id="SvgjsTspan1018" dy="16" x="69.5"><tspan id="SvgjsTspan1019" style="text-decoration:;">服务端</tspan></tspan></text></g></g><g id="SvgjsG1020"><path id="SvgjsPath1021" d="M163.77892118030124 72.7824054294162L482.77892118030127 72.7824054294162L482.77892118030127 72.7824054294162L799.1789211803012 72.7824054294162" stroke="#323232" stroke-width="2" fill="none" marker-end="url(#SvgjsMarker1022)"></path></g><g id="SvgjsG1024" transform="translate(258.3344767358568,25.004627651638486)"><path id="SvgjsPath1025" d="M 0 0L 433.99999999999994 0L 449.99999999999994 16L 449.99999999999994 37.77777777777777L 0 37.77777777777777L 0 0Z" stroke="none" fill-opacity="1" fill="#ffffaa"></path><path id="SvgjsPath1026" d="M 433.99999999999994 0L 433.99999999999994 16L 449.99999999999994 16Z" stroke="none" fill-opacity="1" fill="#cdcdcd"></path><path id="SvgjsPath1027" d="M 0 0L 433.99999999999994 0L 449.99999999999994 16L 449.99999999999994 37.77777777777777L 0 37.77777777777777L 0 0Z" stroke="none" fill="none"></path><g id="SvgjsG1028"><text id="SvgjsText1029" font-family="微软雅黑" text-anchor="middle" font-size="13px" width="430px" fill="#323232" font-weight="400" align="middle" lineHeight="125%" anchor="middle" family="微软雅黑" size="13px" weight="400" font-style="" opacity="1" y="8.263888888888886" transform="rotate(0)"><tspan id="SvgjsTspan1030" dy="16" x="225"><tspan id="SvgjsTspan1031" style="text-decoration:;">第一次访问,进行登录</tspan></tspan></text></g></g><g id="SvgjsG1032"><path id="SvgjsPath1033" d="M802.5196734004551 112.7824054294162L483.5196734004551 112.7824054294162L483.5196734004551 112.7824054294162L167.11967340045504 112.7824054294162" stroke="#323232" stroke-width="2" fill="none" marker-end="url(#SvgjsMarker1034)"></path></g><g id="SvgjsG1036" transform="translate(258.3344767358569,121.67129431830489)"><path id="SvgjsPath1037" d="M 0 0L 433.99999999999994 0L 449.99999999999994 16L 449.99999999999994 37.77777777777777L 0 37.77777777777777L 0 0Z" stroke="none" fill-opacity="1" fill="#ffffaa"></path><path id="SvgjsPath1038" d="M 433.99999999999994 0L 433.99999999999994 16L 449.99999999999994 16Z" stroke="none" fill-opacity="1" fill="#cdcdcd"></path><path id="SvgjsPath1039" d="M 0 0L 433.99999999999994 0L 449.99999999999994 16L 449.99999999999994 37.77777777777777L 0 37.77777777777777L 0 0Z" stroke="none" fill="none"></path><g id="SvgjsG1040"><text id="SvgjsText1041" font-family="微软雅黑" text-anchor="middle" font-size="13px" width="430px" fill="#323232" font-weight="400" align="middle" lineHeight="125%" anchor="middle" family="微软雅黑" size="13px" weight="400" font-style="" opacity="1" y="8.263888888888886" transform="rotate(0)"><tspan id="SvgjsTspan1042" dy="16" x="225"><tspan id="SvgjsTspan1043" style="text-decoration:;">登录成功,命令浏览器cookie中保存jsessionid</tspan></tspan></text></g></g><g id="SvgjsG1044" transform="translate(961.2974511782327,50.560183207194086)"><path id="SvgjsPath1045" d="M 0 0L 319.55555555555566 0L 335.55555555555566 16L 335.55555555555566 62.22222222222223L 0 62.22222222222223L 0 0Z" stroke="none" fill-opacity="1" fill="#ffffaa"></path><path id="SvgjsPath1046" d="M 319.55555555555566 0L 319.55555555555566 16L 335.55555555555566 16Z" stroke="none" fill-opacity="1" fill="#cdcdcd"></path><path id="SvgjsPath1047" d="M 0 0L 319.55555555555566 0L 335.55555555555566 16L 335.55555555555566 62.22222222222223L 0 62.22222222222223L 0 0Z" stroke="none" fill="none"></path><g id="SvgjsG1048"><text id="SvgjsText1049" font-family="微软雅黑" text-anchor="middle" font-size="13px" width="316px" fill="#323232" font-weight="400" align="middle" lineHeight="125%" anchor="middle" family="微软雅黑" size="13px" weight="400" font-style="" opacity="1" y="20.486111111111114" transform="rotate(0)"><tspan id="SvgjsTspan1050" dy="16" x="168"><tspan id="SvgjsTspan1051" style="text-decoration:;">用户数据保存在session中,通过sessionid换回数据</tspan></tspan></text></g></g><g id="SvgjsG1052"><path id="SvgjsPath1053" d="M164.51967340045505 195.7453655666775L483.5196734004551 195.7453655666775L483.5196734004551 195.7453655666775L799.919673400455 195.7453655666775" stroke="#323232" stroke-width="2" fill="none" marker-end="url(#SvgjsMarker1054)"></path></g><g id="SvgjsG1056" transform="translate(258.33447673585715,218.337960984971)"><path id="SvgjsPath1057" d="M 0 0L 433.99999999999994 0L 449.99999999999994 16L 449.99999999999994 37.77777777777777L 0 37.77777777777777L 0 0Z" stroke="none" fill-opacity="1" fill="#ffffaa"></path><path id="SvgjsPath1058" d="M 433.99999999999994 0L 433.99999999999994 16L 449.99999999999994 16Z" stroke="none" fill-opacity="1" fill="#cdcdcd"></path><path id="SvgjsPath1059" d="M 0 0L 433.99999999999994 0L 449.99999999999994 16L 449.99999999999994 37.77777777777777L 0 37.77777777777777L 0 0Z" stroke="none" fill="none"></path><g id="SvgjsG1060"><text id="SvgjsText1061" font-family="微软雅黑" text-anchor="middle" font-size="13px" width="430px" fill="#323232" font-weight="400" align="middle" lineHeight="125%" anchor="middle" family="微软雅黑" size="13px" weight="400" font-style="" opacity="1" y="8.263888888888886" transform="rotate(0)"><tspan id="SvgjsTspan1062" dy="16" x="225"><tspan id="SvgjsTspan1063" style="text-decoration:;">以后访问都会携带cookie</tspan></tspan></text></g></g><g id="SvgjsG1064"><path id="SvgjsPath1065" d="M163.40856228934393 315.7453655666775L482.9641178448994 315.7453655666775L482.9641178448994 315.7453655666775L799.919673400455 315.7453655666775" stroke="#323232" stroke-width="2" fill="none" marker-end="url(#SvgjsMarker1066)"></path></g><g id="SvgjsG1068" transform="translate(251.66781006919052,333.89351654052666)"><path id="SvgjsPath1069" d="M 0 0L 433.99999999999994 0L 449.99999999999994 16L 449.99999999999994 37.77777777777777L 0 37.77777777777777L 0 0Z" stroke="none" fill-opacity="1" fill="#ffffaa"></path><path id="SvgjsPath1070" d="M 433.99999999999994 0L 433.99999999999994 16L 449.99999999999994 16Z" stroke="none" fill-opacity="1" fill="#cdcdcd"></path><path id="SvgjsPath1071" d="M 0 0L 433.99999999999994 0L 449.99999999999994 16L 449.99999999999994 37.77777777777777L 0 37.77777777777777L 0 0Z" stroke="none" fill="none"></path><g id="SvgjsG1072"><text id="SvgjsText1073" font-family="微软雅黑" text-anchor="middle" font-size="13px" width="430px" fill="#323232" font-weight="400" align="middle" lineHeight="125%" anchor="middle" family="微软雅黑" size="13px" weight="400" font-style="" opacity="1" y="8.263888888888886" transform="rotate(0)"><tspan id="SvgjsTspan1074" dy="16" x="225"><tspan id="SvgjsTspan1075" style="text-decoration:;">下次没有jsessionid,创建一个</tspan></tspan></text></g></g></svg>