<svg id="SvgjsSvg1006" width="2439.9584350585938" height="1393.3437881469727" xmlns="http://www.w3.org/2000/svg" version="1.1" xmlns:xlink="http://www.w3.org/1999/xlink" xmlns:svgjs="http://svgjs.com/svgjs"><defs id="SvgjsDefs1007"><marker id="SvgjsMarker1044" markerWidth="14" markerHeight="10" refX="10" refY="5" viewBox="0 0 14 10" orient="auto" markerUnits="userSpaceOnUse" stroke-dasharray="0,0"><path id="SvgjsPath1045" d="M0,0 L14,5 L0,10 L0,0" fill="#323232" stroke="#323232" stroke-width="1"></path></marker><marker id="SvgjsMarker1054" markerWidth="14" markerHeight="10" refX="10" refY="5" viewBox="0 0 14 10" orient="auto" markerUnits="userSpaceOnUse" stroke-dasharray="0,0"><path id="SvgjsPath1055" d="M0,0 L14,5 L0,10 L0,0" fill="#323232" stroke="#323232" stroke-width="1"></path></marker><marker id="SvgjsMarker1082" markerWidth="14" markerHeight="10" refX="10" refY="5" viewBox="0 0 14 10" orient="auto" markerUnits="userSpaceOnUse" stroke-dasharray="0,0"><path id="SvgjsPath1083" d="M0,0 L14,5 L0,10 L0,0" fill="#323232" stroke="#323232" stroke-width="1"></path></marker><marker id="SvgjsMarker1092" markerWidth="14" markerHeight="10" refX="10" refY="5" viewBox="0 0 14 10" orient="auto" markerUnits="userSpaceOnUse" stroke-dasharray="0,0"><path id="SvgjsPath1093" d="M0,0 L14,5 L0,10 L0,0" fill="#323232" stroke="#323232" stroke-width="1"></path></marker><marker id="SvgjsMarker1112" markerWidth="14" markerHeight="10" refX="10" refY="5" viewBox="0 0 14 10" orient="auto" markerUnits="userSpaceOnUse" stroke-dasharray="0,0"><path id="SvgjsPath1113" d="M0,0 L14,5 L0,10 L0,0" fill="#323232" stroke="#323232" stroke-width="1"></path></marker><marker id="SvgjsMarker1142" markerWidth="14" markerHeight="10" refX="10" refY="5" viewBox="0 0 14 10" orient="auto" markerUnits="userSpaceOnUse" stroke-dasharray="0,0"><path id="SvgjsPath1143" d="M0,0 L14,5 L0,10 L0,0" fill="#323232" stroke="#323232" stroke-width="1"></path></marker><marker id="SvgjsMarker1154" markerWidth="14" markerHeight="10" refX="10" refY="5" viewBox="0 0 14 10" orient="auto" markerUnits="userSpaceOnUse" stroke-dasharray="0,0"><path id="SvgjsPath1155" d="M0,0 L14,5 L0,10 L0,0" fill="#323232" stroke="#323232" stroke-width="1"></path></marker><marker id="SvgjsMarker1166" markerWidth="14" markerHeight="10" refX="10" refY="5" viewBox="0 0 14 10" orient="auto" markerUnits="userSpaceOnUse" stroke-dasharray="0,0"><path id="SvgjsPath1167" d="M0,0 L14,5 L0,10 L0,0" fill="#323232" stroke="#323232" stroke-width="1"></path></marker><marker id="SvgjsMarker1194" markerWidth="14" markerHeight="10" refX="10" refY="5" viewBox="0 0 14 10" orient="auto" markerUnits="userSpaceOnUse" stroke-dasharray="0,0"><path id="SvgjsPath1195" d="M0,0 L14,5 L0,10 L0,0" fill="#323232" stroke="#323232" stroke-width="1"></path></marker><marker id="SvgjsMarker1232" markerWidth="14" markerHeight="10" refX="10" refY="5" viewBox="0 0 14 10" orient="auto" markerUnits="userSpaceOnUse" stroke-dasharray="0,0"><path id="SvgjsPath1233" d="M0,0 L14,5 L0,10 L0,0" fill="#323232" stroke="#323232" stroke-width="1"></path></marker><marker id="SvgjsMarker1244" markerWidth="14" markerHeight="10" refX="10" refY="5" viewBox="0 0 14 10" orient="auto" markerUnits="userSpaceOnUse" stroke-dasharray="0,0"><path id="SvgjsPath1245" d="M0,0 L14,5 L0,10 L0,0" fill="#323232" stroke="#323232" stroke-width="1"></path></marker></defs><g id="SvgjsG1008" transform="translate(479.25001525878906,554.4271011352539)"><path id="SvgjsPath1009" d="M 0 0L 139 0L 139 80.66666412353516L 0 80.66666412353516Z" stroke="rgba(50,50,50,1)" stroke-width="2" fill-opacity="1" fill="#ffffff"></path><g id="SvgjsG1010"><text id="SvgjsText1011" font-family="微软雅黑" text-anchor="middle" font-size="13px" width="119px" fill="#323232" font-weight="400" align="middle" lineHeight="125%" anchor="middle" family="微软雅黑" size="13px" weight="400" font-style="" opacity="1" y="29.708332061767578" transform="rotate(0)"><tspan id="SvgjsTspan1012" dy="16" x="69.5"><tspan id="SvgjsTspan1013" style="text-decoration:;">GateWay网关</tspan></tspan></text></g></g><g id="SvgjsG1014" transform="translate(837.5000152587891,386.01043128967285)"><path id="SvgjsPath1015" d="M 0 0L 187.5 0L 187.5 480L 0 480Z" stroke="rgba(50,50,50,1)" stroke-width="2" fill-opacity="1" fill="#ffffff"></path><g id="SvgjsG1016"><text id="SvgjsText1017" font-family="微软雅黑" text-anchor="middle" font-size="13px" width="168px" fill="#323232" font-weight="400" align="middle" lineHeight="125%" anchor="middle" family="微软雅黑" size="13px" weight="400" font-style="" opacity="1" y="229.375" transform="rotate(0)"></text></g></g><g id="SvgjsG1018" transform="translate(882.5000152587891,434.76043128967285)"><path id="SvgjsPath1019" d="M 0 0L 100 0L 100 70L 0 70Z" stroke="rgba(50,50,50,1)" stroke-width="2" fill-opacity="1" fill="#ffffff"></path><g id="SvgjsG1020"><text id="SvgjsText1021" font-family="微软雅黑" text-anchor="middle" font-size="13px" width="80px" fill="#323232" font-weight="400" align="middle" lineHeight="125%" anchor="middle" family="微软雅黑" size="13px" weight="400" font-style="" opacity="1" y="24.375" transform="rotate(0)"><tspan id="SvgjsTspan1022" dy="16" x="50"><tspan id="SvgjsTspan1023" style="text-decoration:;">服务一</tspan></tspan></text></g></g><g id="SvgjsG1024" transform="translate(877.5000152587891,589.3437652587891)"><path id="SvgjsPath1025" d="M 0 0L 100 0L 100 70L 0 70Z" stroke="rgba(50,50,50,1)" stroke-width="2" fill-opacity="1" fill="#ffffff"></path><g id="SvgjsG1026"><text id="SvgjsText1027" font-family="微软雅黑" text-anchor="middle" font-size="13px" width="80px" fill="#323232" font-weight="400" align="middle" lineHeight="125%" anchor="middle" family="微软雅黑" size="13px" weight="400" font-style="" opacity="1" y="24.375" transform="rotate(0)"><tspan id="SvgjsTspan1028" dy="16" x="50"><tspan id="SvgjsTspan1029" style="text-decoration:;">服务二</tspan></tspan></text></g></g><g id="SvgjsG1030" transform="translate(882.5000152587891,762.2604312896729)"><path id="SvgjsPath1031" d="M 0 0L 100 0L 100 70L 0 70Z" stroke="rgba(50,50,50,1)" stroke-width="2" fill-opacity="1" fill="#ffffff"></path><g id="SvgjsG1032"><text id="SvgjsText1033" font-family="微软雅黑" text-anchor="middle" font-size="13px" width="80px" fill="#323232" font-weight="400" align="middle" lineHeight="125%" anchor="middle" family="微软雅黑" size="13px" weight="400" font-style="" opacity="1" y="24.375" transform="rotate(0)"><tspan id="SvgjsTspan1034" dy="16" x="50"><tspan id="SvgjsTspan1035" style="text-decoration:;">服务三</tspan></tspan></text></g></g><g id="SvgjsG1036" transform="translate(1189.5833486914635,386.01043128967285)"><path id="SvgjsPath1037" d="M 0 0L 213.33330780267715 0L 213.33330780267715 65.83333015441895L 0 65.83333015441895Z" stroke="rgba(50,50,50,1)" stroke-width="2" fill-opacity="1" fill="#ffffff"></path><g id="SvgjsG1038"><text id="SvgjsText1039" font-family="微软雅黑" text-anchor="middle" font-size="13px" width="194px" fill="#323232" font-weight="400" align="middle" lineHeight="125%" anchor="middle" family="微软雅黑" size="13px" weight="400" font-style="" opacity="1" y="22.291665077209473" transform="rotate(0)"><tspan id="SvgjsTspan1040" dy="16" x="107"><tspan id="SvgjsTspan1041" style="text-decoration:;">rocketMQ</tspan></tspan></text></g></g><g id="SvgjsG1042"><path id="SvgjsPath1043" d="M619.2500152587891 594.7604331970215L728.2916819751263 594.7604331970215L728.2916819751263 594.7604331970215L834.7333486914634 594.7604331970215" stroke="#323232" stroke-width="2" fill="none" marker-end="url(#SvgjsMarker1044)"></path></g><g id="SvgjsG1046" transform="translate(251.25001525878906,449.7604331970215)"><path id="SvgjsPath1047" d="M 0 0L 92.5 0L 92.5 290L 0 290Z" stroke="rgba(50,50,50,1)" stroke-width="2" fill-opacity="1" fill="#ffffff"></path><g id="SvgjsG1048"><text id="SvgjsText1049" font-family="微软雅黑" text-anchor="middle" font-size="13px" width="73px" fill="#323232" font-weight="400" align="middle" lineHeight="125%" anchor="middle" family="微软雅黑" size="13px" weight="400" font-style="" opacity="1" y="134.375" transform="rotate(0)"><tspan id="SvgjsTspan1050" dy="16" x="46.5"><tspan id="SvgjsTspan1051" style="text-decoration:;">客户端</tspan></tspan></text></g></g><g id="SvgjsG1052"><path id="SvgjsPath1053" d="M344.75001525878906 594.7604331970215L411.50001525878906 594.7604331970215L411.50001525878906 594.7604331970215L475.65001525878904 594.7604331970215" stroke="#323232" stroke-width="2" fill="none" marker-end="url(#SvgjsMarker1054)"></path></g><g id="SvgjsG1056" transform="translate(486.87501525878906,472.26043128967285)"><path id="SvgjsPath1057" d="M 0 0L 107.75 0L 123.75 16L 123.75 60L 0 60L 0 0Z" stroke="none" fill-opacity="1" fill="#ffffaa"></path><path id="SvgjsPath1058" d="M 107.75 0L 107.75 16L 123.75 16Z" stroke="none" fill-opacity="1" fill="#cdcdcd"></path><path id="SvgjsPath1059" d="M 0 0L 107.75 0L 123.75 16L 123.75 60L 0 60L 0 0Z" stroke="none" fill="none"></path><g id="SvgjsG1060"><text id="SvgjsText1061" font-family="微软雅黑" text-anchor="middle" font-size="13px" width="104px" fill="#323232" font-weight="400" align="middle" lineHeight="125%" anchor="middle" family="微软雅黑" size="13px" weight="400" font-style="" opacity="1" y="19.375" transform="rotate(0)"><tspan id="SvgjsTspan1062" dy="16" x="62"><tspan id="SvgjsTspan1063" style="text-decoration:;">负载均衡</tspan></tspan></text></g></g><g id="SvgjsG1064" transform="translate(37.20396262721022,449.7604331970215)"><path id="SvgjsPath1065" d="M 0 0L 127.75 0L 143.75 16L 143.75 161.25L 0 161.25L 0 0Z" stroke="none" fill-opacity="1" fill="#ffffaa"></path><path id="SvgjsPath1066" d="M 127.75 0L 127.75 16L 143.75 16Z" stroke="none" fill-opacity="1" fill="#cdcdcd"></path><path id="SvgjsPath1067" d="M 0 0L 127.75 0L 143.75 16L 143.75 161.25L 0 161.25L 0 0Z" stroke="none" fill="none"></path><g id="SvgjsG1068"><text id="SvgjsText1069" font-family="微软雅黑" text-anchor="middle" font-size="13px" width="124px" fill="#323232" font-weight="400" align="middle" lineHeight="125%" anchor="middle" family="微软雅黑" size="13px" weight="400" font-style="" opacity="1" y="61.5" transform="rotate(0)"><tspan id="SvgjsTspan1070" dy="16" x="72"><tspan id="SvgjsTspan1071" style="text-decoration:;">用户已经登录</tspan></tspan><tspan id="SvgjsTspan1072" dy="16" x="72"><tspan id="SvgjsTspan1073" style="text-decoration:;"> </tspan></tspan></text></g></g><g id="SvgjsG1074" transform="translate(485.62501525878906,659.3437652587891)"><path id="SvgjsPath1075" d="M 15.149999999999999 56.29166755676269C -12.625 40.20833396911621 5.05 28.145833778381345 11.362499999999999 24.125000381469725C 8.8375 4.0208333969116214 40.4 0 53.025 8.041666793823243C 63.125 -4.0208333969116214 94.6875 0 94.6875 12.062500190734863C 119.9375 8.041666793823243 130.0375 24.125000381469725 119.9375 44.22916736602784C 128.775 60.312500953674316 119.9375 80.41666793823242 90.89999999999999 72.37500114440918C 84.5875 82.8291679763794 59.3375 82.8291679763794 53.025 72.37500114440918C 40.4 80.41666793823242 15.149999999999999 76.3958345413208 15.149999999999999 56.29166755676269Z" stroke="rgba(50,50,50,1)" stroke-width="2" fill-opacity="1" fill="#ffffff"></path><g id="SvgjsG1076"><text id="SvgjsText1077" font-family="微软雅黑" text-anchor="middle" font-size="13px" width="107px" fill="#323232" font-weight="400" align="middle" lineHeight="125%" anchor="middle" family="微软雅黑" size="13px" weight="400" font-style="" opacity="1" y="29.58333396911621" transform="rotate(0)"><tspan id="SvgjsTspan1078" dy="16" x="63.5"><tspan id="SvgjsTspan1079" style="text-decoration:;">或者nginx网关</tspan></tspan></text></g></g><g id="SvgjsG1080"><path id="SvgjsPath1081" d="M1026.000015258789 626.0104312896729L1107.2916819751263 626.0104312896729L1107.2916819751263 418.9270963668823L1185.9833486914636 418.9270963668823" stroke="#323232" stroke-width="2" fill="none" marker-end="url(#SvgjsMarker1082)"></path></g><g id="SvgjsG1084" transform="translate(1538.750015258789,383.9270963668823)"><path id="SvgjsPath1085" d="M 0 0L 100 0L 100 70L 0 70Z" stroke="rgba(50,50,50,1)" stroke-width="2" fill-opacity="1" fill="#ffffff"></path><g id="SvgjsG1086"><text id="SvgjsText1087" font-family="微软雅黑" text-anchor="middle" font-size="13px" width="80px" fill="#323232" font-weight="400" align="middle" lineHeight="125%" anchor="middle" family="微软雅黑" size="13px" weight="400" font-style="" opacity="1" y="24.375" transform="rotate(0)"><tspan id="SvgjsTspan1088" dy="16" x="50"><tspan id="SvgjsTspan1089" style="text-decoration:;">订单服务</tspan></tspan></text></g></g><g id="SvgjsG1090"><path id="SvgjsPath1091" d="M1403.9166564941406 418.9270963668823L1470.8333358764648 418.9270963668823L1470.8333358764648 418.9270963668823L1535.1500152587892 418.9270963668823" stroke="#323232" stroke-width="2" fill="none" marker-end="url(#SvgjsMarker1092)"></path></g><g id="SvgjsG1094" transform="translate(1198.5416693091393,304.76043128967285)"><path id="SvgjsPath1095" d="M 0 0L 179.4166665673256 0L 195.4166665673256 16L 195.4166665673256 66.24999046325684L 0 66.24999046325684L 0 0Z" stroke="none" fill-opacity="1" fill="#ffffaa"></path><path id="SvgjsPath1096" d="M 179.4166665673256 0L 179.4166665673256 16L 195.4166665673256 16Z" stroke="none" fill-opacity="1" fill="#cdcdcd"></path><path id="SvgjsPath1097" d="M 0 0L 179.4166665673256 0L 195.4166665673256 16L 195.4166665673256 66.24999046325684L 0 66.24999046325684L 0 0Z" stroke="none" fill="none"></path><g id="SvgjsG1098"><text id="SvgjsText1099" font-family="微软雅黑" text-anchor="middle" font-size="13px" width="176px" fill="#323232" font-weight="400" align="middle" lineHeight="125%" anchor="middle" family="微软雅黑" size="13px" weight="400" font-style="" opacity="1" y="22.499995231628418" transform="rotate(0)"><tspan id="SvgjsTspan1100" dy="16" x="98"><tspan id="SvgjsTspan1101" style="text-decoration:;">流量削峰</tspan></tspan></text></g></g><g id="SvgjsG1102" transform="translate(25.000015258789062,866.0104312896729)"><path id="SvgjsPath1103" d="M 0 0L 409 0L 425 16L 425 98.75L 0 98.75L 0 0Z" stroke="none" fill-opacity="1" fill="#ffffaa"></path><path id="SvgjsPath1104" d="M 409 0L 409 16L 425 16Z" stroke="none" fill-opacity="1" fill="#cdcdcd"></path><path id="SvgjsPath1105" d="M 0 0L 409 0L 425 16L 425 98.75L 0 98.75L 0 0Z" stroke="none" fill="none"></path><g id="SvgjsG1106"><text id="SvgjsText1107" font-family="微软雅黑" text-anchor="middle" font-size="13px" width="405px" fill="#323232" font-weight="400" align="middle" lineHeight="125%" anchor="middle" family="微软雅黑" size="13px" weight="400" font-style="" opacity="1" y="38.75" transform="rotate(0)"><tspan id="SvgjsTspan1108" dy="16" x="212.5"><tspan id="SvgjsTspan1109" style="text-decoration:;">商品抢购并不需要用户支付,应抢到商品之后进行支付</tspan></tspan></text></g></g><g id="SvgjsG1110"><path id="SvgjsPath1111" d="M1639.750015258789 418.9270963668823L1777.187515258789 418.9270963668823L1777.187515258789 418.9270963668823L1912.0250152587892 418.9270963668823" stroke="#323232" stroke-width="2" fill="none" marker-end="url(#SvgjsMarker1112)"></path><rect id="SvgjsRect1114" width="98" height="16" x="1726.887515258789" y="410.9270963668823" fill="#ffffff"></rect><text id="SvgjsText1115" font-family="微软雅黑" text-anchor="middle" font-size="13px" width="98px" fill="#323232" font-weight="400" align="top" lineHeight="16px" anchor="middle" family="微软雅黑" size="13px" weight="400" font-style="" opacity="1" y="408.3020963668823" transform="rotate(0)"><tspan id="SvgjsTspan1116" dy="16" x="1775.887515258789"><tspan id="SvgjsTspan1117" style="text-decoration:;">seata分布式事务</tspan></tspan></text></g><g id="SvgjsG1118" transform="translate(1915.625015258789,225.8021023273468)"><path id="SvgjsPath1119" d="M 0 0L 201.45835876464844 0L 201.45835876464844 386.24998807907104L 0 386.24998807907104Z" stroke="rgba(50,50,50,1)" stroke-width="2" fill-opacity="1" fill="#ffffff"></path><g id="SvgjsG1120"><text id="SvgjsText1121" font-family="微软雅黑" text-anchor="middle" font-size="13px" width="182px" fill="#323232" font-weight="400" align="middle" lineHeight="125%" anchor="middle" family="微软雅黑" size="13px" weight="400" font-style="" opacity="1" y="182.49999403953552" transform="rotate(0)"></text></g></g><g id="SvgjsG1122" transform="translate(1965.8333740234375,262.2604217529297)"><path id="SvgjsPath1123" d="M 0 0L 100 0L 100 70L 0 70Z" stroke="rgba(50,50,50,1)" stroke-width="2" fill-opacity="1" fill="#ffffff"></path><g id="SvgjsG1124"><text id="SvgjsText1125" font-family="微软雅黑" text-anchor="middle" font-size="13px" width="80px" fill="#323232" font-weight="400" align="middle" lineHeight="125%" anchor="middle" family="微软雅黑" size="13px" weight="400" font-style="" opacity="1" y="24.375" transform="rotate(0)"><tspan id="SvgjsTspan1126" dy="16" x="50"><tspan id="SvgjsTspan1127" style="text-decoration:;">库存服务</tspan></tspan></text></g></g><g id="SvgjsG1128" transform="translate(1965.8333740234375,383.9270963668823)"><path id="SvgjsPath1129" d="M 0 0L 100 0L 100 70L 0 70Z" stroke="rgba(50,50,50,1)" stroke-width="2" fill-opacity="1" fill="#ffffff"></path><g id="SvgjsG1130"><text id="SvgjsText1131" font-family="微软雅黑" text-anchor="middle" font-size="13px" width="80px" fill="#323232" font-weight="400" align="middle" lineHeight="125%" anchor="middle" family="微软雅黑" size="13px" weight="400" font-style="" opacity="1" y="24.375" transform="rotate(0)"><tspan id="SvgjsTspan1132" dy="16" x="50"><tspan id="SvgjsTspan1133" style="text-decoration:;">用户服务</tspan></tspan></text></g></g><g id="SvgjsG1134" transform="translate(1965.8333740234375,504.76043128967285)"><path id="SvgjsPath1135" d="M 0 4Q 0 0 4 0L 96 0Q 100 0 100 4L 100 66Q 100 70 96 70L 4 70Q 0 70 0 66Z" stroke="rgba(50,50,50,1)" stroke-width="2" fill-opacity="1" fill="#ffffff"></path><g id="SvgjsG1136"><text id="SvgjsText1137" font-family="微软雅黑" text-anchor="middle" font-size="13px" width="80px" fill="#323232" font-weight="400" align="middle" lineHeight="125%" anchor="middle" family="微软雅黑" size="13px" weight="400" font-style="" opacity="1" y="24.375" transform="rotate(0)"><tspan id="SvgjsTspan1138" dy="16" x="50"><tspan id="SvgjsTspan1139" style="text-decoration:;">订单服务</tspan></tspan></text></g></g><g id="SvgjsG1140"><path id="SvgjsPath1141" d="M2066.8333740234375 297.2604217529297L2198.3333740234375 297.2604217529297L2198.3333740234375 418.9270963668823L2069.4333740234374 418.9270963668823" stroke="#323232" stroke-width="2" fill="none" marker-end="url(#SvgjsMarker1142)"></path></g><g id="SvgjsG1144" transform="translate(2236.666732788086,313.5104217529297)"><path id="SvgjsPath1145" d="M 0 0L 141.5 0L 157.5 16L 157.5 93.75L 0 93.75L 0 0Z" stroke="none" fill-opacity="1" fill="#ffffaa"></path><path id="SvgjsPath1146" d="M 141.5 0L 141.5 16L 157.5 16Z" stroke="none" fill-opacity="1" fill="#cdcdcd"></path><path id="SvgjsPath1147" d="M 0 0L 141.5 0L 157.5 16L 157.5 93.75L 0 93.75L 0 0Z" stroke="none" fill="none"></path><g id="SvgjsG1148"><text id="SvgjsText1149" font-family="微软雅黑" text-anchor="middle" font-size="13px" width="138px" fill="#323232" font-weight="400" align="middle" lineHeight="125%" anchor="middle" family="微软雅黑" size="13px" weight="400" font-style="" opacity="1" y="36.25" transform="rotate(0)"><tspan id="SvgjsTspan1150" dy="16" x="79"><tspan id="SvgjsTspan1151" style="text-decoration:;">对库存进行扣减</tspan></tspan></text></g></g><g id="SvgjsG1152"><path id="SvgjsPath1153" d="M2066.8333740234375 418.9270963668823L2164.5833740234375 418.9270963668823L2164.5833740234375 539.7604312896729L2069.4333740234374 539.7604312896729" stroke="#323232" stroke-width="2" fill="none" marker-end="url(#SvgjsMarker1154)"></path></g><g id="SvgjsG1156" transform="translate(2205.416732788086,436.01043128967285)"><path id="SvgjsPath1157" d="M 0 0L 156.5 0L 172.5 16L 172.5 96.25L 0 96.25L 0 0Z" stroke="none" fill-opacity="1" fill="#ffffaa"></path><path id="SvgjsPath1158" d="M 156.5 0L 156.5 16L 172.5 16Z" stroke="none" fill-opacity="1" fill="#cdcdcd"></path><path id="SvgjsPath1159" d="M 0 0L 156.5 0L 172.5 16L 172.5 96.25L 0 96.25L 0 0Z" stroke="none" fill="none"></path><g id="SvgjsG1160"><text id="SvgjsText1161" font-family="微软雅黑" text-anchor="middle" font-size="13px" width="153px" fill="#323232" font-weight="400" align="middle" lineHeight="125%" anchor="middle" family="微软雅黑" size="13px" weight="400" font-style="" opacity="1" y="37.5" transform="rotate(0)"><tspan id="SvgjsTspan1162" dy="16" x="86.5"><tspan id="SvgjsTspan1163" style="text-decoration:;">查询用户信息生成订单</tspan></tspan></text></g></g><g id="SvgjsG1164"><path id="SvgjsPath1165" d="M931.2500152587891 867.0104312896729L931.2500152587891 969.4479455947876L1114.5833486914635 969.4479455947876L1114.5833486914635 1069.2854598999024" stroke="#323232" stroke-width="2" fill="none" marker-end="url(#SvgjsMarker1166)"></path></g><g id="SvgjsG1168" transform="translate(1064.5833486914635,1072.8854598999023)"><path id="SvgjsPath1169" d="M 0 0L 100 0L 100 70L 0 70Z" stroke="rgba(50,50,50,1)" stroke-width="2" fill-opacity="1" fill="#ffffff"></path><g id="SvgjsG1170"><text id="SvgjsText1171" font-family="微软雅黑" text-anchor="middle" font-size="13px" width="80px" fill="#323232" font-weight="400" align="middle" lineHeight="125%" anchor="middle" family="微软雅黑" size="13px" weight="400" font-style="" opacity="1" y="24.375" transform="rotate(0)"><tspan id="SvgjsTspan1172" dy="16" x="50"><tspan id="SvgjsTspan1173" style="text-decoration:;">服务s</tspan></tspan></text></g></g><g id="SvgjsG1174" transform="translate(1538.750015258789,906.0104598999023)"><path id="SvgjsPath1175" d="M 0 4Q 0 0 4 0L 139.75 0Q 143.75 0 143.75 4L 143.75 399.75Q 143.75 403.75 139.75 403.75L 4 403.75Q 0 403.75 0 399.75Z" stroke="rgba(50,50,50,1)" stroke-width="2" fill-opacity="1" fill="#ffffff"></path><g id="SvgjsG1176"><text id="SvgjsText1177" font-family="微软雅黑" text-anchor="middle" font-size="13px" width="124px" fill="#323232" font-weight="400" align="middle" lineHeight="125%" anchor="middle" family="微软雅黑" size="13px" weight="400" font-style="" opacity="1" y="191.25" transform="rotate(0)"><tspan id="SvgjsTspan1178" dy="16" x="72"><tspan id="SvgjsTspan1179" style="text-decoration:;">redis</tspan></tspan></text></g></g><g id="SvgjsG1180" transform="translate(1726.6666946411133,916.0104598999023)"><path id="SvgjsPath1181" d="M 0 0L 256.91666848318937 0L 272.91666848318937 16L 272.91666848318937 130.89284624372215L 0 130.89284624372215L 0 0Z" stroke="none" fill-opacity="1" fill="#ffffaa"></path><path id="SvgjsPath1182" d="M 256.91666848318937 0L 256.91666848318937 16L 272.91666848318937 16Z" stroke="none" fill-opacity="1" fill="#cdcdcd"></path><path id="SvgjsPath1183" d="M 0 0L 256.91666848318937 0L 272.91666848318937 16L 272.91666848318937 130.89284624372215L 0 130.89284624372215L 0 0Z" stroke="none" fill="none"></path><g id="SvgjsG1184"><text id="SvgjsText1185" font-family="微软雅黑" text-anchor="start" font-size="13px" width="253px" fill="#323232" font-weight="400" align="top" lineHeight="125%" anchor="start" family="微软雅黑" size="13px" weight="400" font-style="" opacity="1" y="7.375" transform="rotate(0)"><tspan id="SvgjsTspan1186" dy="16" x="10"><tspan id="SvgjsTspan1187" style="text-decoration:;">需要将秒杀的商品数量存入redis</tspan></tspan><tspan id="SvgjsTspan1188" dy="16" x="10"><tspan id="SvgjsTspan1189" style="text-decoration:;"> </tspan></tspan><tspan id="SvgjsTspan1190" dy="16" x="10"><tspan id="SvgjsTspan1191" style="text-decoration:;">存入hash来保存抢到的用户信息</tspan></tspan></text></g></g><g id="SvgjsG1192"><path id="SvgjsPath1193" d="M1165.5833486914635 1107.8854598999023L1351.6666819751263 1107.8854598999023L1351.6666819751263 1107.8854598999023L1535.1500152587892 1107.8854598999023" stroke="#323232" stroke-width="2" fill="none" marker-end="url(#SvgjsMarker1194)"></path></g><g id="SvgjsG1196" transform="translate(1296.6666946411133,1021.0104598999023)"><path id="SvgjsPath1197" d="M 10.799999999999999 49C -9 35 3.6 24.5 8.1 21C 6.300000000000001 3.5 28.8 0 37.8 7C 45 -3.5 67.5 0 67.5 10.5C 85.5 7 92.7 21 85.5 38.5C 91.8 52.5 85.5 70 64.8 63C 60.300000000000004 72.10000000000001 42.3 72.10000000000001 37.8 63C 28.8 70 10.799999999999999 66.5 10.799999999999999 49Z" stroke="rgba(50,50,50,1)" stroke-width="2" fill-opacity="1" fill="#ffffff"></path><g id="SvgjsG1198"><text id="SvgjsText1199" font-family="微软雅黑" text-anchor="middle" font-size="13px" width="70px" fill="#323232" font-weight="400" align="middle" lineHeight="125%" anchor="middle" family="微软雅黑" size="13px" weight="400" font-style="" opacity="1" y="24.375" transform="rotate(0)"><tspan id="SvgjsTspan1200" dy="16" x="45"><tspan id="SvgjsTspan1201" style="text-decoration:;">分布式锁</tspan></tspan></text></g></g><g id="SvgjsG1202" transform="translate(1250.4166819751263,1134.7604598999023)"><path id="SvgjsPath1203" d="M 0 0L 186.5 0L 202.5 16L 202.5 117.08332061767578L 0 117.08332061767578L 0 0Z" stroke="none" fill-opacity="1" fill="#ffffaa"></path><path id="SvgjsPath1204" d="M 186.5 0L 186.5 16L 202.5 16Z" stroke="none" fill-opacity="1" fill="#cdcdcd"></path><path id="SvgjsPath1205" d="M 0 0L 186.5 0L 202.5 16L 202.5 117.08332061767578L 0 117.08332061767578L 0 0Z" stroke="none" fill="none"></path><g id="SvgjsG1206"><text id="SvgjsText1207" font-family="微软雅黑" text-anchor="middle" font-size="13px" width="183px" fill="#323232" font-weight="400" align="middle" lineHeight="125%" anchor="middle" family="微软雅黑" size="13px" weight="400" font-style="" opacity="1" y="39.41666030883789" transform="rotate(0)"><tspan id="SvgjsTspan1208" dy="16" x="101.5"><tspan id="SvgjsTspan1209" style="text-decoration:;">分布式锁查询商品库存是否足够</tspan></tspan></text></g></g><g id="SvgjsG1210" transform="translate(1237.2916883081198,1289.3437805175781)"><path id="SvgjsPath1211" d="M 0 0L 192.75001266598701 0L 208.75001266598701 16L 208.75001266598701 78.75003814697266L 0 78.75003814697266L 0 0Z" stroke="none" fill-opacity="1" fill="#ffffaa"></path><path id="SvgjsPath1212" d="M 192.75001266598701 0L 192.75001266598701 16L 208.75001266598701 16Z" stroke="none" fill-opacity="1" fill="#cdcdcd"></path><path id="SvgjsPath1213" d="M 0 0L 192.75001266598701 0L 208.75001266598701 16L 208.75001266598701 78.75003814697266L 0 78.75003814697266L 0 0Z" stroke="none" fill="none"></path><g id="SvgjsG1214"><text id="SvgjsText1215" font-family="微软雅黑" text-anchor="middle" font-size="13px" width="189px" fill="#323232" font-weight="400" align="middle" lineHeight="125%" anchor="middle" family="微软雅黑" size="13px" weight="400" font-style="" opacity="1" y="20.250019073486328" transform="rotate(0)"><tspan id="SvgjsTspan1216" dy="16" x="104.5"><tspan id="SvgjsTspan1217" style="text-decoration:;">足够从redis中减去库存</tspan></tspan><tspan id="SvgjsTspan1218" dy="16" x="104.5"><tspan id="SvgjsTspan1219" style="text-decoration:;">将用户以及商品信息发送到MQ</tspan></tspan></text></g></g><g id="SvgjsG1220" transform="translate(869.5833486914636,1171.892787409764)"><path id="SvgjsPath1221" d="M 0 0L 179 0L 195 16L 195 73.75L 0 73.75L 0 0Z" stroke="none" fill-opacity="1" fill="#ffffaa"></path><path id="SvgjsPath1222" d="M 179 0L 179 16L 195 16Z" stroke="none" fill-opacity="1" fill="#cdcdcd"></path><path id="SvgjsPath1223" d="M 0 0L 179 0L 195 16L 195 73.75L 0 73.75L 0 0Z" stroke="none" fill="none"></path><g id="SvgjsG1224"><text id="SvgjsText1225" font-family="微软雅黑" text-anchor="middle" font-size="13px" width="175px" fill="#323232" font-weight="400" align="middle" lineHeight="125%" anchor="middle" family="微软雅黑" size="13px" weight="400" font-style="" opacity="1" y="17.75" transform="rotate(0)"><tspan id="SvgjsTspan1226" dy="16" x="97.5"><tspan id="SvgjsTspan1227" style="text-decoration:;">解决方案二</tspan></tspan><tspan id="SvgjsTspan1228" dy="16" x="97.5"><tspan id="SvgjsTspan1229" style="text-decoration:;">利用redis单线程的特性</tspan></tspan></text></g></g><g id="SvgjsG1230"><path id="SvgjsPath1231" d="M297.50001525878906 448.7604331970215L297.50001525878906 87.23067375591825L2016.3541946411133 87.23067375591825L2016.3541946411133 222.2021023273468" stroke="#323232" stroke-width="2" fill="none" marker-end="url(#SvgjsMarker1232)"></path></g><g id="SvgjsG1234" transform="translate(945.0000152587891,24.99852970668246)"><path id="SvgjsPath1235" d="M 0 0L 398.1071428571429 0L 414.1071428571429 16L 414.1071428571429 101.42857142857144L 0 101.42857142857144L 0 0Z" stroke="none" fill-opacity="1" fill="#ffffaa"></path><path id="SvgjsPath1236" d="M 398.1071428571429 0L 398.1071428571429 16L 414.1071428571429 16Z" stroke="none" fill-opacity="1" fill="#cdcdcd"></path><path id="SvgjsPath1237" d="M 0 0L 398.1071428571429 0L 414.1071428571429 16L 414.1071428571429 101.42857142857144L 0 101.42857142857144L 0 0Z" stroke="none" fill="none"></path><g id="SvgjsG1238"><text id="SvgjsText1239" font-family="微软雅黑" text-anchor="middle" font-size="13px" width="395px" fill="#323232" font-weight="400" align="middle" lineHeight="125%" anchor="middle" family="微软雅黑" size="13px" weight="400" font-style="" opacity="1" y="40.08928571428572" transform="rotate(0)"><tspan id="SvgjsTspan1240" dy="16" x="207.5"><tspan id="SvgjsTspan1241" style="text-decoration:;">通过定时任务查询库存,通过MQ返回订单</tspan></tspan></text></g></g><g id="SvgjsG1242"><path id="SvgjsPath1243" d="M1999.5833631243027 981.4568830217634L2067.5320738069304 981.4568830217634L2067.5320738069304 981.4568830217634L2135.480784489558 981.4568830217634" stroke="#323232" stroke-width="2" fill="none" marker-end="url(#SvgjsMarker1244)"></path></g><g id="SvgjsG1246" transform="translate(2134.9679952768183,926.427101135254)"><path id="SvgjsPath1247" d="M 0 0L 264 0L 280 16L 280 110.05956377301891L 0 110.05956377301891L 0 0Z" stroke="none" fill-opacity="1" fill="#ffffaa"></path><path id="SvgjsPath1248" d="M 264 0L 264 16L 280 16Z" stroke="none" fill-opacity="1" fill="#cdcdcd"></path><path id="SvgjsPath1249" d="M 0 0L 264 0L 280 16L 280 110.05956377301891L 0 110.05956377301891L 0 0Z" stroke="none" fill="none"></path><g id="SvgjsG1250"><text id="SvgjsText1251" font-family="微软雅黑" text-anchor="middle" font-size="13px" width="260px" fill="#323232" font-weight="400" align="middle" lineHeight="125%" anchor="middle" family="微软雅黑" size="13px" weight="400" font-style="" opacity="1" y="27.904781886509454" transform="rotate(0)"><tspan id="SvgjsTspan1252" dy="16" x="140"><tspan id="SvgjsTspan1253" style="text-decoration:;">hash:</tspan></tspan><tspan id="SvgjsTspan1254" dy="16" x="140"><tspan id="SvgjsTspan1255" style="text-decoration:;">field:用户id</tspan></tspan><tspan id="SvgjsTspan1256" dy="16" x="140"><tspan id="SvgjsTspan1257" style="text-decoration:;">value:商品id</tspan></tspan></text></g></g><g id="SvgjsG1258" transform="translate(2156.6666818261147,1046.9033061436244)"><path id="SvgjsPath1259" d="M 28.8615347055288 92.88461538461542C -24.051278921274005 66.34615384615387 9.6205115685096 46.44230769230771 21.6461510291466 39.80769230769232C 16.835895244891802 6.634615384615387 76.9640925480768 0 101.0153714693508 13.269230769230774C 120.25639460637001 -6.634615384615387 180.384591909555 0 180.384591909555 19.90384615384616C 228.487149752103 13.269230769230774 247.72817288912222 39.80769230769232 228.487149752103 72.98076923076925C 245.3230449969948 99.5192307692308 228.487149752103 132.69230769230774 173.1692082331728 119.42307692307696C 161.14356877253582 136.67307692307696 113.0410109299878 136.67307692307696 101.0153714693508 119.42307692307696C 76.9640925480768 132.69230769230774 28.8615347055288 126.05769230769235 28.8615347055288 92.88461538461542Z" stroke="rgba(50,50,50,1)" stroke-width="2" fill-opacity="1" fill="#ffffff"></path><g id="SvgjsG1260"><text id="SvgjsText1261" font-family="微软雅黑" text-anchor="middle" font-size="13px" width="221px" fill="#323232" font-weight="400" align="middle" lineHeight="125%" anchor="middle" family="微软雅黑" size="13px" weight="400" font-style="" opacity="1" y="55.72115384615387" transform="rotate(0)"><tspan id="SvgjsTspan1262" dy="16" x="120.5"><tspan id="SvgjsTspan1263" style="text-decoration:;">防止用户重复下单</tspan></tspan></text></g></g><g id="SvgjsG1264" transform="translate(2065.8333740234375,53.60657266470105)"><path id="SvgjsPath1265" d="M 0 0L 259.28846740722656 0L 275.28846740722656 16L 275.28846740722656 80.76923076923075L 0 80.76923076923075L 0 0Z" stroke="none" fill-opacity="1" fill="#ffffaa"></path><path id="SvgjsPath1266" d="M 259.28846740722656 0L 259.28846740722656 16L 275.28846740722656 16Z" stroke="none" fill-opacity="1" fill="#cdcdcd"></path><path id="SvgjsPath1267" d="M 0 0L 259.28846740722656 0L 275.28846740722656 16L 275.28846740722656 80.76923076923075L 0 80.76923076923075L 0 0Z" stroke="none" fill="none"></path><g id="SvgjsG1268"><text id="SvgjsText1269" font-family="微软雅黑" text-anchor="middle" font-size="13px" width="256px" fill="#323232" font-weight="400" align="middle" lineHeight="125%" anchor="middle" family="微软雅黑" size="13px" weight="400" font-style="" opacity="1" y="29.759615384615373" transform="rotate(0)"><tspan id="SvgjsTspan1270" dy="16" x="138"><tspan id="SvgjsTspan1271" style="text-decoration:;">防止重复下单,还要查询订单</tspan></tspan></text></g></g></svg>